BlueOcean-Bold.ufo
<glyph name="exclam" format="1">
  <advance width="217"/>
  <unicode hex="0021"/>
  <outline>
    <contour>
      <point x="166" y="657" type="line"/>
      <point x="100" y="703" type="line"/>
      <point x="33" y="657" type="line"/>
      <point x="82" y="220" type="line"/>
      <point x="118" y="220" type="line"/>
    </contour>
    <contour>
      <point x="19" y="66" type="line"/>
      <point x="105" y="-26" type="line"/>
      <point x="190" y="66" type="line"/>
      <point x="105" y="159" type="line"/>
    </contour>
  </outline>
</glyph>
<glyph name="quotedbl" format="1">
  <advance width="246"/>
  <unicode hex="0022"/>
  <outline>
    <contour>
      <point x="80" y="475" type="line"/>
      <point x="98" y="695" type="line"/>
      <point x="24" y="695" type="line"/>
      <point x="40" y="475" type="line"/>
    </contour>
    <contour>
      <point x="197" y="475" type="line"/>
      <point x="215" y="695" type="line"/>
      <point x="141" y="695" type="line"/>
      <point x="157" y="475" type="line"/>
    </contour>
  </outline>
</glyph>
<glyph name="numbersign" format="1">
  <advance width="584"/>
  <unicode hex="0023"/>
  <outline>
    <contour>
      <point x="254" y="429" type="line"/>
      <point x="300" y="608" type="line"/>
      <point x="226" y="608" type="line"/>
      <point x="180" y="429" type="line"/>
      <point x="58" y="429" type="line"/>
      <point x="58" y="379" type="line"/>
      <point x="167" y="379" type="line"/>
      <point x="130" y="227" type="line"/>
      <point x="30" y="227" type="line"/>
      <point x="30" y="176" type="line"/>
      <point x="117" y="176" type="line"/>
      <point x="69" y="0" type="line"/>
      <point x="143" y="0" type="line"/>
      <point x="191" y="176" type="line"/>
      <point x="309" y="176" type="line"/>
      <point x="262" y="0" type="line"/>
      <point x="336" y="0" type="line"/>
      <point x="383" y="176" type="line"/>
      <point x="526" y="176" type="line"/>
      <point x="526" y="227" type="line"/>
      <point x="396" y="227" type="line"/>
      <point x="433" y="379" type="line"/>
      <point x="554" y="379" type="line"/>
      <point x="554" y="429" type="line"/>
      <point x="446" y="429" type="line"/>
      <point x="493" y="608" type="line"/>
      <point x="419" y="608" type="line"/>
      <point x="372" y="429" type="line"/>
    </contour>
    <contour>
      <point x="204" y="227" type="line"/>
      <point x="241" y="379" type="line"/>
      <point x="359" y="379" type="line"/>
      <point x="322" y="227" type="line"/>
    </contour>
  </outline>
</glyph>
<glyph name="dollar" format="1">
  <advance width="465"/>
  <unicode hex="0024"/>
  <outline>
    <contour>
      <point x="30" y="233" type="line"/>
      <point x="41" y="24" type="line"/>
      <point x="79" y="7"/>
      <point x="141" y="-4"/>
      <point x="194" y="-7" type="curve"/>
      <point x="194" y="-58" type="line"/>
      <point x="232" y="-58" type="line"/>
      <point x="234" y="-7" type="line"/>
      <point x="352" y="-1"/>
      <point x="435" y="55"/>
      <point x="435" y="187" type="curve" smooth="yes"/>
      <point x="435" y="296"/>
      <point x="335" y="333"/>
      <point x="247" y="370" type="curve"/>
      <point x="254" y="559" type="line"/>
      <point x="310" y="540"/>
      <point x="356" y="492"/>
      <point x="381" y="422" type="curve"/>
      <point x="388" y="421" type="line"/>
      <point x="388" y="609" type="line"/>
      <point x="346" y="596" type="line"/>
      <point x="255" y="596" type="line"/>
      <point x="257" y="649" type="line"/>
      <point x="195" y="649" type="line"/>
      <point x="195" y="595" type="line"/>
      <point x="84" y="585"/>
      <point x="33" y="512"/>
      <point x="33" y="428" type="curve" smooth="yes"/>
      <point x="33" y="318"/>
      <point x="115" y="278"/>
      <point x="194" y="243" type="curve"/>
      <point x="194" y="34" type="line"/>
      <point x="123" y="60"/>
      <point x="65" y="139"/>
      <point x="40" y="233" type="curve"/>
    </contour>
    <contour>
      <point x="195" y="393" type="line"/>
      <point x="150" y="416"/>
      <point x="118" y="444"/>
      <point x="118" y="489" type="curve" smooth="yes"/>
      <point x="118" y="537"/>
      <point x="150" y="566"/>
      <point x="195" y="568" type="curve"/>
    </contour>
    <contour>
      <point x="235" y="26" type="line"/>
      <point x="242" y="221" type="line"/>
      <point x="296" y="195"/>
      <point x="340" y="164"/>
      <point x="340" y="104" type="curve" smooth="yes"/>
      <point x="340" y="50"/>
      <point x="288" y="26"/>
      <point x="242" y="26" type="curve" smooth="yes"/>
    </contour>
  </outline>
</glyph>
<glyph name="percent" format="1">
  <advance width="781"/>
  <unicode hex="0025"/>
  <outline>
    <contour>
      <point x="642" y="719" type="line"/>
      <point x="594" y="719" type="line"/>
      <point x="143" y="-33" type="line"/>
      <point x="190" y="-33" type="line"/>
    </contour>
    <contour>
      <point x="362" y="508" type="curve" smooth="yes"/>
      <point x="362" y="599"/>
      <point x="311" y="689"/>
      <point x="216" y="689" type="curve" smooth="yes"/>
      <point x="94" y="689"/>
      <point x="33" y="573"/>
      <point x="33" y="474" type="curve" smooth="yes"/>
      <point x="33" y="383"/>
      <point x="84" y="293"/>
      <point x="178" y="293" type="curve" smooth="yes"/>
      <point x="300" y="293"/>
      <point x="362" y="409"/>
    </contour>
    <contour>
      <point x="181" y="660" type="curve" smooth="yes"/>
      <point x="237" y="660"/>
      <point x="278" y="557"/>
      <point x="278" y="438" type="curve" smooth="yes"/>
      <point x="278" y="399"/>
      <point x="263" y="322"/>
      <point x="216" y="322" type="curve" smooth="yes"/>
      <point x="159" y="322"/>
      <point x="119" y="425"/>
      <point x="119" y="544" type="curve" smooth="yes"/>
      <point x="119" y="590"/>
      <point x="127" y="660"/>
    </contour>
    <contour>
      <point x="748" y="205" type="curve" smooth="yes"/>
      <point x="748" y="296"/>
      <point x="697" y="386"/>
      <point x="602" y="386" type="curve" smooth="yes"/>
      <point x="480" y="386"/>
      <point x="419" y="270"/>
      <point x="419" y="171" type="curve" smooth="yes"/>
      <point x="419" y="80"/>
      <point x="470" y="-10"/>
      <point x="564" y="-10" type="curve" smooth="yes"/>
      <point x="686" y="-10"/>
      <point x="748" y="106"/>
    </contour>
    <contour>
      <point x="567" y="357" type="curve" smooth="yes"/>
      <point x="623" y="357"/>
      <point x="664" y="254"/>
      <point x="664" y="135" type="curve" smooth="yes"/>
      <point x="664" y="96"/>
      <point x="649" y="19"/>
      <point x="602" y="19" type="curve" smooth="yes"/>
      <point x="545" y="19"/>
      <point x="505" y="122"/>
      <point x="505" y="241" type="curve" smooth="yes"/>
      <point x="505" y="287"/>
      <point x="513" y="357"/>
    </contour>
  </outline>
</glyph>
<glyph name="ampersand" format="1">
  <advance width="791"/>
  <unicode hex="0026"/>
  <outline>
    <contour>
      <point x="618" y="368" type="line"/>
      <point x="536" y="206" type="line"/>
      <point x="430" y="350" type="line"/>
      <point x="361" y="350" type="line"/>
      <point x="356" y="390" type="line"/>
      <point x="464" y="413"/>
      <point x="514" y="491"/>
      <point x="514" y="557" type="curve" smooth="yes"/>
      <point x="514" y="630"/>
      <point x="454" y="695"/>
      <point x="335" y="695" type="curve" smooth="yes"/>
      <point x="180" y="695"/>
      <point x="112" y="603"/>
      <point x="112" y="525" type="curve" smooth="yes"/>
      <point x="112" y="452"/>
      <point x="170" y="383"/>
      <point x="289" y="383" type="curve" smooth="yes"/>
      <point x="291" y="383" type="line"/>
      <point x="291" y="338" type="line"/>
      <point x="161" y="310"/>
      <point x="44" y="234"/>
      <point x="44" y="131" type="curve" smooth="yes"/>
      <point x="44" y="44"/>
      <point x="104" y="-15"/>
      <point x="237" y="-15" type="curve" smooth="yes"/>
      <point x="339" y="-15"/>
      <point x="411" y="38"/>
      <point x="469" y="92" type="curve"/>
      <point x="533" y="0" type="line"/>
      <point x="725" y="0" type="line"/>
      <point x="632" y="75" type="line"/>
      <point x="552" y="183" type="line"/>
      <point x="650" y="366" type="line"/>
      <point x="768" y="436" type="line"/>
      <point x="522" y="436" type="line"/>
    </contour>
    <contour>
      <point x="292" y="669" type="curve" smooth="yes"/>
      <point x="349" y="669"/>
      <point x="396" y="596"/>
      <point x="396" y="503" type="curve" smooth="yes"/>
      <point x="396" y="473"/>
      <point x="382" y="408"/>
      <point x="331" y="408" type="curve" smooth="yes"/>
      <point x="274" y="408"/>
      <point x="229" y="487"/>
      <point x="229" y="580" type="curve" smooth="yes"/>
      <point x="229" y="616"/>
      <point x="233" y="669"/>
    </contour>
    <contour>
      <point x="454" y="114" type="line"/>
      <point x="425" y="77"/>
      <point x="372" y="51"/>
      <point x="327" y="51" type="curve" smooth="yes"/>
      <point x="225" y="51"/>
      <point x="182" y="97"/>
      <point x="182" y="176" type="curve" smooth="yes"/>
      <point x="182" y="243"/>
      <point x="238" y="304"/>
      <point x="310" y="322" type="curve"/>
    </contour>
  </outline>
</glyph>
<glyph name="quotesingle" format="1">
  <advance width="134"/>
  <unicode hex="0027"/>
  <outline>
    <contour>
      <point x="82" y="475" type="line"/>
      <point x="100" y="695" type="line"/>
      <point x="26" y="695" type="line"/>
      <point x="42" y="475" type="line"/>
    </contour>
  </outline>
</glyph>
<glyph name="parenleft" format="1">
  <advance width="291"/>
  <unicode hex="0028"/>
  <outline>
    <contour>
      <point x="266" y="726" type="line"/>
      <point x="167" y="630"/>
      <point x="31" y="526"/>
      <point x="31" y="276" type="curve" smooth="yes"/>
      <point x="31" y="26"/>
      <point x="167" y="-88"/>
      <point x="266" y="-174" type="curve"/>
      <point x="281" y="-159" type="line"/>
      <point x="160" y="-37"/>
      <point x="129" y="94"/>
      <point x="129" y="276" type="curve" smooth="yes"/>
      <point x="129" y="458"/>
      <point x="160" y="588"/>
      <point x="281" y="711" type="curve"/>
    </contour>
  </outline>
</glyph>
<glyph name="parenright" format="1">
  <advance width="290"/>
  <unicode hex="0029"/>
  <outline>
    <contour>
      <point x="10" y="711" type="line"/>
      <point x="131" y="588"/>
      <point x="162" y="458"/>
      <point x="162" y="276" type="curve" smooth="yes"/>
      <point x="162" y="94"/>
      <point x="131" y="-37"/>
      <point x="10" y="-159" type="curve"/>
      <point x="25" y="-174" type="line"/>
      <point x="123" y="-88"/>
      <point x="259" y="26"/>
      <point x="259" y="276" type="curve" smooth="yes"/>
      <point x="259" y="526"/>
      <point x="123" y="630"/>
      <point x="25" y="726" type="curve"/>
    </contour>
  </outline>
</glyph>
<glyph name="asterisk" format="1">
  <advance width="335"/>
  <unicode hex="002A"/>
  <outline>
    <contour>
      <point x="178" y="537" type="line"/>
      <point x="205" y="656" type="line"/>
      <point x="168" y="696" type="line"/>
      <point x="132" y="654" type="line"/>
      <point x="160" y="537" type="line"/>
    </contour>
    <contour>
      <point x="138" y="515" type="line"/>
      <point x="21" y="551" type="line"/>
      <point x="5" y="603" type="line"/>
      <point x="59" y="613" type="line"/>
      <point x="147" y="531" type="line"/>
    </contour>
    <contour>
      <point x="198" y="515" type="line"/>
      <point x="314" y="551" type="line"/>
      <point x="331" y="603" type="line"/>
      <point x="276" y="613" type="line"/>
      <point x="189" y="531" type="line"/>
    </contour>
    <contour>
      <point x="138" y="499" type="line"/>
      <point x="21" y="463" type="line"/>
      <point x="5" y="411" type="line"/>
      <point x="59" y="400" type="line"/>
      <point x="147" y="483" type="line"/>
    </contour>
    <contour>
      <point x="198" y="499" type="line"/>
      <point x="314" y="463" type="line"/>
      <point x="331" y="411" type="line"/>
      <point x="276" y="400" type="line"/>
      <point x="189" y="483" type="line"/>
    </contour>
    <contour>
      <point x="160" y="479" type="line"/>
      <point x="133" y="360" type="line"/>
      <point x="170" y="320" type="line"/>
      <point x="206" y="362" type="line"/>
      <point x="178" y="479" type="line"/>
    </contour>
  </outline>
</glyph>
<glyph name="plus" format="1">
  <advance width="525"/>
  <unicode hex="002B"/>
  <outline>
    <contour>
      <point x="289" y="310" type="line"/>
      <point x="289" y="513" type="line"/>
      <point x="210" y="483" type="line"/>
      <point x="210" y="310" type="line"/>
      <point x="40" y="310" type="line"/>
      <point x="40" y="238" type="line"/>
      <point x="210" y="238" type="line"/>
      <point x="210" y="25" type="line"/>
      <point x="289" y="55" type="line"/>
      <point x="289" y="238" type="line"/>
      <point x="468" y="238" type="line"/>
      <point x="468" y="310" type="line"/>
    </contour>
  </outline>
</glyph>
<glyph name="hyphen" format="1">
  <advance width="294"/>
  <unicode hex="002D"/>
  <outline>
    <contour>
      <point x="275" y="242" type="line"/>
      <point x="275" y="322" type="line"/>
      <point x="30" y="322" type="line"/>
      <point x="30" y="242" type="line"/>
    </contour>
  </outline>
</glyph>
<glyph name="period" format="1">
  <advance width="181"/>
  <unicode hex="002E"/>
  <outline>
    <contour>
      <point x="5" y="66" type="line"/>
      <point x="91" y="-26" type="line"/>
      <point x="176" y="66" type="line"/>
      <point x="91" y="159" type="line"/>
    </contour>
  </outline>
</glyph>
<glyph name="slash" format="1">
  <advance width="445"/>
  <unicode hex="002F"/>
  <outline>
    <contour>
      <point x="105" y="0" type="line"/>
      <point x="417" y="695" type="line"/>
      <point x="340" y="695" type="line"/>
      <point x="28" y="0" type="line"/>
    </contour>
  </outline>
</glyph>
<glyph name="zero" format="1">
  <advance width="561"/>
  <unicode hex="0030"/>
  <outline>
    <contour>
      <point x="521" y="320" type="curve" smooth="yes"/>
      <point x="521" y="464"/>
      <point x="446" y="602"/>
      <point x="308" y="602" type="curve" smooth="yes"/>
      <point x="129" y="602"/>
      <point x="40" y="423"/>
      <point x="40" y="268" type="curve" smooth="yes"/>
      <point x="40" y="124"/>
      <point x="116" y="-14"/>
      <point x="253" y="-14" type="curve" smooth="yes"/>
      <point x="432" y="-14"/>
      <point x="521" y="165"/>
    </contour>
    <contour>
      <point x="256" y="557" type="curve" smooth="yes"/>
      <point x="339" y="557"/>
      <point x="398" y="398"/>
      <point x="398" y="211" type="curve" smooth="yes"/>
      <point x="398" y="149"/>
      <point x="375" y="31"/>
      <point x="306" y="31" type="curve" smooth="yes"/>
      <point x="223" y="31"/>
      <point x="165" y="190"/>
      <point x="165" y="377" type="curve" smooth="yes"/>
      <point x="165" y="449"/>
      <point x="178" y="557"/>
    </contour>
  </outline>
</glyph>
<glyph name="one" format="1">
  <advance width="382"/>
  <unicode hex="0031"/>
  <outline>
    <contour>
      <point x="36" y="384" type="line"/>
      <point x="133" y="420" type="line"/>
      <point x="133" y="66" type="line"/>
      <point x="44" y="0" type="line"/>
      <point x="347" y="0" type="line"/>
      <point x="253" y="66" type="line"/>
      <point x="253" y="607" type="line"/>
      <point x="35" y="386" type="line"/>
    </contour>
  </outline>
</glyph>
<glyph name="two" format="1">
  <advance width="528"/>
  <unicode hex="0032"/>
  <outline>
    <contour>
      <point x="43" y="0" type="line"/>
      <point x="467" y="0" type="line"/>
      <point x="488" y="240" type="line"/>
      <point x="484" y="240" type="line"/>
      <point x="426" y="119" type="line"/>
      <point x="223" y="116" type="line"/>
      <point x="161" y="111" type="line"/>
      <point x="159" y="116" type="line"/>
      <point x="245" y="216"/>
      <point x="445" y="299"/>
      <point x="445" y="440" type="curve" smooth="yes"/>
      <point x="445" y="546"/>
      <point x="318" y="595"/>
      <point x="184" y="595" type="curve" smooth="yes"/>
      <point x="48" y="595" type="line"/>
      <point x="48" y="422" type="line"/>
      <point x="53" y="422" type="line"/>
      <point x="88" y="512"/>
      <point x="128" y="568"/>
      <point x="199" y="568" type="curve" smooth="yes"/>
      <point x="268" y="568"/>
      <point x="309" y="522"/>
      <point x="309" y="458" type="curve" smooth="yes"/>
      <point x="309" y="277"/>
      <point x="119" y="99"/>
      <point x="35" y="33" type="curve"/>
    </contour>
  </outline>
</glyph>
<glyph name="three" format="1">
  <advance width="502"/>
  <unicode hex="0033"/>
  <outline>
    <contour>
      <point x="43" y="-16" type="line"/>
      <point x="150" y="-16"/>
      <point x="457" y="42"/>
      <point x="457" y="186" type="curve" smooth="yes"/>
      <point x="457" y="282"/>
      <point x="323" y="310"/>
      <point x="216" y="319" type="curve"/>
      <point x="375" y="362"/>
      <point x="448" y="408"/>
      <point x="448" y="475" type="curve" smooth="yes"/>
      <point x="448" y="565"/>
      <point x="335" y="595"/>
      <point x="203" y="595" type="curve" smooth="yes"/>
      <point x="49" y="595" type="line"/>
      <point x="49" y="425" type="line"/>
      <point x="54" y="425" type="line"/>
      <point x="83" y="497"/>
      <point x="116" y="567"/>
      <point x="190" y="567" type="curve" smooth="yes"/>
      <point x="264" y="567"/>
      <point x="312" y="525"/>
      <point x="312" y="461" type="curve" smooth="yes"/>
      <point x="312" y="375"/>
      <point x="195" y="336"/>
      <point x="130" y="313" type="curve" smooth="yes"/>
      <point x="97" y="301" type="line"/>
      <point x="99" y="284" type="line"/>
      <point x="110" y="286"/>
      <point x="120" y="289"/>
      <point x="130" y="291" type="curve"/>
      <point x="223" y="273"/>
      <point x="299" y="240"/>
      <point x="299" y="152" type="curve" smooth="yes"/>
      <point x="299" y="46"/>
      <point x="136" y="9"/>
      <point x="35" y="9" type="curve"/>
    </contour>
  </outline>
</glyph>
<glyph name="four" format="1">
  <advance width="568"/>
  <unicode hex="0034"/>
  <outline>
    <contour>
      <point x="400" y="193" type="line"/>
      <point x="400" y="452" type="line"/>
      <point x="278" y="274" type="line"/>
      <point x="278" y="194" type="line"/>
      <point x="138" y="194" type="line"/>
      <point x="422" y="595" type="line"/>
      <point x="276" y="595" type="line"/>
      <point x="35" y="149" type="line"/>
      <point x="279" y="149" type="line"/>
      <point x="279" y="66" type="line"/>
      <point x="191" y="0" type="line"/>
      <point x="494" y="0" type="line"/>
      <point x="400" y="66" type="line"/>
      <point x="400" y="148" type="line"/>
      <point x="528" y="148" type="line"/>
      <point x="528" y="193" type="line"/>
    </contour>
  </outline>
</glyph>
<glyph name="five" format="1">
  <advance width="481"/>
  <unicode hex="0035"/>
  <outline>
    <contour>
      <point x="99" y="354" type="line"/>
      <point x="119" y="476" type="line"/>
      <point x="399" y="476" type="line"/>
      <point x="425" y="596" type="line"/>
      <point x="436" y="647" type="line"/>
      <point x="377" y="596" type="line"/>
      <point x="93" y="596" type="line"/>
      <point x="92" y="586" type="line"/>
      <point x="50" y="293" type="line"/>
      <point x="85" y="293" type="line"/>
      <point x="90" y="320" type="line"/>
      <point x="94" y="320" type="line"/>
      <point x="135" y="342"/>
      <point x="175" y="357"/>
      <point x="202" y="357" type="curve" smooth="yes"/>
      <point x="304" y="357"/>
      <point x="314" y="249"/>
      <point x="314" y="173" type="curve" smooth="yes"/>
      <point x="314" y="57"/>
      <point x="278" y="29"/>
      <point x="216" y="29" type="curve" smooth="yes"/>
      <point x="112" y="29"/>
      <point x="51" y="173"/>
      <point x="51" y="173" type="curve"/>
      <point x="44" y="173" type="line"/>
      <point x="43" y="106"/>
      <point x="40" y="1"/>
      <point x="40" y="1" type="curve"/>
      <point x="160" y="1" type="line" smooth="yes"/>
      <point x="328" y="1"/>
      <point x="436" y="71"/>
      <point x="436" y="213" type="curve" smooth="yes"/>
      <point x="436" y="327"/>
      <point x="334" y="397"/>
      <point x="238" y="397" type="curve" smooth="yes"/>
      <point x="207" y="397"/>
      <point x="173" y="390"/>
      <point x="138" y="375" type="curve"/>
    </contour>
  </outline>
</glyph>
<glyph name="seven" format="1">
  <advance width="483"/>
  <unicode hex="0037"/>
  <outline>
    <contour>
      <point x="38" y="402" type="line"/>
      <point x="88" y="475" type="line"/>
      <point x="343" y="475" type="line"/>
      <point x="85" y="-24" type="line"/>
      <point x="119" y="-40" type="line"/>
      <point x="463" y="595" type="line"/>
      <point x="35" y="595" type="line"/>
      <point x="35" y="402" type="line"/>
    </contour>
  </outline>
</glyph>
<glyph name="nine" format="1">
  <advance width="503"/>
  <unicode hex="0039"/>
  <outline>
    <contour>
      <point x="66" y="10" type="curve"/>
      <point x="68" y="2"/>
      <point x="72" y="-10"/>
      <point x="72" y="-10" type="curve"/>
      <point x="285" y="74"/>
      <point x="463" y="226"/>
      <point x="463" y="430" type="curve" smooth="yes"/>
      <point x="463" y="540"/>
      <point x="376" y="606"/>
      <point x="264" y="606" type="curve" smooth="yes"/>
      <point x="123" y="606"/>
      <point x="40" y="500"/>
      <point x="40" y="410" type="curve" smooth="yes"/>
      <point x="40" y="295"/>
      <point x="122" y="233"/>
      <point x="217" y="233" type="curve" smooth="yes"/>
      <point x="254" y="233"/>
      <point x="294" y="251"/>
      <point x="326" y="275" type="curve"/>
      <point x="290" y="144"/>
      <point x="195" y="67"/>
    </contour>
    <contour>
      <point x="332" y="299" type="curve"/>
      <point x="310" y="279"/>
      <point x="295" y="274"/>
      <point x="266" y="274" type="curve" smooth="yes"/>
      <point x="218" y="274"/>
      <point x="158" y="328"/>
      <point x="158" y="430" type="curve" smooth="yes"/>
      <point x="158" y="476"/>
      <point x="178" y="576"/>
      <point x="244" y="576" type="curve" smooth="yes"/>
      <point x="309" y="576"/>
      <point x="342" y="512"/>
      <point x="342" y="401" type="curve" smooth="yes"/>
      <point x="342" y="364"/>
      <point x="338" y="330"/>
    </contour>
  </outline>
</glyph>
<glyph name="colon" format="1">
  <advance width="181"/>
  <unicode hex="003A"/>
  <outline>
    <contour>
      <point x="5" y="335" type="line"/>
      <point x="91" y="243" type="line"/>
      <point x="176" y="335" type="line"/>
      <point x="91" y="428" type="line"/>
    </contour>
    <contour>
      <point x="5" y="66" type="line"/>
      <point x="91" y="-26" type="line"/>
      <point x="176" y="66" type="line"/>
      <point x="91" y="159" type="line"/>
    </contour>
  </outline>
</glyph>
<glyph name="semicolon" format="1">
  <advance width="243"/>
  <unicode hex="003B"/>
  <outline>
    <contour>
      <point x="41" y="351" type="line"/>
      <point x="127" y="259" type="line"/>
      <point x="212" y="351" type="line"/>
      <point x="127" y="444" type="line"/>
    </contour>
    <contour>
      <point x="60" y="-123" type="line"/>
      <point x="82" y="-109"/>
      <point x="207" y="-36"/>
      <point x="207" y="62" type="curve" smooth="yes"/>
      <point x="207" y="96"/>
      <point x="159" y="139"/>
      <point x="126" y="159" type="curve"/>
      <point x="43" y="74" type="line"/>
      <point x="82" y="43" type="line"/>
      <point x="95" y="29"/>
      <point x="111" y="17"/>
      <point x="111" y="-9" type="curve" smooth="yes"/>
      <point x="111" y="-47"/>
      <point x="80" y="-85"/>
      <point x="46" y="-113" type="curve"/>
    </contour>
  </outline>
</glyph>
<glyph name="less" format="1">
  <advance width="559"/>
  <unicode hex="003C"/>
  <outline>
    <contour>
      <point x="46" y="292" type="line"/>
      <point x="46" y="212" type="line"/>
      <point x="514" y="40" type="line"/>
      <point x="514" y="112" type="line"/>
      <point x="211" y="275" type="line"/>
      <point x="514" y="392" type="line"/>
      <point x="514" y="464" type="line"/>
    </contour>
  </outline>
</glyph>
<glyph name="equal" format="1">
  <advance width="487"/>
  <unicode hex="003D"/>
  <outline>
    <contour>
      <point x="426" y="405" type="line"/>
      <point x="45" y="405" type="line"/>
      <point x="45" y="333" type="line"/>
      <point x="426" y="333" type="line"/>
    </contour>
    <contour>
      <point x="426" y="201" type="line"/>
      <point x="45" y="201" type="line"/>
      <point x="45" y="129" type="line"/>
      <point x="426" y="129" type="line"/>
    </contour>
  </outline>
</glyph>
<glyph name="greater" format="1">
  <advance width="559"/>
  <unicode hex="003E"/>
  <outline>
    <contour>
      <point x="514" y="212" type="line"/>
      <point x="514" y="292" type="line"/>
      <point x="46" y="464" type="line"/>
      <point x="46" y="392" type="line"/>
      <point x="349" y="229" type="line"/>
      <point x="46" y="112" type="line"/>
      <point x="46" y="40" type="line"/>
    </contour>
  </outline>
</glyph>
<glyph name="question" format="1">
  <advance width="504"/>
  <unicode hex="003F"/>
  <outline>
    <contour>
      <point x="66" y="695" type="line"/>
      <point x="90" y="524" type="line"/>
      <point x="98" y="525" type="line"/>
      <point x="120" y="599"/>
      <point x="154" y="658"/>
      <point x="230" y="658" type="curve" smooth="yes"/>
      <point x="270" y="658"/>
      <point x="308" y="628"/>
      <point x="308" y="518" type="curve" smooth="yes"/>
      <point x="308" y="449"/>
      <point x="250" y="374"/>
      <point x="158" y="342" type="curve"/>
      <point x="176" y="220" type="line"/>
      <point x="200" y="220" type="line"/>
      <point x="212" y="328" type="line"/>
      <point x="278" y="362"/>
      <point x="460" y="410"/>
      <point x="460" y="540" type="curve" smooth="yes"/>
      <point x="460" y="677"/>
      <point x="296" y="695"/>
      <point x="152" y="695" type="curve" smooth="yes"/>
    </contour>
    <contour>
      <point x="104" y="66" type="line"/>
      <point x="190" y="-26" type="line"/>
      <point x="275" y="66" type="line"/>
      <point x="190" y="159" type="line"/>
    </contour>
  </outline>
</glyph>
<glyph name="at" format="1">
  <advance width="821"/>
  <unicode hex="0040"/>
  <outline>
    <contour>
      <point x="703" y="226" type="line"/>
      <point x="726" y="194"/>
      <point x="737" y="158"/>
      <point x="737" y="120" type="curve" smooth="yes"/>
      <point x="737" y="-19"/>
      <point x="590" y="-142"/>
      <point x="403" y="-142" type="curve" smooth="yes"/>
      <point x="222" y="-142"/>
      <point x="84" y="-32"/>
      <point x="84" y="166" type="curve" smooth="yes"/>
      <point x="84" y="312"/>
      <point x="161" y="458"/>
      <point x="354" y="458" type="curve" smooth="yes"/>
      <point x="482" y="458"/>
      <point x="484" y="384"/>
      <point x="484" y="316" type="curve"/>
      <point x="298" y="251"/>
      <point x="184" y="210"/>
      <point x="184" y="97" type="curve" smooth="yes"/>
      <point x="184" y="35"/>
      <point x="234" y="-10"/>
      <point x="298" y="-11" type="curve" smooth="yes"/>
      <point x="373" y="-12"/>
      <point x="439" y="44"/>
      <point x="484" y="79" type="curve"/>
      <point x="484" y="0" type="line"/>
      <point x="652" y="0" type="line"/>
      <point x="623" y="80" type="line"/>
      <point x="623" y="416" type="line"/>
      <point x="651" y="497" type="line"/>
      <point x="379" y="497" type="line" smooth="yes"/>
      <point x="139" y="497"/>
      <point x="45" y="334"/>
      <point x="45" y="163" type="curve" smooth="yes"/>
      <point x="45" y="-49"/>
      <point x="204" y="-175"/>
      <point x="403" y="-175" type="curve" smooth="yes"/>
      <point x="588" y="-175"/>
      <point x="776" y="-49"/>
      <point x="776" y="143" type="curve" smooth="yes"/>
      <point x="776" y="180"/>
      <point x="773" y="215"/>
      <point x="762" y="267" type="curve"/>
    </contour>
    <contour>
      <point x="484" y="106" type="line"/>
      <point x="455" y="80"/>
      <point x="433" y="65"/>
      <point x="398" y="65" type="curve" smooth="yes"/>
      <point x="350" y="65"/>
      <point x="310" y="86"/>
      <point x="310" y="132" type="curve" smooth="yes"/>
      <point x="310" y="180"/>
      <point x="358" y="235"/>
      <point x="484" y="290" type="curve"/>
    </contour>
  </outline>
</glyph>
<glyph name="A" format="1">
  <advance width="727"/>
  <unicode hex="0041"/>
  <outline>
    <contour>
      <point x="33" y="-3"/>
      <point x="103" y="2"/>
      <point x="196" y="-3"/>
      <point x="209" y="-3"/>
      <point x="213" y="13"/>
      <point x="170" y="40"/>
      <point x="131" y="78"/>
      <point x="164" y="163"/>
      <point x="181" y="202"/>
      <point x="193" y="212"/>
      <point x="215" y="216"/>
      <point x="313" y="216" type="qcurve" smooth="yes"/>
      <point x="419" y="216"/>
      <point x="437" y="212"/>
      <point x="450" y="201"/>
      <point x="466" y="163"/>
      <point x="506" y="69"/>
      <point x="472" y="39"/>
      <point x="427" y="13"/>
      <point x="431" y="-2"/>
      <point x="455" y="-2"/>
      <point x="565" y="3"/>
      <point x="677" y="-2"/>
      <point x="706" y="-2"/>
      <point x="709" y="18"/>
      <point x="667" y="44"/>
      <point x="648" y="66"/>
      <point x="510" y="390"/>
      <point x="380" y="685"/>
      <point x="365" y="704"/>
      <point x="356" y="704" type="qcurve" smooth="yes"/>
      <point x="345" y="704"/>
      <point x="328" y="685"/>
      <point x="179" y="333"/>
      <point x="76" y="79"/>
      <point x="53" y="48"/>
      <point x="14" y="13"/>
      <point x="15" y="-3"/>
    </contour>
    <contour>
      <point x="310" y="257" type="qcurve" smooth="yes"/>
      <point x="240" y="257"/>
      <point x="216" y="260"/>
      <point x="210" y="278"/>
      <point x="255" y="390"/>
      <point x="299" y="502"/>
      <point x="306" y="518"/>
      <point x="313" y="518" type="qcurve" smooth="yes"/>
      <point x="320" y="518"/>
      <point x="328" y="502"/>
      <point x="376" y="380"/>
      <point x="421" y="275"/>
      <point x="413" y="259"/>
      <point x="388" y="257"/>
    </contour>
  </outline>
</glyph>
<glyph name="B" format="1">
  <advance width="630"/>
  <unicode hex="0042"/>
  <outline>
    <contour>
      <point x="248" y="0" type="qcurve" smooth="yes"/>
      <point x="424" y="0"/>
      <point x="593" y="83"/>
      <point x="596" y="256"/>
      <point x="493" y="346"/>
      <point x="409" y="367"/>
      <point x="409" y="384"/>
      <point x="483" y="410"/>
      <point x="550" y="475"/>
      <point x="551" y="600"/>
      <point x="445" y="684"/>
      <point x="269" y="685" type="qcurve" smooth="yes"/>
      <point x="69" y="686"/>
      <point x="51" y="665"/>
      <point x="80" y="621"/>
      <point x="103" y="579"/>
      <point x="103" y="376"/>
      <point x="98" y="105"/>
      <point x="66" y="48"/>
      <point x="49" y="20"/>
      <point x="59" y="0"/>
      <point x="152" y="0"/>
    </contour>
    <contour>
      <point x="257" y="380" type="qcurve" smooth="yes"/>
      <point x="241" y="380"/>
      <point x="230" y="403"/>
      <point x="226" y="531"/>
      <point x="229" y="640"/>
      <point x="241" y="653"/>
      <point x="264" y="653" type="qcurve" smooth="yes"/>
      <point x="351" y="653"/>
      <point x="421" y="575"/>
      <point x="421" y="456"/>
      <point x="322" y="380"/>
    </contour>
    <contour>
      <point x="261" y="39" type="qcurve" smooth="yes"/>
      <point x="244" y="39"/>
      <point x="229" y="54"/>
      <point x="228" y="186"/>
      <point x="230" y="330"/>
      <point x="236" y="351"/>
      <point x="258" y="351" type="qcurve" smooth="yes"/>
      <point x="351" y="351"/>
      <point x="449" y="262"/>
      <point x="449" y="129"/>
      <point x="357" y="39"/>
    </contour>
  </outline>
</glyph>
<glyph name="C" format="1">
  <advance width="651"/>
  <unicode hex="0043"/>
  <outline>
    <contour>
      <point x="327" y="-12" type="qcurve" smooth="yes"/>
      <point x="448" y="-12"/>
      <point x="572" y="102"/>
      <point x="613" y="184"/>
      <point x="617" y="211"/>
      <point x="595" y="213"/>
      <point x="570" y="180"/>
      <point x="477" y="105"/>
      <point x="287" y="105"/>
      <point x="180" y="273"/>
      <point x="180" y="512"/>
      <point x="267" y="644"/>
      <point x="428" y="644"/>
      <point x="517" y="557"/>
      <point x="541" y="495"/>
      <point x="556" y="485"/>
      <point x="567" y="492"/>
      <point x="567" y="586"/>
      <point x="565" y="663"/>
      <point x="548" y="686"/>
      <point x="467" y="685"/>
      <point x="418" y="685" type="qcurve" smooth="yes"/>
      <point x="239" y="685"/>
      <point x="35" y="465"/>
      <point x="35" y="181"/>
      <point x="188" y="-12"/>
    </contour>
  </outline>
</glyph>
<glyph name="D" format="1">
  <advance width="735"/>
  <unicode hex="0044"/>
  <outline>
    <contour>
      <point x="289" y="0" type="qcurve" smooth="yes"/>
      <point x="502" y="0"/>
      <point x="700" y="228"/>
      <point x="700" y="501"/>
      <point x="509" y="685"/>
      <point x="306" y="685" type="qcurve" smooth="yes"/>
      <point x="169" y="685"/>
      <point x="71" y="691"/>
      <point x="49" y="687"/>
      <point x="49" y="667"/>
      <point x="85" y="632"/>
      <point x="113" y="579"/>
      <point x="120" y="357"/>
      <point x="112" y="105"/>
      <point x="82" y="45"/>
      <point x="50" y="14"/>
      <point x="55" y="-4"/>
      <point x="81" y="-2"/>
      <point x="227" y="0"/>
    </contour>
    <contour>
      <point x="307" y="38" type="qcurve" smooth="yes"/>
      <point x="260" y="38"/>
      <point x="245" y="43"/>
      <point x="242" y="60"/>
      <point x="241" y="357"/>
      <point x="241" y="626"/>
      <point x="247" y="649"/>
      <point x="268" y="653"/>
      <point x="314" y="653" type="qcurve" smooth="yes"/>
      <point x="432" y="653"/>
      <point x="562" y="494"/>
      <point x="562" y="198"/>
      <point x="425" y="38"/>
    </contour>
  </outline>
</glyph>
<glyph name="E" format="1">
  <advance width="592"/>
  <unicode hex="0045"/>
  <outline>
    <contour>
      <point x="274" y="0" type="qcurve" smooth="yes"/>
      <point x="401" y="0"/>
      <point x="510" y="-9"/>
      <point x="541" y="9"/>
      <point x="548" y="111"/>
      <point x="557" y="198"/>
      <point x="546" y="212"/>
      <point x="530" y="207"/>
      <point x="475" y="121"/>
      <point x="410" y="36"/>
      <point x="323" y="34"/>
      <point x="250" y="36"/>
      <point x="235" y="40"/>
      <point x="230" y="58"/>
      <point x="225" y="187"/>
      <point x="229" y="309"/>
      <point x="234" y="323"/>
      <point x="247" y="327"/>
      <point x="369" y="331"/>
      <point x="481" y="327"/>
      <point x="503" y="324"/>
      <point x="515" y="348"/>
      <point x="503" y="374"/>
      <point x="481" y="372"/>
      <point x="369" y="370"/>
      <point x="247" y="372"/>
      <point x="233" y="382"/>
      <point x="229" y="397"/>
      <point x="227" y="507"/>
      <point x="231" y="628"/>
      <point x="238" y="647"/>
      <point x="258" y="651"/>
      <point x="316" y="654"/>
      <point x="399" y="651"/>
      <point x="452" y="576"/>
      <point x="497" y="491"/>
      <point x="517" y="487"/>
      <point x="521" y="506"/>
      <point x="518" y="583"/>
      <point x="521" y="662"/>
      <point x="517" y="686"/>
      <point x="492" y="690"/>
      <point x="363" y="684"/>
      <point x="301" y="684" type="qcurve" smooth="yes"/>
      <point x="213" y="684"/>
      <point x="76" y="691"/>
      <point x="51" y="687"/>
      <point x="53" y="665"/>
      <point x="79" y="628"/>
      <point x="98" y="580"/>
      <point x="104" y="356"/>
      <point x="100" y="106"/>
      <point x="79" y="58"/>
      <point x="47" y="19"/>
      <point x="46" y="-8"/>
      <point x="76" y="-8"/>
      <point x="196" y="0"/>
    </contour>
  </outline>
</glyph>
<glyph name="F" format="1">
  <advance width="562"/>
  <unicode hex="0046"/>
  <outline>
    <contour>
      <point x="184" y="0" type="qcurve" smooth="yes"/>
      <point x="249" y="0"/>
      <point x="311" y="-3"/>
      <point x="326" y="-3"/>
      <point x="326" y="18"/>
      <point x="277" y="55"/>
      <point x="230" y="107"/>
      <point x="225" y="187"/>
      <point x="229" y="305"/>
      <point x="233" y="320"/>
      <point x="245" y="324"/>
      <point x="369" y="326"/>
      <point x="471" y="323"/>
      <point x="489" y="322"/>
      <point x="495" y="348"/>
      <point x="489" y="369"/>
      <point x="471" y="368"/>
      <point x="369" y="367"/>
      <point x="245" y="368"/>
      <point x="233" y="377"/>
      <point x="229" y="392"/>
      <point x="227" y="507"/>
      <point x="231" y="625"/>
      <point x="238" y="644"/>
      <point x="258" y="648"/>
      <point x="316" y="651"/>
      <point x="399" y="648"/>
      <point x="453" y="576"/>
      <point x="499" y="484"/>
      <point x="519" y="483"/>
      <point x="524" y="499"/>
      <point x="519" y="583"/>
      <point x="522" y="655"/>
      <point x="517" y="684"/>
      <point x="490" y="688"/>
      <point x="340" y="684"/>
      <point x="284" y="684" type="qcurve" smooth="yes"/>
      <point x="204" y="684"/>
      <point x="67" y="690"/>
      <point x="47" y="684"/>
      <point x="51" y="662"/>
      <point x="79" y="627"/>
      <point x="98" y="582"/>
      <point x="104" y="356"/>
      <point x="100" y="106"/>
      <point x="79" y="64"/>
      <point x="44" y="18"/>
      <point x="43" y="-4"/>
      <point x="76" y="-4"/>
      <point x="131" y="0"/>
    </contour>
  </outline>
</glyph>
<glyph name="G" format="1">
  <advance width="687"/>
  <unicode hex="0047"/>
  <outline>
    <contour>
      <point x="327" y="-13" type="qcurve" smooth="yes"/>
      <point x="396" y="-13"/>
      <point x="493" y="46"/>
      <point x="508" y="46"/>
      <point x="549" y="24"/>
      <point x="592" y="-8"/>
      <point x="603" y="-10"/>
      <point x="613" y="2"/>
      <point x="607" y="156"/>
      <point x="608" y="258"/>
      <point x="616" y="267"/>
      <point x="664" y="295"/>
      <point x="666" y="311"/>
      <point x="652" y="315"/>
      <point x="541" y="308"/>
      <point x="390" y="317"/>
      <point x="378" y="311"/>
      <point x="378" y="294"/>
      <point x="434" y="273"/>
      <point x="471" y="254"/>
      <point x="482" y="242"/>
      <point x="484" y="194"/>
      <point x="484" y="99"/>
      <point x="482" y="81"/>
      <point x="467" y="71"/>
      <point x="410" y="60"/>
      <point x="352" y="60"/>
      <point x="245" y="118"/>
      <point x="185" y="272"/>
      <point x="184" y="523"/>
      <point x="264" y="644"/>
      <point x="407" y="644"/>
      <point x="498" y="572"/>
      <point x="544" y="488"/>
      <point x="558" y="478"/>
      <point x="568" y="486"/>
      <point x="562" y="588"/>
      <point x="565" y="668"/>
      <point x="565" y="684"/>
      <point x="552" y="686"/>
      <point x="498" y="680"/>
      <point x="422" y="684"/>
      <point x="410" y="684" type="qcurve" smooth="yes"/>
      <point x="294" y="684"/>
      <point x="124" y="578"/>
      <point x="35" y="410"/>
      <point x="35" y="220"/>
      <point x="106" y="70"/>
      <point x="238" y="-13"/>
    </contour>
  </outline>
</glyph>
<glyph name="H" format="1">
  <advance width="780"/>
  <unicode hex="0048"/>
  <outline>
    <contour>
      <point x="381" y="338" type="qcurve" smooth="yes"/>
      <point x="406" y="338"/>
      <point x="497" y="333"/>
      <point x="535" y="333" type="qcurve"/>
      <point x="535" y="106" type="line"/>
      <point x="527" y="96"/>
      <point x="521" y="76" type="qcurve" smooth="yes"/>
      <point x="511" y="54"/>
      <point x="508" y="49" type="qcurve" smooth="yes"/>
      <point x="505" y="45"/>
      <point x="485" y="25" type="qcurve" smooth="yes"/>
      <point x="467" y="9"/>
      <point x="461" y="0" type="qcurve"/>
      <point x="484" y="0"/>
      <point x="530" y="4" type="qcurve" smooth="yes"/>
      <point x="547" y="5"/>
      <point x="582" y="7"/>
      <point x="617" y="7"/>
      <point x="652" y="5"/>
      <point x="715" y="0"/>
      <point x="735" y="6"/>
      <point x="721" y="20"/>
      <point x="699" y="41"/>
      <point x="685" y="59"/>
      <point x="673" y="96"/>
      <point x="665" y="146"/>
      <point x="653" y="308"/>
      <point x="653" y="386"/>
      <point x="659" y="464" type="qcurve" smooth="yes"/>
      <point x="665" y="540"/>
      <point x="665" y="579" type="qcurve"/>
      <point x="672" y="588"/>
      <point x="678" y="606" type="qcurve" smooth="yes"/>
      <point x="684" y="621"/>
      <point x="691" y="632" type="qcurve" smooth="yes"/>
      <point x="699" y="643"/>
      <point x="717" y="660" type="qcurve" smooth="yes"/>
      <point x="730" y="671"/>
      <point x="740" y="685" type="qcurve"/>
      <point x="717" y="685"/>
      <point x="671" y="681" type="qcurve" smooth="yes"/>
      <point x="625" y="677"/>
      <point x="602" y="677" type="qcurve" smooth="yes"/>
      <point x="578" y="677"/>
      <point x="532" y="681" type="qcurve" smooth="yes"/>
      <point x="486" y="685"/>
      <point x="462" y="685" type="qcurve"/>
      <point x="470" y="674"/>
      <point x="485" y="661" type="qcurve" smooth="yes"/>
      <point x="505" y="641"/>
      <point x="508" y="636" type="qcurve" smooth="yes"/>
      <point x="512" y="630"/>
      <point x="519" y="615"/>
      <point x="522" y="608" type="qcurve" smooth="yes"/>
      <point x="527" y="594"/>
      <point x="535" y="580" type="qcurve"/>
      <point x="535" y="378" type="line"/>
      <point x="495" y="378"/>
      <point x="435" y="374"/>
      <point x="394" y="372"/>
      <point x="374" y="372" type="qcurve" smooth="yes"/>
      <point x="357" y="372"/>
      <point x="321" y="374"/>
      <point x="269" y="378"/>
      <point x="234" y="378" type="qcurve"/>
      <point x="234" y="579" type="line"/>
      <point x="240" y="587"/>
      <point x="246" y="608" type="qcurve" smooth="yes"/>
      <point x="250" y="625"/>
      <point x="257" y="636" type="qcurve" smooth="yes"/>
      <point x="261" y="641"/>
      <point x="283" y="661" type="qcurve" smooth="yes"/>
      <point x="303" y="677"/>
      <point x="309" y="685" type="qcurve"/>
      <point x="276" y="685"/>
      <point x="238" y="680" type="qcurve" smooth="yes"/>
      <point x="220" y="678"/>
      <point x="184" y="675"/>
      <point x="166" y="675" type="qcurve" smooth="yes"/>
      <point x="149" y="675"/>
      <point x="116" y="678"/>
      <point x="99" y="680" type="qcurve" smooth="yes"/>
      <point x="61" y="685"/>
      <point x="31" y="685" type="qcurve"/>
      <point x="37" y="677"/>
      <point x="56" y="660" type="qcurve" smooth="yes"/>
      <point x="75" y="643"/>
      <point x="81" y="634" type="qcurve" smooth="yes"/>
      <point x="85" y="628"/>
      <point x="91" y="613"/>
      <point x="93" y="606" type="qcurve" smooth="yes"/>
      <point x="99" y="587"/>
      <point x="104" y="580" type="qcurve"/>
      <point x="104" y="542"/>
      <point x="108" y="468" type="qcurve" smooth="yes"/>
      <point x="112" y="394"/>
      <point x="112" y="356" type="qcurve" smooth="yes"/>
      <point x="112" y="315"/>
      <point x="108" y="231" type="qcurve" smooth="yes"/>
      <point x="104" y="147"/>
      <point x="104" y="106" type="qcurve"/>
      <point x="98" y="98"/>
      <point x="92" y="80" type="qcurve" smooth="yes"/>
      <point x="87" y="64"/>
      <point x="80" y="54" type="qcurve" smooth="yes"/>
      <point x="75" y="47"/>
      <point x="54" y="26" type="qcurve" smooth="yes"/>
      <point x="34" y="6"/>
      <point x="30" y="0" type="qcurve"/>
      <point x="48" y="0"/>
      <point x="83" y="3"/>
      <point x="100" y="5" type="qcurve" smooth="yes"/>
      <point x="138" y="10"/>
      <point x="170" y="10" type="qcurve" smooth="yes"/>
      <point x="201" y="10"/>
      <point x="239" y="5" type="qcurve" smooth="yes"/>
      <point x="256" y="3"/>
      <point x="291" y="0"/>
      <point x="308" y="0" type="qcurve"/>
      <point x="302" y="9"/>
      <point x="283" y="26" type="qcurve" smooth="yes"/>
      <point x="261" y="48"/>
      <point x="258" y="52" type="qcurve" smooth="yes"/>
      <point x="253" y="60"/>
      <point x="247" y="78" type="qcurve" smooth="yes"/>
      <point x="241" y="95"/>
      <point x="234" y="106" type="qcurve"/>
      <point x="234" y="333" type="line"/>
      <point x="270" y="333"/>
      <point x="356" y="338"/>
    </contour>
  </outline>
</glyph>
<glyph name="I" format="1">
  <advance width="358"/>
  <unicode hex="0049"/>
  <outline>
    <contour>
      <point x="176" y="6" type="qcurve" smooth="yes"/>
      <point x="208" y="6"/>
      <point x="278" y="-4"/>
      <point x="310" y="-1"/>
      <point x="307" y="23"/>
      <point x="274" y="54"/>
      <point x="242" y="98"/>
      <point x="238" y="112"/>
      <point x="234" y="393"/>
      <point x="240" y="568"/>
      <point x="250" y="590"/>
      <point x="278" y="630"/>
      <point x="311" y="665"/>
      <point x="321" y="690"/>
      <point x="295" y="695"/>
      <point x="236" y="686"/>
      <point x="180" y="686" type="qcurve" smooth="yes"/>
      <point x="135" y="686"/>
      <point x="67" y="697"/>
      <point x="41" y="685"/>
      <point x="51" y="655"/>
      <point x="86" y="628"/>
      <point x="108" y="592"/>
      <point x="116" y="573"/>
      <point x="122" y="385"/>
      <point x="116" y="114"/>
      <point x="114" y="98"/>
      <point x="91" y="61"/>
      <point x="52" y="28"/>
      <point x="35" y="5"/>
      <point x="56" y="-7"/>
      <point x="150" y="6"/>
    </contour>
  </outline>
</glyph>
<glyph name="J" format="1">
  <advance width="338"/>
  <unicode hex="004A"/>
  <outline>
    <contour>
      <point x="92" y="-190" type="qcurve" smooth="yes"/>
      <point x="97" y="-190"/>
      <point x="153" y="-155"/>
      <point x="234" y="-49"/>
      <point x="234" y="65"/>
      <point x="228" y="364"/>
      <point x="234" y="580"/>
      <point x="266" y="630"/>
      <point x="298" y="663"/>
      <point x="304" y="680"/>
      <point x="293" y="689"/>
      <point x="189" y="682"/>
      <point x="166" y="682" type="qcurve" smooth="yes"/>
      <point x="142" y="682"/>
      <point x="54" y="688"/>
      <point x="38" y="684"/>
      <point x="40" y="666"/>
      <point x="72" y="628"/>
      <point x="104" y="580"/>
      <point x="109" y="339"/>
      <point x="104" y="-97"/>
      <point x="88" y="-160"/>
      <point x="80" y="-175"/>
      <point x="82" y="-190"/>
    </contour>
  </outline>
</glyph>
<glyph name="K" format="1">
  <advance width="769"/>
  <unicode hex="004B"/>
  <outline>
    <contour>
      <point x="170" y="0" type="qcurve" smooth="yes"/>
      <point x="197" y="0"/>
      <point x="298" y="-6"/>
      <point x="312" y="-6"/>
      <point x="314" y="10"/>
      <point x="276" y="50"/>
      <point x="243" y="106"/>
      <point x="242" y="210"/>
      <point x="245" y="276"/>
      <point x="249" y="286"/>
      <point x="278" y="316"/>
      <point x="287" y="320"/>
      <point x="297" y="308"/>
      <point x="379" y="204"/>
      <point x="470" y="73"/>
      <point x="475" y="62"/>
      <point x="468" y="53"/>
      <point x="456" y="37"/>
      <point x="433" y="11"/>
      <point x="433" y="-2"/>
      <point x="444" y="-4"/>
      <point x="592" y="4"/>
      <point x="742" y="-4"/>
      <point x="746" y="4"/>
      <point x="736" y="18"/>
      <point x="698" y="36"/>
      <point x="638" y="76"/>
      <point x="498" y="260"/>
      <point x="388" y="410"/>
      <point x="382" y="420"/>
      <point x="388" y="430"/>
      <point x="476" y="519"/>
      <point x="563" y="600"/>
      <point x="622" y="640"/>
      <point x="686" y="672"/>
      <point x="695" y="683"/>
      <point x="687" y="688"/>
      <point x="591" y="682"/>
      <point x="481" y="688"/>
      <point x="472" y="681"/>
      <point x="477" y="671"/>
      <point x="488" y="649"/>
      <point x="499" y="625"/>
      <point x="502" y="615"/>
      <point x="496" y="606"/>
      <point x="392" y="494"/>
      <point x="257" y="357"/>
      <point x="246" y="350"/>
      <point x="242" y="361"/>
      <point x="241" y="478"/>
      <point x="241" y="575"/>
      <point x="247" y="586"/>
      <point x="273" y="629"/>
      <point x="313" y="674"/>
      <point x="311" y="689"/>
      <point x="296" y="690"/>
      <point x="212" y="682"/>
      <point x="184" y="682" type="qcurve" smooth="yes"/>
      <point x="155" y="682"/>
      <point x="55" y="691"/>
      <point x="40" y="686"/>
      <point x="42" y="675"/>
      <point x="78" y="635"/>
      <point x="114" y="580"/>
      <point x="114" y="536"/>
      <point x="117" y="337"/>
      <point x="114" y="106"/>
      <point x="85" y="60"/>
      <point x="54" y="21"/>
      <point x="43" y="1"/>
      <point x="58" y="-5"/>
      <point x="143" y="0"/>
    </contour>
  </outline>
</glyph>
<glyph name="L" format="1">
  <advance width="610"/>
  <unicode hex="004C"/>
  <outline>
    <contour>
      <point x="572" y="18"/>
      <point x="579" y="106"/>
      <point x="580" y="208"/>
      <point x="571" y="215"/>
      <point x="562" y="208"/>
      <point x="501" y="119"/>
      <point x="443" y="48"/>
      <point x="432" y="42"/>
      <point x="338" y="42"/>
      <point x="238" y="43"/>
      <point x="230" y="47"/>
      <point x="228" y="65"/>
      <point x="228" y="374"/>
      <point x="230" y="569"/>
      <point x="232" y="584"/>
      <point x="266" y="636"/>
      <point x="296" y="671"/>
      <point x="304" y="682"/>
      <point x="294" y="690"/>
      <point x="196" y="682"/>
      <point x="172" y="682" type="qcurve" smooth="yes"/>
      <point x="148" y="682"/>
      <point x="60" y="690"/>
      <point x="46" y="686"/>
      <point x="48" y="670"/>
      <point x="70" y="639"/>
      <point x="100" y="581"/>
      <point x="100" y="566"/>
      <point x="100" y="340"/>
      <point x="102" y="121"/>
      <point x="100" y="106"/>
      <point x="77" y="57"/>
      <point x="44" y="14"/>
      <point x="42" y="-2"/>
      <point x="60" y="-8"/>
      <point x="244" y="0"/>
      <point x="286" y="0" type="qcurve" smooth="yes"/>
      <point x="334" y="0"/>
      <point x="546" y="-2"/>
      <point x="564" y="0"/>
    </contour>
  </outline>
</glyph>
<glyph name="M" format="1">
  <advance width="916"/>
  <unicode hex="004D"/>
  <outline>
    <contour>
      <point x="742" y="2" type="qcurve" smooth="yes"/>
      <point x="771" y="2"/>
      <point x="860" y="-3"/>
      <point x="878" y="1"/>
      <point x="870" y="23"/>
      <point x="837" y="55"/>
      <point x="808" y="107"/>
      <point x="802" y="325"/>
      <point x="808" y="590"/>
      <point x="810" y="609"/>
      <point x="838" y="646"/>
      <point x="870" y="669"/>
      <point x="869" y="687"/>
      <point x="855" y="688"/>
      <point x="801" y="683"/>
      <point x="768" y="684" type="qcurve" smooth="yes"/>
      <point x="746" y="685"/>
      <point x="681" y="689"/>
      <point x="666" y="683"/>
      <point x="658" y="666"/>
      <point x="578" y="462"/>
      <point x="468" y="207"/>
      <point x="456" y="194"/>
      <point x="444" y="209"/>
      <point x="330" y="442"/>
      <point x="228" y="667"/>
      <point x="216" y="686"/>
      <point x="197" y="686"/>
      <point x="113" y="682"/>
      <point x="36" y="688"/>
      <point x="23" y="684"/>
      <point x="30" y="668"/>
      <point x="67" y="635"/>
      <point x="101" y="587"/>
      <point x="106" y="571"/>
      <point x="109" y="372"/>
      <point x="106" y="112"/>
      <point x="106" y="90"/>
      <point x="80" y="52"/>
      <point x="41" y="17"/>
      <point x="32" y="3"/>
      <point x="41" y="-4"/>
      <point x="128" y="2"/>
      <point x="215" y="-4"/>
      <point x="230" y="-4"/>
      <point x="228" y="9"/>
      <point x="188" y="48"/>
      <point x="154" y="94"/>
      <point x="152" y="114"/>
      <point x="150" y="360"/>
      <point x="152" y="481"/>
      <point x="157" y="491"/>
      <point x="167" y="482"/>
      <point x="269" y="284"/>
      <point x="402" y="1"/>
      <point x="416" y="-15"/>
      <point x="429" y="3"/>
      <point x="547" y="296"/>
      <point x="667" y="565"/>
      <point x="675" y="575"/>
      <point x="681" y="564"/>
      <point x="680" y="332"/>
      <point x="675" y="105"/>
      <point x="646" y="58"/>
      <point x="603" y="17"/>
      <point x="598" y="-1"/>
      <point x="616" y="-4"/>
      <point x="704" y="2"/>
    </contour>
  </outline>
</glyph>
<glyph name="N" format="1">
  <advance width="756"/>
  <unicode hex="004E"/>
  <outline>
    <contour>
      <point x="651" y="53"/>
      <point x="646" y="68"/>
      <point x="646" y="360"/>
      <point x="648" y="586"/>
      <point x="652" y="600"/>
      <point x="684" y="642"/>
      <point x="720" y="678"/>
      <point x="725" y="686"/>
      <point x="712" y="690"/>
      <point x="638" y="684"/>
      <point x="620" y="684" type="qcurve" smooth="yes"/>
      <point x="604" y="684"/>
      <point x="528" y="693"/>
      <point x="517" y="687"/>
      <point x="520" y="679"/>
      <point x="566" y="638"/>
      <point x="594" y="604"/>
      <point x="600" y="592"/>
      <point x="602" y="354"/>
      <point x="604" y="132"/>
      <point x="596" y="120"/>
      <point x="582" y="128"/>
      <point x="368" y="436"/>
      <point x="198" y="672"/>
      <point x="190" y="686"/>
      <point x="176" y="686"/>
      <point x="112" y="682"/>
      <point x="40" y="690"/>
      <point x="30" y="689"/>
      <point x="30" y="676"/>
      <point x="78" y="622"/>
      <point x="122" y="556"/>
      <point x="122" y="546"/>
      <point x="125" y="270"/>
      <point x="123" y="99"/>
      <point x="121" y="89"/>
      <point x="97" y="56"/>
      <point x="55" y="10"/>
      <point x="51" y="0"/>
      <point x="60" y="-4"/>
      <point x="125" y="0"/>
      <point x="148" y="0" type="qcurve" smooth="yes"/>
      <point x="168" y="0"/>
      <point x="242" y="-5"/>
      <point x="250" y="-2"/>
      <point x="250" y="7"/>
      <point x="209" y="41"/>
      <point x="174" y="82"/>
      <point x="168" y="93"/>
      <point x="165" y="260"/>
      <point x="166" y="476"/>
      <point x="170" y="481"/>
      <point x="177" y="478"/>
      <point x="344" y="266"/>
      <point x="526" y="3"/>
      <point x="540" y="-5"/>
      <point x="616" y="2"/>
      <point x="676" y="-5"/>
      <point x="688" y="-3"/>
      <point x="686" y="7"/>
      <point x="668" y="26"/>
    </contour>
  </outline>
</glyph>
<glyph name="O" format="1">
  <advance width="738"/>
  <unicode hex="004F"/>
  <outline>
    <contour>
      <point x="331" y="-12" type="qcurve" smooth="yes"/>
      <point x="497" y="-12"/>
      <point x="703" y="200"/>
      <point x="703" y="501"/>
      <point x="543" y="698"/>
      <point x="407" y="698" type="qcurve" smooth="yes"/>
      <point x="237" y="698"/>
      <point x="35" y="474"/>
      <point x="35" y="191"/>
      <point x="195" y="-12"/>
    </contour>
    <contour>
      <point x="402" y="30" type="qcurve" smooth="yes"/>
      <point x="313" y="30"/>
      <point x="179" y="248"/>
      <point x="179" y="517"/>
      <point x="247" y="655"/>
      <point x="336" y="655" type="qcurve" smooth="yes"/>
      <point x="438" y="655"/>
      <point x="563" y="416"/>
      <point x="563" y="153"/>
      <point x="471" y="30"/>
    </contour>
  </outline>
</glyph>
<glyph name="P" format="1">
  <advance width="588"/>
  <unicode hex="0050"/>
  <outline>
    <contour>
      <point x="194" y="0" type="qcurve" smooth="yes"/>
      <point x="251" y="0"/>
      <point x="316" y="-5"/>
      <point x="328" y="-5"/>
      <point x="332" y="6"/>
      <point x="282" y="51"/>
      <point x="253" y="87"/>
      <point x="248" y="101"/>
      <point x="240" y="206"/>
      <point x="242" y="270"/>
      <point x="244" y="282"/>
      <point x="254" y="290"/>
      <point x="412" y="300"/>
      <point x="556" y="408"/>
      <point x="558" y="606"/>
      <point x="386" y="685"/>
      <point x="280" y="685" type="qcurve" smooth="yes"/>
      <point x="176" y="685"/>
      <point x="72" y="688"/>
      <point x="53" y="682"/>
      <point x="51" y="664"/>
      <point x="84" y="632"/>
      <point x="110" y="592"/>
      <point x="118" y="574"/>
      <point x="122" y="382"/>
      <point x="120" y="110"/>
      <point x="112" y="95"/>
      <point x="92" y="60"/>
      <point x="46" y="12"/>
      <point x="42" y="0"/>
      <point x="58" y="-6"/>
      <point x="150" y="0"/>
    </contour>
    <contour>
      <point x="244" y="508" type="qcurve" smooth="yes"/>
      <point x="242" y="630"/>
      <point x="260" y="652"/>
      <point x="322" y="652"/>
      <point x="414" y="618"/>
      <point x="416" y="500" type="qcurve" smooth="yes"/>
      <point x="417" y="434"/>
      <point x="366" y="348"/>
      <point x="308" y="326"/>
      <point x="256" y="324"/>
      <point x="244" y="352"/>
      <point x="244" y="478"/>
    </contour>
  </outline>
</glyph>
<glyph name="Q" format="1">
  <advance width="738"/>
  <unicode hex="0051"/>
  <outline>
    <contour>
      <point x="35" y="313" type="qcurve" smooth="yes"/>
      <point x="35" y="210"/>
      <point x="142" y="44"/>
      <point x="284" y="-8"/>
      <point x="326" y="-8"/>
      <point x="362" y="-4"/>
      <point x="372" y="-8"/>
      <point x="464" y="-72"/>
      <point x="573" y="-126"/>
      <point x="586" y="-126"/>
      <point x="590" y="-116"/>
      <point x="559" y="-20"/>
      <point x="548" y="41"/>
      <point x="548" y="53"/>
      <point x="558" y="61"/>
      <point x="640" y="136"/>
      <point x="704" y="284"/>
      <point x="703" y="373" type="qcurve" smooth="yes"/>
      <point x="702" y="494"/>
      <point x="544" y="696"/>
      <point x="259" y="693"/>
      <point x="35" y="503"/>
    </contour>
    <contour>
      <point x="177" y="434" type="qcurve" smooth="yes"/>
      <point x="177" y="533"/>
      <point x="258" y="649"/>
      <point x="434" y="649"/>
      <point x="564" y="415"/>
      <point x="564" y="260" type="qcurve" smooth="yes"/>
      <point x="564" y="162"/>
      <point x="472" y="37"/>
      <point x="311" y="37"/>
      <point x="177" y="259"/>
    </contour>
  </outline>
</glyph>
<glyph name="R" format="1">
  <advance width="696"/>
  <unicode hex="0052"/>
  <outline>
    <contour>
      <point x="180" y="4" type="qcurve" smooth="yes"/>
      <point x="204" y="4"/>
      <point x="286" y="-1"/>
      <point x="312" y="-1"/>
      <point x="314" y="12"/>
      <point x="270" y="56"/>
      <point x="248" y="98"/>
      <point x="244" y="116"/>
      <point x="238" y="226"/>
      <point x="240" y="282"/>
      <point x="240" y="306"/>
      <point x="252" y="310"/>
      <point x="284" y="312"/>
      <point x="296" y="306"/>
      <point x="396" y="158"/>
      <point x="466" y="30"/>
      <point x="480" y="10"/>
      <point x="500" y="0"/>
      <point x="590" y="8"/>
      <point x="666" y="-3"/>
      <point x="683" y="-3"/>
      <point x="682" y="9"/>
      <point x="606" y="68"/>
      <point x="576" y="99"/>
      <point x="512" y="193"/>
      <point x="438" y="320"/>
      <point x="433" y="338"/>
      <point x="449" y="347"/>
      <point x="524" y="386"/>
      <point x="579" y="459"/>
      <point x="580" y="591"/>
      <point x="445" y="686"/>
      <point x="314" y="686" type="qcurve" smooth="yes"/>
      <point x="260" y="686"/>
      <point x="152" y="678"/>
      <point x="60" y="688"/>
      <point x="46" y="686"/>
      <point x="48" y="668"/>
      <point x="82" y="628"/>
      <point x="111" y="586"/>
      <point x="116" y="570"/>
      <point x="118" y="340"/>
      <point x="116" y="116"/>
      <point x="111" y="100"/>
      <point x="84" y="54"/>
      <point x="45" y="15"/>
      <point x="41" y="-1"/>
      <point x="61" y="-4"/>
      <point x="162" y="4"/>
    </contour>
    <contour>
      <point x="240" y="490" type="qcurve" smooth="yes"/>
      <point x="240" y="516"/>
      <point x="242" y="643"/>
      <point x="244" y="654"/>
      <point x="258" y="656"/>
      <point x="347" y="646"/>
      <point x="433" y="576"/>
      <point x="433" y="496" type="qcurve" smooth="yes"/>
      <point x="433" y="441"/>
      <point x="362" y="364"/>
      <point x="259" y="340"/>
      <point x="247" y="342"/>
      <point x="242" y="354"/>
      <point x="240" y="457"/>
    </contour>
  </outline>
</glyph>
<glyph name="S" format="1">
  <advance width="533"/>
  <unicode hex="0053"/>
  <outline>
    <contour>
      <point x="35" y="268"/>
      <point x="33" y="259"/>
      <point x="43" y="148"/>
      <point x="40" y="38"/>
      <point x="41" y="24"/>
      <point x="53" y="20"/>
      <point x="176" y="-8"/>
      <point x="246" y="-8" type="qcurve" smooth="yes"/>
      <point x="353" y="-8"/>
      <point x="493" y="102"/>
      <point x="493" y="271"/>
      <point x="414" y="354"/>
      <point x="190" y="456"/>
      <point x="136" y="525"/>
      <point x="136" y="605"/>
      <point x="189" y="651"/>
      <point x="294" y="651"/>
      <point x="391" y="584"/>
      <point x="430" y="492"/>
      <point x="434" y="484"/>
      <point x="446" y="483"/>
      <point x="449" y="496"/>
      <point x="443" y="601"/>
      <point x="450" y="693"/>
      <point x="446" y="701"/>
      <point x="434" y="697"/>
      <point x="397" y="685"/>
      <point x="342" y="682"/>
      <point x="271" y="685"/>
      <point x="255" y="685" type="qcurve" smooth="yes"/>
      <point x="131" y="685"/>
      <point x="38" y="559"/>
      <point x="38" y="443"/>
      <point x="92" y="356"/>
      <point x="322" y="249"/>
      <point x="383" y="183"/>
      <point x="383" y="80"/>
      <point x="319" y="31"/>
      <point x="224" y="32"/>
      <point x="130" y="95"/>
      <point x="75" y="192"/>
      <point x="51" y="261"/>
      <point x="46" y="268"/>
    </contour>
  </outline>
</glyph>
<glyph name="T" format="1">
  <advance width="660"/>
  <unicode hex="0054"/>
  <outline>
    <contour>
      <point x="20" y="466"/>
      <point x="34" y="466"/>
      <point x="44" y="482"/>
      <point x="100" y="580"/>
      <point x="154" y="646"/>
      <point x="164" y="652"/>
      <point x="204" y="654"/>
      <point x="240" y="654"/>
      <point x="254" y="646"/>
      <point x="256" y="630"/>
      <point x="261" y="406"/>
      <point x="260" y="115"/>
      <point x="257" y="101"/>
      <point x="235" y="67"/>
      <point x="182" y="18"/>
      <point x="182" y="0"/>
      <point x="201" y="-3"/>
      <point x="276" y="6"/>
      <point x="320" y="6" type="qcurve" smooth="yes"/>
      <point x="366" y="6"/>
      <point x="436" y="-2"/>
      <point x="458" y="-4"/>
      <point x="459" y="16"/>
      <point x="412" y="59"/>
      <point x="385" y="100"/>
      <point x="382" y="115"/>
      <point x="381" y="406"/>
      <point x="388" y="636"/>
      <point x="392" y="650"/>
      <point x="408" y="652"/>
      <point x="442" y="654"/>
      <point x="478" y="652"/>
      <point x="490" y="640"/>
      <point x="545" y="573"/>
      <point x="595" y="487"/>
      <point x="604" y="471"/>
      <point x="622" y="471"/>
      <point x="628" y="491"/>
      <point x="621" y="578"/>
      <point x="626" y="668"/>
      <point x="622" y="688"/>
      <point x="602" y="690"/>
      <point x="454" y="684"/>
      <point x="324" y="684" type="qcurve" smooth="yes"/>
      <point x="162" y="684"/>
      <point x="46" y="691"/>
      <point x="22" y="692"/>
      <point x="16" y="668"/>
      <point x="20" y="592"/>
      <point x="15" y="482"/>
    </contour>
  </outline>
</glyph>
<glyph name="U" format="1">
  <advance width="781"/>
  <unicode hex="0055"/>
  <outline>
    <contour>
      <point x="654" y="584"/>
      <point x="660" y="598"/>
      <point x="696" y="644"/>
      <point x="732" y="668"/>
      <point x="742" y="688"/>
      <point x="722" y="689"/>
      <point x="640" y="682"/>
      <point x="542" y="687"/>
      <point x="528" y="687"/>
      <point x="531" y="675"/>
      <point x="564" y="646"/>
      <point x="601" y="601"/>
      <point x="606" y="588"/>
      <point x="606" y="314"/>
      <point x="602" y="154"/>
      <point x="514" y="34"/>
      <point x="434" y="34" type="qcurve" smooth="yes"/>
      <point x="332" y="34"/>
      <point x="244" y="122"/>
      <point x="242" y="372"/>
      <point x="244" y="574"/>
      <point x="244" y="582"/>
      <point x="273" y="629"/>
      <point x="314" y="672"/>
      <point x="313" y="689"/>
      <point x="293" y="689"/>
      <point x="176" y="682"/>
      <point x="60" y="690"/>
      <point x="40" y="689"/>
      <point x="46" y="672"/>
      <point x="80" y="638"/>
      <point x="110" y="584"/>
      <point x="114" y="569"/>
      <point x="115" y="81"/>
      <point x="290" y="-16"/>
      <point x="398" y="-16" type="qcurve" smooth="yes"/>
      <point x="522" y="-14"/>
      <point x="654" y="132"/>
      <point x="652" y="416"/>
    </contour>
  </outline>
</glyph>
<glyph name="V" format="1">
  <advance width="681"/>
  <unicode hex="0056"/>
  <outline>
    <contour>
      <point x="383" y="144"/>
      <point x="375" y="156"/>
      <point x="270" y="430"/>
      <point x="201" y="607"/>
      <point x="195" y="622"/>
      <point x="203" y="631"/>
      <point x="232" y="654"/>
      <point x="270" y="677"/>
      <point x="270" y="690"/>
      <point x="250" y="692"/>
      <point x="178" y="684"/>
      <point x="134" y="684" type="qcurve" smooth="yes"/>
      <point x="80" y="684"/>
      <point x="26" y="692"/>
      <point x="8" y="691"/>
      <point x="5" y="676"/>
      <point x="33" y="655"/>
      <point x="54" y="629"/>
      <point x="60" y="621"/>
      <point x="169" y="363"/>
      <point x="311" y="4"/>
      <point x="320" y="-13"/>
      <point x="331" y="-20"/>
      <point x="344" y="-20" type="qcurve" smooth="yes"/>
      <point x="358" y="-20"/>
      <point x="372" y="-14"/>
      <point x="381" y="2"/>
      <point x="534" y="412"/>
      <point x="602" y="592"/>
      <point x="611" y="604"/>
      <point x="640" y="644"/>
      <point x="671" y="676"/>
      <point x="666" y="690"/>
      <point x="650" y="691"/>
      <point x="572" y="682"/>
      <point x="486" y="692"/>
      <point x="469" y="690"/>
      <point x="472" y="677"/>
      <point x="520" y="637"/>
      <point x="544" y="610"/>
      <point x="552" y="598"/>
      <point x="550" y="588"/>
      <point x="478" y="392"/>
      <point x="393" y="156"/>
    </contour>
  </outline>
</glyph>
<glyph name="W" format="1">
  <advance width="1005"/>
  <unicode hex="0057"/>
  <outline>
    <contour>
      <point x="516" y="370" type="qcurve" smooth="yes"/>
      <point x="526" y="370"/>
      <point x="549" y="296"/>
      <point x="658" y="0"/>
      <point x="667" y="-13"/>
      <point x="692" y="-11"/>
      <point x="720" y="-13"/>
      <point x="726" y="-1"/>
      <point x="848" y="350"/>
      <point x="934" y="594"/>
      <point x="942" y="606"/>
      <point x="968" y="642"/>
      <point x="996" y="670"/>
      <point x="1002" y="686"/>
      <point x="988" y="691"/>
      <point x="902" y="685"/>
      <point x="816" y="693"/>
      <point x="798" y="689"/>
      <point x="806" y="672"/>
      <point x="848" y="638"/>
      <point x="880" y="600"/>
      <point x="880" y="588"/>
      <point x="808" y="366"/>
      <point x="742" y="166"/>
      <point x="732" y="155"/>
      <point x="722" y="166"/>
      <point x="639" y="406"/>
      <point x="564" y="616"/>
      <point x="564" y="626"/>
      <point x="601" y="656"/>
      <point x="640" y="676"/>
      <point x="644" y="690"/>
      <point x="630" y="692"/>
      <point x="540" y="684"/>
      <point x="504" y="684" type="qcurve" smooth="yes"/>
      <point x="450" y="684"/>
      <point x="387" y="690"/>
      <point x="375" y="686"/>
      <point x="380" y="673"/>
      <point x="402" y="656"/>
      <point x="417" y="635"/>
      <point x="422" y="624"/>
      <point x="463" y="530"/>
      <point x="494" y="442"/>
      <point x="492" y="426"/>
      <point x="439" y="292"/>
      <point x="389" y="166"/>
      <point x="381" y="154"/>
      <point x="372" y="166"/>
      <point x="265" y="456"/>
      <point x="207" y="618"/>
      <point x="207" y="628"/>
      <point x="242" y="654"/>
      <point x="278" y="675"/>
      <point x="279" y="688"/>
      <point x="265" y="691"/>
      <point x="142" y="683"/>
      <point x="37" y="689"/>
      <point x="20" y="689"/>
      <point x="16" y="679"/>
      <point x="49" y="650"/>
      <point x="66" y="628"/>
      <point x="72" y="616"/>
      <point x="195" y="308"/>
      <point x="307" y="3"/>
      <point x="314" y="-15"/>
      <point x="341" y="-13"/>
      <point x="370" y="-16"/>
      <point x="380" y="6"/>
      <point x="485" y="296"/>
      <point x="509" y="370"/>
    </contour>
  </outline>
</glyph>
<glyph name="X" format="1">
  <advance width="722"/>
  <unicode hex="0058"/>
  <outline>
    <contour>
      <point x="544" y="2" type="qcurve" smooth="yes"/>
      <point x="594" y="2"/>
      <point x="695" y="-6"/>
      <point x="718" y="-6"/>
      <point x="719" y="12"/>
      <point x="670" y="47"/>
      <point x="614" y="106"/>
      <point x="532" y="216"/>
      <point x="424" y="358"/>
      <point x="418" y="370"/>
      <point x="426" y="380"/>
      <point x="529" y="520"/>
      <point x="578" y="582"/>
      <point x="640" y="642"/>
      <point x="686" y="671"/>
      <point x="688" y="691"/>
      <point x="668" y="691"/>
      <point x="574" y="685"/>
      <point x="458" y="692"/>
      <point x="440" y="693"/>
      <point x="435" y="681"/>
      <point x="442" y="670"/>
      <point x="471" y="638"/>
      <point x="500" y="597"/>
      <point x="509" y="585"/>
      <point x="503" y="573"/>
      <point x="452" y="503"/>
      <point x="394" y="426"/>
      <point x="384" y="414"/>
      <point x="374" y="427"/>
      <point x="306" y="511"/>
      <point x="260" y="574"/>
      <point x="249" y="590"/>
      <point x="259" y="605"/>
      <point x="288" y="638"/>
      <point x="326" y="677"/>
      <point x="321" y="691"/>
      <point x="304" y="692"/>
      <point x="222" y="686"/>
      <point x="164" y="686" type="qcurve" smooth="yes"/>
      <point x="107" y="686"/>
      <point x="37" y="690"/>
      <point x="17" y="690"/>
      <point x="15" y="677"/>
      <point x="66" y="638"/>
      <point x="116" y="582"/>
      <point x="183" y="497"/>
      <point x="282" y="354"/>
      <point x="293" y="340"/>
      <point x="282" y="328"/>
      <point x="208" y="226"/>
      <point x="109" y="103"/>
      <point x="68" y="54"/>
      <point x="9" y="11"/>
      <point x="9" y="-6"/>
      <point x="32" y="-5"/>
      <point x="124" y="1"/>
      <point x="234" y="-4"/>
      <point x="260" y="-2"/>
      <point x="259" y="15"/>
      <point x="215" y="50"/>
      <point x="191" y="83"/>
      <point x="185" y="93"/>
      <point x="190" y="104"/>
      <point x="249" y="191"/>
      <point x="318" y="282"/>
      <point x="328" y="291"/>
      <point x="340" y="280"/>
      <point x="411" y="186"/>
      <point x="463" y="114"/>
      <point x="471" y="99"/>
      <point x="465" y="88"/>
      <point x="439" y="56"/>
      <point x="384" y="11"/>
      <point x="382" y="-7"/>
      <point x="399" y="-8"/>
      <point x="474" y="2"/>
    </contour>
  </outline>
</glyph>
<glyph name="Y" format="1">
  <advance width="689"/>
  <unicode hex="0059"/>
  <outline>
    <contour>
      <point x="350" y="0" type="qcurve" smooth="yes"/>
      <point x="396" y="0"/>
      <point x="464" y="-6"/>
      <point x="485" y="-6"/>
      <point x="485" y="10"/>
      <point x="439" y="56"/>
      <point x="412" y="102"/>
      <point x="409" y="114"/>
      <point x="406" y="212"/>
      <point x="407" y="313"/>
      <point x="415" y="326"/>
      <point x="506" y="482"/>
      <point x="573" y="585"/>
      <point x="582" y="597"/>
      <point x="633" y="650"/>
      <point x="677" y="676"/>
      <point x="676" y="691"/>
      <point x="658" y="692"/>
      <point x="550" y="681"/>
      <point x="450" y="689"/>
      <point x="430" y="689"/>
      <point x="431" y="674"/>
      <point x="462" y="644"/>
      <point x="504" y="592"/>
      <point x="512" y="580"/>
      <point x="506" y="568"/>
      <point x="458" y="484"/>
      <point x="391" y="372"/>
      <point x="380" y="357"/>
      <point x="369" y="372"/>
      <point x="294" y="496"/>
      <point x="251" y="566"/>
      <point x="246" y="580"/>
      <point x="252" y="590"/>
      <point x="285" y="632"/>
      <point x="323" y="668"/>
      <point x="326" y="689"/>
      <point x="301" y="689"/>
      <point x="210" y="682"/>
      <point x="162" y="682" type="qcurve" smooth="yes"/>
      <point x="109" y="682"/>
      <point x="29" y="692"/>
      <point x="12" y="691"/>
      <point x="16" y="673"/>
      <point x="61" y="632"/>
      <point x="100" y="584"/>
      <point x="104" y="576"/>
      <point x="180" y="457"/>
      <point x="274" y="285"/>
      <point x="280" y="273"/>
      <point x="283" y="212"/>
      <point x="282" y="113"/>
      <point x="278" y="100"/>
      <point x="252" y="56"/>
      <point x="210" y="11"/>
      <point x="210" y="-5"/>
      <point x="234" y="-5"/>
      <point x="292" y="0"/>
    </contour>
  </outline>
</glyph>
<glyph name="Z" format="1">
  <advance width="668"/>
  <unicode hex="005A"/>
  <outline>
    <contour>
      <point x="622" y="211"/>
      <point x="606" y="207"/>
      <point x="578" y="160"/>
      <point x="493" y="53"/>
      <point x="482" y="44"/>
      <point x="464" y="41"/>
      <point x="332" y="39"/>
      <point x="211" y="40"/>
      <point x="197" y="45"/>
      <point x="204" y="58"/>
      <point x="410" y="365"/>
      <point x="611" y="648"/>
      <point x="624" y="683"/>
      <point x="599" y="688"/>
      <point x="528" y="682"/>
      <point x="346" y="682" type="qcurve" smooth="yes"/>
      <point x="302" y="682"/>
      <point x="181" y="682"/>
      <point x="93" y="698"/>
      <point x="78" y="696"/>
      <point x="76" y="678"/>
      <point x="80" y="592"/>
      <point x="66" y="471"/>
      <point x="77" y="460"/>
      <point x="91" y="472"/>
      <point x="146" y="562"/>
      <point x="202" y="627"/>
      <point x="212" y="638"/>
      <point x="227" y="639"/>
      <point x="324" y="642"/>
      <point x="435" y="642"/>
      <point x="446" y="634"/>
      <point x="440" y="622"/>
      <point x="249" y="336"/>
      <point x="44" y="34"/>
      <point x="28" y="14"/>
      <point x="42" y="-4"/>
      <point x="66" y="-3"/>
      <point x="244" y="2"/>
      <point x="308" y="2" type="qcurve" smooth="yes"/>
      <point x="427" y="2"/>
      <point x="590" y="-8"/>
      <point x="612" y="-6"/>
      <point x="613" y="12"/>
      <point x="614" y="103"/>
      <point x="626" y="196"/>
    </contour>
  </outline>
</glyph>
<glyph name="bracketleft" format="1">
  <advance width="214"/>
  <unicode hex="005B"/>
  <outline>
    <contour>
      <point x="5" y="711" type="line"/>
      <point x="5" y="-160" type="line"/>
      <point x="196" y="-160" type="line"/>
      <point x="196" y="-104" type="line"/>
      <point x="73" y="-104" type="line"/>
      <point x="73" y="655" type="line"/>
      <point x="196" y="655" type="line"/>
      <point x="196" y="711" type="line"/>
    </contour>
  </outline>
</glyph>
<glyph name="bracketright" format="1">
  <advance width="214"/>
  <unicode hex="005D"/>
  <outline>
    <contour>
      <point x="8" y="-104" type="line"/>
      <point x="8" y="-160" type="line"/>
      <point x="199" y="-160" type="line"/>
      <point x="199" y="711" type="line"/>
      <point x="8" y="711" type="line"/>
      <point x="8" y="655" type="line"/>
      <point x="131" y="655" type="line"/>
      <point x="131" y="-104" type="line"/>
    </contour>
  </outline>
</glyph>
<glyph name="asciicircum" format="1">
  <advance width="466"/>
  <unicode hex="005E"/>
  <outline>
    <contour>
      <point x="273" y="694" type="line"/>
      <point x="274" y="695" type="line"/>
      <point x="192" y="695" type="line"/>
      <point x="193" y="694" type="line"/>
      <point x="5" y="282" type="line"/>
      <point x="77" y="282" type="line"/>
      <point x="203" y="536" type="line"/>
      <point x="389" y="282" type="line"/>
      <point x="461" y="282" type="line"/>
    </contour>
  </outline>
</glyph>
<glyph name="underscore" format="1">
  <advance width="556"/>
  <unicode hex="005F"/>
  <outline>
    <contour>
      <point x="556" y="-60" type="line"/>
      <point x="556" y="0" type="line"/>
      <point x="0" y="0" type="line"/>
      <point x="0" y="-60" type="line"/>
    </contour>
  </outline>
</glyph>
<glyph name="grave" format="1">
  <advance width="184"/>
  <unicode hex="0060"/>
  <outline>
    <contour>
      <point x="164" y="552" type="line"/>
      <point x="146" y="681" type="line"/>
      <point x="20" y="681" type="line"/>
      <point x="149" y="552" type="line"/>
    </contour>
  </outline>
</glyph>
<glyph name="a" format="1">
  <advance width="534"/>
  <unicode hex="0061"/>
  <outline>
    <contour>
      <point x="414" y="0" type="qcurve" smooth="yes"/>
      <point x="441" y="0"/>
      <point x="494" y="-3"/>
      <point x="507" y="-3"/>
      <point x="510" y="10"/>
      <point x="474" y="32"/>
      <point x="444" y="61"/>
      <point x="438" y="71"/>
      <point x="440" y="252"/>
      <point x="440" y="389"/>
      <point x="440" y="408"/>
      <point x="447" y="447"/>
      <point x="462" y="475"/>
      <point x="459" y="495"/>
      <point x="438" y="495"/>
      <point x="366" y="492"/>
      <point x="328" y="492" type="qcurve" smooth="yes"/>
      <point x="257" y="492"/>
      <point x="75" y="495"/>
      <point x="52" y="495"/>
      <point x="49" y="476"/>
      <point x="51" y="418"/>
      <point x="44" y="348"/>
      <point x="52" y="332"/>
      <point x="69" y="340"/>
      <point x="108" y="403"/>
      <point x="180" y="462"/>
      <point x="288" y="462"/>
      <point x="321" y="396"/>
      <point x="320" y="330"/>
      <point x="320" y="318"/>
      <point x="308" y="314"/>
      <point x="161" y="266"/>
      <point x="26" y="171"/>
      <point x="25" y="48"/>
      <point x="89" y="-10"/>
      <point x="181" y="-10"/>
      <point x="249" y="21"/>
      <point x="309" y="76"/>
      <point x="318" y="82"/>
      <point x="322" y="75"/>
      <point x="322" y="38"/>
      <point x="319" y="11"/>
      <point x="322" y="-2"/>
      <point x="340" y="-3"/>
      <point x="382" y="0"/>
    </contour>
    <contour>
      <point x="157" y="138" type="qcurve" smooth="yes"/>
      <point x="157" y="184"/>
      <point x="201" y="236"/>
      <point x="304" y="286"/>
      <point x="317" y="286"/>
      <point x="320" y="273"/>
      <point x="322" y="244"/>
      <point x="322" y="204" type="qcurve" smooth="yes"/>
      <point x="322" y="166"/>
      <point x="320" y="122"/>
      <point x="318" y="110"/>
      <point x="312" y="104"/>
      <point x="264" y="69"/>
      <point x="198" y="69"/>
      <point x="157" y="103"/>
    </contour>
  </outline>
</glyph>
<glyph name="b" format="1">
  <advance width="598"/>
  <unicode hex="0062"/>
  <outline>
    <contour>
      <point x="208" y="708"/>
      <point x="184" y="708"/>
      <point x="123" y="680"/>
      <point x="42" y="662"/>
      <point x="22" y="653"/>
      <point x="32" y="637"/>
      <point x="68" y="606"/>
      <point x="82" y="582"/>
      <point x="88" y="566"/>
      <point x="92" y="436"/>
      <point x="82" y="12"/>
      <point x="84" y="-10"/>
      <point x="112" y="-8"/>
      <point x="152" y="13"/>
      <point x="163" y="13"/>
      <point x="248" y="-8"/>
      <point x="301" y="-9" type="qcurve" smooth="yes"/>
      <point x="417" y="-11"/>
      <point x="557" y="149"/>
      <point x="561" y="353"/>
      <point x="458" y="500"/>
      <point x="362" y="500" type="qcurve" smooth="yes"/>
      <point x="294" y="500"/>
      <point x="226" y="442"/>
      <point x="214" y="430"/>
      <point x="206" y="446"/>
      <point x="205" y="551"/>
      <point x="208" y="687"/>
    </contour>
    <contour>
      <point x="208" y="376"/>
      <point x="211" y="397"/>
      <point x="227" y="409"/>
      <point x="275" y="426"/>
      <point x="349" y="424"/>
      <point x="444" y="308"/>
      <point x="444" y="166" type="qcurve" smooth="yes"/>
      <point x="444" y="79"/>
      <point x="363" y="35"/>
      <point x="303" y="36"/>
      <point x="228" y="80"/>
      <point x="211" y="99"/>
      <point x="208" y="121"/>
      <point x="208" y="232" type="qcurve" smooth="yes"/>
      <point x="208" y="267"/>
    </contour>
  </outline>
</glyph>
<glyph name="c" format="1">
  <advance width="468"/>
  <unicode hex="0063"/>
  <outline>
    <contour>
      <point x="226" y="-12" type="qcurve" smooth="yes"/>
      <point x="288" y="-12"/>
      <point x="396" y="76"/>
      <point x="441" y="181"/>
      <point x="442" y="194"/>
      <point x="428" y="200"/>
      <point x="419" y="187"/>
      <point x="378" y="130"/>
      <point x="308" y="108"/>
      <point x="242" y="110"/>
      <point x="146" y="193"/>
      <point x="144" y="364"/>
      <point x="197" y="454"/>
      <point x="290" y="456"/>
      <point x="356" y="418"/>
      <point x="400" y="327"/>
      <point x="418" y="326"/>
      <point x="419" y="346"/>
      <point x="413" y="421"/>
      <point x="417" y="477"/>
      <point x="417" y="493"/>
      <point x="394" y="493"/>
      <point x="365" y="485"/>
      <point x="325" y="490"/>
      <point x="294" y="490" type="qcurve" smooth="yes"/>
      <point x="162" y="490"/>
      <point x="30" y="323"/>
      <point x="30" y="141"/>
      <point x="130" y="-12"/>
    </contour>
  </outline>
</glyph>
<glyph name="d" format="1">
  <advance width="597"/>
  <unicode hex="0064"/>
  <outline>
    <contour>
      <point x="230" y="-10" type="qcurve" smooth="yes"/>
      <point x="300" y="-10"/>
      <point x="370" y="74"/>
      <point x="382" y="84"/>
      <point x="388" y="71"/>
      <point x="389" y="42"/>
      <point x="382" y="6"/>
      <point x="384" y="-12"/>
      <point x="404" y="-13"/>
      <point x="482" y="-1"/>
      <point x="551" y="-5"/>
      <point x="575" y="-5"/>
      <point x="573" y="13"/>
      <point x="537" y="35"/>
      <point x="508" y="64"/>
      <point x="504" y="80"/>
      <point x="502" y="330"/>
      <point x="504" y="685"/>
      <point x="495" y="710"/>
      <point x="474" y="707"/>
      <point x="410" y="679"/>
      <point x="332" y="663"/>
      <point x="313" y="655"/>
      <point x="321" y="639"/>
      <point x="354" y="613"/>
      <point x="377" y="584"/>
      <point x="384" y="572"/>
      <point x="385" y="534"/>
      <point x="383" y="495"/>
      <point x="379" y="485"/>
      <point x="365" y="484"/>
      <point x="336" y="490"/>
      <point x="299" y="490" type="qcurve" smooth="yes"/>
      <point x="162" y="490"/>
      <point x="35" y="318"/>
      <point x="34" y="143"/>
      <point x="127" y="-10"/>
    </contour>
    <contour>
      <point x="384" y="128"/>
      <point x="372" y="118"/>
      <point x="333" y="100"/>
      <point x="263" y="100"/>
      <point x="154" y="187"/>
      <point x="154" y="316" type="qcurve" smooth="yes"/>
      <point x="154" y="373"/>
      <point x="201" y="455"/>
      <point x="306" y="455"/>
      <point x="373" y="406"/>
      <point x="382" y="390"/>
      <point x="388" y="297"/>
      <point x="388" y="268" type="qcurve" smooth="yes"/>
      <point x="388" y="226"/>
      <point x="386" y="148"/>
    </contour>
  </outline>
</glyph>
<glyph name="e" format="1">
  <advance width="492"/>
  <unicode hex="0065"/>
  <outline>
    <contour>
      <point x="230" y="-14" type="qcurve" smooth="yes"/>
      <point x="315" y="-14"/>
      <point x="416" y="74"/>
      <point x="458" y="157"/>
      <point x="448" y="176"/>
      <point x="430" y="171"/>
      <point x="401" y="132"/>
      <point x="346" y="100"/>
      <point x="219" y="102"/>
      <point x="153" y="181"/>
      <point x="139" y="261"/>
      <point x="156" y="279"/>
      <point x="303" y="283"/>
      <point x="431" y="279"/>
      <point x="451" y="278"/>
      <point x="463" y="296"/>
      <point x="438" y="422"/>
      <point x="343" y="500"/>
      <point x="268" y="500" type="qcurve" smooth="yes"/>
      <point x="147" y="500"/>
      <point x="24" y="336"/>
      <point x="25" y="132"/>
      <point x="128" y="-14"/>
    </contour>
    <contour>
      <point x="237" y="315" type="qcurve" smooth="yes"/>
      <point x="157" y="314"/>
      <point x="137" y="331"/>
      <point x="155" y="416"/>
      <point x="210" y="469"/>
      <point x="245" y="469" type="qcurve" smooth="yes"/>
      <point x="281" y="469"/>
      <point x="323" y="414"/>
      <point x="334" y="332"/>
      <point x="317" y="316"/>
    </contour>
  </outline>
</glyph>
<glyph name="f" format="1">
  <advance width="387"/>
  <unicode hex="0066"/>
  <outline>
    <contour>
      <point x="152" y="2" type="qcurve" smooth="yes"/>
      <point x="208" y="2"/>
      <point x="279" y="-4"/>
      <point x="297" y="-4"/>
      <point x="297" y="13"/>
      <point x="248" y="47"/>
      <point x="211" y="77"/>
      <point x="207" y="95"/>
      <point x="205" y="282"/>
      <point x="210" y="424"/>
      <point x="221" y="439"/>
      <point x="300" y="441"/>
      <point x="364" y="436"/>
      <point x="380" y="436"/>
      <point x="388" y="445"/>
      <point x="400" y="474"/>
      <point x="400" y="489"/>
      <point x="385" y="492"/>
      <point x="294" y="485"/>
      <point x="224" y="488"/>
      <point x="210" y="490"/>
      <point x="202" y="504"/>
      <point x="190" y="580"/>
      <point x="192" y="621"/>
      <point x="232" y="660"/>
      <point x="302" y="660"/>
      <point x="374" y="613"/>
      <point x="416" y="542"/>
      <point x="432" y="542"/>
      <point x="432" y="562"/>
      <point x="425" y="630"/>
      <point x="428" y="680"/>
      <point x="428" y="695"/>
      <point x="410" y="696"/>
      <point x="378" y="690"/>
      <point x="334" y="692"/>
      <point x="307" y="694" type="qcurve" smooth="yes"/>
      <point x="248" y="698"/>
      <point x="124" y="623"/>
      <point x="94" y="506"/>
      <point x="90" y="488"/>
      <point x="68" y="487"/>
      <point x="42" y="490"/>
      <point x="27" y="488"/>
      <point x="29" y="474"/>
      <point x="62" y="456"/>
      <point x="86" y="430"/>
      <point x="90" y="416"/>
      <point x="93" y="282"/>
      <point x="88" y="89"/>
      <point x="85" y="73"/>
      <point x="62" y="45"/>
      <point x="15" y="9"/>
      <point x="14" y="-8"/>
      <point x="38" y="-8"/>
      <point x="99" y="2"/>
    </contour>
  </outline>
</glyph>
<glyph name="g" format="1">
  <advance width="506"/>
  <unicode hex="0067"/>
  <outline>
    <contour>
      <point x="265" y="184" type="qcurve" smooth="yes"/>
      <point x="217" y="184"/>
      <point x="172" y="319"/>
      <point x="172" y="400"/>
      <point x="194" y="475"/>
      <point x="226" y="474" type="qcurve" smooth="yes"/>
      <point x="268" y="473"/>
      <point x="322" y="358"/>
      <point x="319" y="243"/>
      <point x="296" y="184"/>
    </contour>
    <contour>
      <point x="234" y="-210" type="qcurve" smooth="yes"/>
      <point x="164" y="-208"/>
      <point x="96" y="-157"/>
      <point x="96" y="-78"/>
      <point x="123" y="-43"/>
      <point x="135" y="-40"/>
      <point x="204" y="-42"/>
      <point x="254" y="-42" type="qcurve" smooth="yes"/>
      <point x="282" y="-42"/>
      <point x="377" y="-39"/>
      <point x="391" y="-46"/>
      <point x="400" y="-76"/>
      <point x="398" y="-119"/>
      <point x="369" y="-170"/>
      <point x="296" y="-210"/>
    </contour>
    <contour>
      <point x="222" y="-232" type="qcurve" smooth="yes"/>
      <point x="355" y="-232"/>
      <point x="461" y="-115"/>
      <point x="475" y="-3"/>
      <point x="468" y="46"/>
      <point x="446" y="73"/>
      <point x="392" y="75"/>
      <point x="288" y="69"/>
      <point x="163" y="70"/>
      <point x="126" y="93"/>
      <point x="126" y="128"/>
      <point x="147" y="150"/>
      <point x="166" y="164"/>
      <point x="197" y="156"/>
      <point x="285" y="155"/>
      <point x="393" y="206"/>
      <point x="449" y="299"/>
      <point x="451" y="375"/>
      <point x="421" y="435"/>
      <point x="416" y="445"/>
      <point x="418" y="457"/>
      <point x="443" y="519"/>
      <point x="451" y="569"/>
      <point x="453" y="581"/>
      <point x="445" y="590"/>
      <point x="432" y="582"/>
      <point x="378" y="537"/>
      <point x="329" y="498"/>
      <point x="315" y="496"/>
      <point x="295" y="501"/>
      <point x="269" y="502" type="qcurve" smooth="yes"/>
      <point x="164" y="504"/>
      <point x="48" y="389"/>
      <point x="46" y="260"/>
      <point x="82" y="207"/>
      <point x="121" y="180"/>
      <point x="134" y="172"/>
      <point x="124" y="164"/>
      <point x="79" y="134"/>
      <point x="46" y="84"/>
      <point x="45" y="38"/>
      <point x="63" y="1"/>
      <point x="95" y="-22"/>
      <point x="104" y="-29"/>
      <point x="94" y="-36"/>
      <point x="63" y="-50"/>
      <point x="19" y="-90"/>
      <point x="20" y="-172"/>
      <point x="122" y="-232"/>
    </contour>
  </outline>
</glyph>
<glyph name="h" format="1">
  <advance width="624"/>
  <unicode hex="0068"/>
  <outline>
    <contour>
      <point x="214" y="703"/>
      <point x="194" y="701"/>
      <point x="123" y="672"/>
      <point x="45" y="651"/>
      <point x="33" y="642"/>
      <point x="44" y="626"/>
      <point x="63" y="607"/>
      <point x="84" y="580"/>
      <point x="93" y="564"/>
      <point x="98" y="538"/>
      <point x="98" y="310"/>
      <point x="96" y="107"/>
      <point x="93" y="87"/>
      <point x="87" y="75"/>
      <point x="62" y="45"/>
      <point x="28" y="11"/>
      <point x="20" y="-3"/>
      <point x="39" y="-3"/>
      <point x="113" y="2"/>
      <point x="158" y="2" type="qcurve" smooth="yes"/>
      <point x="196" y="2"/>
      <point x="271" y="-5"/>
      <point x="288" y="-5"/>
      <point x="288" y="6"/>
      <point x="246" y="45"/>
      <point x="221" y="72"/>
      <point x="216" y="87"/>
      <point x="211" y="252"/>
      <point x="213" y="368"/>
      <point x="219" y="390"/>
      <point x="279" y="436"/>
      <point x="369" y="436"/>
      <point x="409" y="382"/>
      <point x="414" y="281"/>
      <point x="410" y="93"/>
      <point x="405" y="81"/>
      <point x="384" y="50"/>
      <point x="340" y="12"/>
      <point x="337" y="-4"/>
      <point x="364" y="-4"/>
      <point x="466" y="4"/>
      <point x="574" y="-3"/>
      <point x="600" y="-3"/>
      <point x="602" y="14"/>
      <point x="560" y="48"/>
      <point x="531" y="80"/>
      <point x="526" y="93"/>
      <point x="527" y="254"/>
      <point x="529" y="417"/>
      <point x="453" y="504"/>
      <point x="379" y="504" type="qcurve" smooth="yes"/>
      <point x="321" y="504"/>
      <point x="236" y="440"/>
      <point x="218" y="423"/>
      <point x="212" y="442"/>
      <point x="211" y="602"/>
      <point x="214" y="680"/>
    </contour>
  </outline>
</glyph>
<glyph name="i" format="1">
  <advance width="318"/>
  <unicode hex="0069"/>
  <outline>
    <contour>
      <point x="156" y="546" type="qcurve" smooth="yes"/>
      <point x="171" y="546"/>
      <point x="205" y="595"/>
      <point x="231" y="624"/>
      <point x="241" y="640"/>
      <point x="231" y="656"/>
      <point x="200" y="687"/>
      <point x="168" y="730"/>
      <point x="156" y="730" type="qcurve" smooth="yes"/>
      <point x="145" y="730"/>
      <point x="112" y="688"/>
      <point x="81" y="656"/>
      <point x="70" y="640"/>
      <point x="78" y="627"/>
      <point x="116" y="588"/>
      <point x="146" y="546"/>
    </contour>
    <contour>
      <point x="158" y="2" type="qcurve" smooth="yes"/>
      <point x="206" y="2"/>
      <point x="270" y="-3"/>
      <point x="288" y="2"/>
      <point x="279" y="19"/>
      <point x="234" y="66"/>
      <point x="220" y="85"/>
      <point x="216" y="240"/>
      <point x="220" y="464"/>
      <point x="220" y="497"/>
      <point x="199" y="496"/>
      <point x="160" y="478"/>
      <point x="138" y="470" type="qcurve" smooth="yes"/>
      <point x="115" y="462"/>
      <point x="44" y="442"/>
      <point x="36" y="432"/>
      <point x="44" y="420"/>
      <point x="68" y="395"/>
      <point x="92" y="366"/>
      <point x="102" y="349"/>
      <point x="101" y="240"/>
      <point x="102" y="85"/>
      <point x="84" y="66"/>
      <point x="40" y="19"/>
      <point x="26" y="4"/>
      <point x="38" y="-4"/>
      <point x="108" y="2"/>
    </contour>
  </outline>
</glyph>
<glyph name="j" format="1">
  <advance width="260"/>
  <unicode hex="006A"/>
  <outline>
    <contour>
      <point x="90" y="138" type="qcurve" smooth="yes"/>
      <point x="90" y="-160"/>
      <point x="80" y="-200"/>
      <point x="72" y="-216"/>
      <point x="80" y="-226"/>
      <point x="94" y="-218"/>
      <point x="208" y="-106"/>
      <point x="208" y="-34"/>
      <point x="208" y="172" type="qcurve" smooth="yes"/>
      <point x="208" y="307"/>
      <point x="210" y="482"/>
      <point x="208" y="500"/>
      <point x="192" y="499"/>
      <point x="123" y="467"/>
      <point x="40" y="443"/>
      <point x="21" y="438"/>
      <point x="27" y="420"/>
      <point x="62" y="389"/>
      <point x="83" y="362"/>
      <point x="88" y="352"/>
      <point x="88" y="339"/>
      <point x="90" y="175"/>
    </contour>
    <contour>
      <point x="146" y="550" type="qcurve" smooth="yes"/>
      <point x="158" y="550"/>
      <point x="193" y="597"/>
      <point x="221" y="624"/>
      <point x="231" y="640"/>
      <point x="221" y="656"/>
      <point x="189" y="687"/>
      <point x="158" y="730"/>
      <point x="146" y="730" type="qcurve" smooth="yes"/>
      <point x="135" y="730"/>
      <point x="103" y="688"/>
      <point x="71" y="656"/>
      <point x="60" y="640"/>
      <point x="68" y="627"/>
      <point x="107" y="588"/>
      <point x="136" y="550"/>
    </contour>
  </outline>
</glyph>
<glyph name="k" format="1">
  <advance width="579"/>
  <unicode hex="006B"/>
  <outline>
    <contour>
      <point x="214" y="714"/>
      <point x="192" y="708"/>
      <point x="114" y="678"/>
      <point x="43" y="658"/>
      <point x="29" y="649"/>
      <point x="40" y="634"/>
      <point x="67" y="611"/>
      <point x="88" y="582"/>
      <point x="94" y="570"/>
      <point x="96" y="547"/>
      <point x="98" y="342"/>
      <point x="94" y="94"/>
      <point x="91" y="82"/>
      <point x="64" y="45"/>
      <point x="28" y="10"/>
      <point x="24" y="-6"/>
      <point x="42" y="-4"/>
      <point x="110" y="1"/>
      <point x="158" y="2" type="qcurve" smooth="yes"/>
      <point x="205" y="3"/>
      <point x="268" y="-6"/>
      <point x="286" y="-4"/>
      <point x="280" y="10"/>
      <point x="254" y="38"/>
      <point x="216" y="82"/>
      <point x="216" y="92"/>
      <point x="211" y="152"/>
      <point x="214" y="217"/>
      <point x="216" y="227"/>
      <point x="225" y="223"/>
      <point x="310" y="126"/>
      <point x="390" y="19"/>
      <point x="398" y="-3"/>
      <point x="424" y="-5"/>
      <point x="490" y="2"/>
      <point x="560" y="-4"/>
      <point x="573" y="0"/>
      <point x="574" y="13"/>
      <point x="496" y="72"/>
      <point x="414" y="163"/>
      <point x="316" y="274"/>
      <point x="306" y="290"/>
      <point x="315" y="300"/>
      <point x="378" y="362"/>
      <point x="450" y="426"/>
      <point x="540" y="474"/>
      <point x="550" y="486"/>
      <point x="538" y="496"/>
      <point x="468" y="490"/>
      <point x="446" y="490" type="qcurve" smooth="yes"/>
      <point x="430" y="490"/>
      <point x="355" y="494"/>
      <point x="339" y="490"/>
      <point x="340" y="474"/>
      <point x="362" y="451"/>
      <point x="374" y="426"/>
      <point x="379" y="415"/>
      <point x="373" y="404"/>
      <point x="292" y="319"/>
      <point x="230" y="258"/>
      <point x="220" y="252"/>
      <point x="212" y="264"/>
      <point x="208" y="518"/>
      <point x="218" y="692"/>
    </contour>
  </outline>
</glyph>
<glyph name="l" format="1">
  <advance width="308"/>
  <unicode hex="006C"/>
  <outline>
    <contour>
      <point x="154" y="0" type="qcurve" smooth="yes"/>
      <point x="266" y="0"/>
      <point x="275" y="15"/>
      <point x="251" y="40"/>
      <point x="214" y="86"/>
      <point x="211" y="360"/>
      <point x="214" y="688"/>
      <point x="210" y="708"/>
      <point x="185" y="700"/>
      <point x="128" y="683" type="qcurve" smooth="yes"/>
      <point x="65" y="664"/>
      <point x="37" y="655"/>
      <point x="38" y="641"/>
      <point x="63" y="614"/>
      <point x="94" y="577"/>
      <point x="94" y="540"/>
      <point x="58" y="526"/>
      <point x="37" y="520"/>
      <point x="37" y="504"/>
      <point x="63" y="477"/>
      <point x="90" y="445"/>
      <point x="94" y="427"/>
      <point x="98" y="286"/>
      <point x="94" y="86"/>
      <point x="60" y="43"/>
      <point x="35" y="15"/>
      <point x="47" y="0"/>
    </contour>
  </outline>
</glyph>
<glyph name="m" format="1">
  <advance width="914"/>
  <unicode hex="006D"/>
  <outline>
    <contour>
      <point x="212" y="464"/>
      <point x="215" y="489"/>
      <point x="211" y="500"/>
      <point x="193" y="496"/>
      <point x="128" y="466"/>
      <point x="42" y="443"/>
      <point x="27" y="437"/>
      <point x="27" y="427"/>
      <point x="58" y="400"/>
      <point x="88" y="364"/>
      <point x="94" y="352"/>
      <point x="94" y="337"/>
      <point x="99" y="228"/>
      <point x="96" y="96"/>
      <point x="91" y="83"/>
      <point x="68" y="50"/>
      <point x="21" y="10"/>
      <point x="20" y="-4"/>
      <point x="39" y="-4"/>
      <point x="107" y="4"/>
      <point x="152" y="4" type="qcurve" smooth="yes"/>
      <point x="200" y="4"/>
      <point x="268" y="-1"/>
      <point x="287" y="-2"/>
      <point x="287" y="12"/>
      <point x="247" y="42"/>
      <point x="217" y="81"/>
      <point x="213" y="93"/>
      <point x="208" y="230"/>
      <point x="212" y="380"/>
      <point x="216" y="393"/>
      <point x="275" y="434"/>
      <point x="336" y="434"/>
      <point x="387" y="404"/>
      <point x="396" y="336"/>
      <point x="400" y="224"/>
      <point x="396" y="90"/>
      <point x="394" y="80"/>
      <point x="370" y="50"/>
      <point x="328" y="11"/>
      <point x="328" y="-3"/>
      <point x="346" y="-3"/>
      <point x="452" y="5"/>
      <point x="574" y="-5"/>
      <point x="593" y="-4"/>
      <point x="591" y="12"/>
      <point x="551" y="43"/>
      <point x="520" y="82"/>
      <point x="514" y="93"/>
      <point x="512" y="248"/>
      <point x="514" y="365"/>
      <point x="520" y="388"/>
      <point x="573" y="434"/>
      <point x="661" y="434"/>
      <point x="695" y="384"/>
      <point x="700" y="343"/>
      <point x="704" y="226"/>
      <point x="702" y="96"/>
      <point x="695" y="81"/>
      <point x="674" y="50"/>
      <point x="626" y="11"/>
      <point x="627" y="-4"/>
      <point x="646" y="-4"/>
      <point x="764" y="5"/>
      <point x="869" y="-5"/>
      <point x="894" y="-5"/>
      <point x="893" y="10"/>
      <point x="856" y="38"/>
      <point x="823" y="81"/>
      <point x="819" y="89"/>
      <point x="817" y="216"/>
      <point x="823" y="394"/>
      <point x="760" y="502"/>
      <point x="670" y="502" type="qcurve" smooth="yes"/>
      <point x="608" y="502"/>
      <point x="522" y="438"/>
      <point x="505" y="419"/>
      <point x="494" y="441"/>
      <point x="436" y="502"/>
      <point x="311" y="502"/>
      <point x="237" y="449"/>
      <point x="224" y="436"/>
      <point x="213" y="444"/>
    </contour>
  </outline>
</glyph>
<glyph name="n" format="1">
  <advance width="627"/>
  <unicode hex="006E"/>
  <outline>
    <contour>
      <point x="586" y="-5"/>
      <point x="607" y="-4"/>
      <point x="605" y="11"/>
      <point x="562" y="49"/>
      <point x="535" y="82"/>
      <point x="531" y="95"/>
      <point x="531" y="294"/>
      <point x="534" y="381"/>
      <point x="474" y="502"/>
      <point x="381" y="502" type="qcurve" smooth="yes"/>
      <point x="329" y="502"/>
      <point x="267" y="465"/>
      <point x="231" y="429"/>
      <point x="218" y="418"/>
      <point x="214" y="431"/>
      <point x="213" y="457"/>
      <point x="215" y="484"/>
      <point x="215" y="498"/>
      <point x="200" y="497"/>
      <point x="131" y="466"/>
      <point x="40" y="442"/>
      <point x="25" y="433"/>
      <point x="35" y="420"/>
      <point x="69" y="391"/>
      <point x="92" y="360"/>
      <point x="98" y="346"/>
      <point x="101" y="263"/>
      <point x="98" y="93"/>
      <point x="92" y="82"/>
      <point x="65" y="46"/>
      <point x="22" y="8"/>
      <point x="22" y="-3"/>
      <point x="40" y="-4"/>
      <point x="105" y="2"/>
      <point x="160" y="2" type="qcurve" smooth="yes"/>
      <point x="204" y="2"/>
      <point x="271" y="-5"/>
      <point x="289" y="-5"/>
      <point x="289" y="7"/>
      <point x="251" y="38"/>
      <point x="222" y="80"/>
      <point x="216" y="94"/>
      <point x="212" y="235"/>
      <point x="216" y="360"/>
      <point x="216" y="378"/>
      <point x="231" y="396"/>
      <point x="284" y="434"/>
      <point x="334" y="435"/>
      <point x="392" y="418"/>
      <point x="413" y="336"/>
      <point x="416" y="212"/>
      <point x="412" y="93"/>
      <point x="408" y="79"/>
      <point x="388" y="50"/>
      <point x="342" y="9"/>
      <point x="343" y="-4"/>
      <point x="366" y="-5"/>
      <point x="472" y="4"/>
    </contour>
  </outline>
</glyph>
<glyph name="o" format="1">
  <advance width="557"/>
  <unicode hex="006F"/>
  <outline>
    <contour>
      <point x="247" y="-12" type="qcurve" smooth="yes"/>
      <point x="376" y="-12"/>
      <point x="520" y="159"/>
      <point x="520" y="358"/>
      <point x="415" y="502"/>
      <point x="303" y="502" type="qcurve" smooth="yes"/>
      <point x="174" y="502"/>
      <point x="30" y="334"/>
      <point x="30" y="121"/>
      <point x="149" y="-12"/>
    </contour>
    <contour>
      <point x="302" y="26" type="qcurve" smooth="yes"/>
      <point x="237" y="26"/>
      <point x="157" y="196"/>
      <point x="157" y="400"/>
      <point x="213" y="464"/>
      <point x="249" y="464" type="qcurve" smooth="yes"/>
      <point x="321" y="464"/>
      <point x="395" y="273"/>
      <point x="395" y="95"/>
      <point x="336" y="26"/>
    </contour>
  </outline>
</glyph>
<glyph name="p" format="1">
  <advance width="604"/>
  <unicode hex="0070"/>
  <outline>
    <contour>
      <point x="218" y="500"/>
      <point x="214" y="514"/>
      <point x="196" y="510"/>
      <point x="134" y="476"/>
      <point x="47" y="464"/>
      <point x="29" y="457"/>
      <point x="39" y="437"/>
      <point x="70" y="418"/>
      <point x="96" y="384"/>
      <point x="100" y="368"/>
      <point x="98" y="160"/>
      <point x="94" y="-119"/>
      <point x="90" y="-133"/>
      <point x="68" y="-164"/>
      <point x="22" y="-206"/>
      <point x="22" y="-220"/>
      <point x="46" y="-220"/>
      <point x="107" y="-212"/>
      <point x="152" y="-212" type="qcurve" smooth="yes"/>
      <point x="187" y="-212"/>
      <point x="279" y="-220"/>
      <point x="305" y="-220"/>
      <point x="305" y="-203"/>
      <point x="248" y="-168"/>
      <point x="218" y="-132"/>
      <point x="214" y="-122"/>
      <point x="211" y="-58"/>
      <point x="212" y="-7"/>
      <point x="223" y="2"/>
      <point x="290" y="-11"/>
      <point x="339" y="-12"/>
      <point x="442" y="13"/>
      <point x="567" y="156"/>
      <point x="567" y="355"/>
      <point x="463" y="500"/>
      <point x="367" y="500" type="qcurve" smooth="yes"/>
      <point x="316" y="500"/>
      <point x="245" y="460"/>
      <point x="224" y="435"/>
      <point x="214" y="432"/>
      <point x="212" y="445"/>
      <point x="214" y="464"/>
    </contour>
    <contour>
      <point x="212" y="394"/>
      <point x="222" y="402"/>
      <point x="280" y="426"/>
      <point x="342" y="424"/>
      <point x="450" y="319"/>
      <point x="449" y="174" type="qcurve" smooth="yes"/>
      <point x="449" y="111"/>
      <point x="400" y="35"/>
      <point x="308" y="35"/>
      <point x="222" y="92"/>
      <point x="214" y="115"/>
      <point x="212" y="220"/>
      <point x="212" y="254" type="qcurve" smooth="yes"/>
      <point x="212" y="274"/>
    </contour>
  </outline>
</glyph>
<glyph name="q" format="1">
  <advance width="557"/>
  <unicode hex="0071"/>
  <outline>
    <contour>
      <point x="428" y="-214" type="qcurve" smooth="yes"/>
      <point x="471" y="-214"/>
      <point x="542" y="-222"/>
      <point x="568" y="-221"/>
      <point x="567" y="-208"/>
      <point x="528" y="-172"/>
      <point x="502" y="-136"/>
      <point x="498" y="-122"/>
      <point x="494" y="210"/>
      <point x="503" y="480"/>
      <point x="499" y="498"/>
      <point x="479" y="497"/>
      <point x="451" y="484"/>
      <point x="411" y="479"/>
      <point x="349" y="490"/>
      <point x="294" y="490" type="qcurve" smooth="yes"/>
      <point x="174" y="490"/>
      <point x="31" y="338"/>
      <point x="33" y="108"/>
      <point x="152" y="-9"/>
      <point x="261" y="-9"/>
      <point x="326" y="24"/>
      <point x="364" y="74"/>
      <point x="373" y="83"/>
      <point x="381" y="74"/>
      <point x="382" y="-28"/>
      <point x="382" y="-122"/>
      <point x="378" y="-134"/>
      <point x="352" y="-162"/>
      <point x="290" y="-206"/>
      <point x="290" y="-221"/>
      <point x="313" y="-221"/>
      <point x="382" y="-214"/>
    </contour>
    <contour>
      <point x="303" y="100" type="qcurve" smooth="yes"/>
      <point x="292" y="100"/>
      <point x="283" y="120"/>
      <point x="171" y="134"/>
      <point x="149" y="245"/>
      <point x="149" y="331"/>
      <point x="179" y="371"/>
      <point x="188" y="401"/>
      <point x="172" y="439"/>
      <point x="221" y="455"/>
      <point x="255" y="455" type="qcurve" smooth="yes"/>
      <point x="305" y="455"/>
      <point x="369" y="402"/>
      <point x="378" y="388"/>
      <point x="380" y="376"/>
      <point x="381" y="270"/>
      <point x="380" y="142"/>
      <point x="378" y="124"/>
      <point x="368" y="116"/>
      <point x="328" y="100"/>
    </contour>
  </outline>
</glyph>
<glyph name="r" format="1">
  <advance width="460"/>
  <unicode hex="0072"/>
  <outline>
    <contour>
      <point x="445" y="313" type="line"/>
      <point x="445" y="490" type="line"/>
      <point x="31" y="490" type="line"/>
      <point x="99" y="413" type="line"/>
      <point x="99" y="86" type="line"/>
      <point x="25" y="0" type="line"/>
      <point x="312" y="0" type="line"/>
      <point x="219" y="86" type="line"/>
      <point x="219" y="301" type="line" smooth="yes"/>
      <point x="219" y="403"/>
      <point x="219" y="453"/>
      <point x="288" y="453" type="curve" smooth="yes"/>
      <point x="334" y="453"/>
      <point x="393" y="418"/>
      <point x="437" y="313" type="curve"/>
    </contour>
  </outline>
</glyph>
<glyph name="t" format="1">
  <advance width="420"/>
  <unicode hex="0074"/>
  <outline>
    <contour>
      <point x="196" y="632" type="line"/>
      <point x="10" y="490" type="line"/>
      <point x="76" y="427" type="line"/>
      <point x="76" y="142" type="line" smooth="yes"/>
      <point x="76" y="28"/>
      <point x="135" y="-12"/>
      <point x="204" y="-12" type="curve" smooth="yes"/>
      <point x="285" y="-12"/>
      <point x="339" y="29"/>
      <point x="387" y="110" type="curve"/>
      <point x="375" y="126" type="line"/>
      <point x="353" y="83"/>
      <point x="307" y="68"/>
      <point x="277" y="68" type="curve" smooth="yes"/>
      <point x="218" y="68"/>
      <point x="196" y="94"/>
      <point x="196" y="190" type="curve" smooth="yes"/>
      <point x="196" y="436" type="line"/>
      <point x="366" y="436" type="line"/>
      <point x="388" y="490" type="line"/>
      <point x="196" y="490" type="line"/>
    </contour>
  </outline>
</glyph>
<glyph name="u" format="1">
  <advance width="591"/>
  <unicode hex="0075"/>
  <outline>
    <contour>
      <point x="230" y="-10" type="qcurve" smooth="yes"/>
      <point x="280" y="-10"/>
      <point x="346" y="29"/>
      <point x="372" y="58"/>
      <point x="382" y="56"/>
      <point x="385" y="43"/>
      <point x="382" y="1"/>
      <point x="391" y="-9"/>
      <point x="472" y="0"/>
      <point x="552" y="-2"/>
      <point x="560" y="12"/>
      <point x="527" y="48"/>
      <point x="503" y="82"/>
      <point x="500" y="277"/>
      <point x="501" y="449"/>
      <point x="503" y="480"/>
      <point x="492" y="493"/>
      <point x="427" y="488"/>
      <point x="349" y="490"/>
      <point x="322" y="491"/>
      <point x="323" y="474"/>
      <point x="350" y="444"/>
      <point x="383" y="403"/>
      <point x="387" y="289"/>
      <point x="386" y="159"/>
      <point x="379" y="104"/>
      <point x="314" y="58"/>
      <point x="288" y="58" type="qcurve" smooth="yes"/>
      <point x="234" y="58"/>
      <point x="201" y="119"/>
      <point x="198" y="311"/>
      <point x="198" y="449"/>
      <point x="199" y="476"/>
      <point x="187" y="492"/>
      <point x="119" y="486"/>
      <point x="49" y="491"/>
      <point x="20" y="492"/>
      <point x="19" y="472"/>
      <point x="50" y="442"/>
      <point x="80" y="407"/>
      <point x="84" y="259"/>
      <point x="75" y="88"/>
      <point x="156" y="-10"/>
    </contour>
  </outline>
</glyph>
<glyph name="v" format="1">
  <advance width="543"/>
  <unicode hex="0076"/>
  <outline>
    <contour>
      <point x="361" y="490" type="line"/>
      <point x="434" y="426" type="line"/>
      <point x="313" y="134" type="line"/>
      <point x="301" y="168" type="line"/>
      <point x="196" y="426" type="line"/>
      <point x="269" y="490" type="line"/>
      <point x="5" y="490" type="line"/>
      <point x="61" y="427" type="line"/>
      <point x="261" y="-22" type="line"/>
      <point x="281" y="-22" type="line"/>
      <point x="285" y="-14" type="line"/>
      <point x="482" y="427" type="line"/>
      <point x="538" y="490" type="line"/>
    </contour>
  </outline>
</glyph>
<glyph name="w" format="1">
  <advance width="823"/>
  <unicode hex="0077"/>
  <outline>
    <contour>
      <point x="66" y="409" type="line"/>
      <point x="256" y="-22" type="line"/>
      <point x="278" y="-22" type="line"/>
      <point x="420" y="300" type="line"/>
      <point x="562" y="-22" type="line"/>
      <point x="584" y="-22" type="line"/>
      <point x="769" y="428" type="line"/>
      <point x="828" y="490" type="line"/>
      <point x="650" y="490" type="line"/>
      <point x="722" y="426" type="line"/>
      <point x="614" y="146" type="line"/>
      <point x="602" y="168" type="line"/>
      <point x="498" y="426" type="line"/>
      <point x="570" y="490" type="line"/>
      <point x="306" y="490" type="line"/>
      <point x="372" y="409" type="line"/>
      <point x="398" y="349" type="line"/>
      <point x="309" y="134" type="line"/>
      <point x="297" y="168" type="line"/>
      <point x="192" y="426" type="line"/>
      <point x="265" y="490" type="line"/>
      <point x="0" y="490" type="line"/>
    </contour>
  </outline>
</glyph>
<glyph name="x" format="1">
  <advance width="584"/>
  <unicode hex="0078"/>
  <outline>
    <contour>
      <point x="584" y="0" type="line"/>
      <point x="500" y="65" type="line"/>
      <point x="340" y="275" type="line"/>
      <point x="467" y="427" type="line"/>
      <point x="556" y="490" type="line"/>
      <point x="346" y="490" type="line"/>
      <point x="401" y="426" type="line"/>
      <point x="312" y="312" type="line"/>
      <point x="225" y="426" type="line"/>
      <point x="289" y="490" type="line"/>
      <point x="16" y="490" type="line"/>
      <point x="89" y="427" type="line"/>
      <point x="235" y="235" type="line"/>
      <point x="94" y="63" type="line"/>
      <point x="5" y="0" type="line"/>
      <point x="214" y="0" type="line"/>
      <point x="159" y="64" type="line"/>
      <point x="265" y="195" type="line"/>
      <point x="363" y="66" type="line"/>
      <point x="299" y="0" type="line"/>
    </contour>
  </outline>
</glyph>
<glyph name="z" format="1">
  <advance width="506"/>
  <unicode hex="007A"/>
  <outline>
    <contour>
      <point x="469" y="15" type="line"/>
      <point x="486" y="207" type="line"/>
      <point x="480" y="209" type="line"/>
      <point x="363" y="36" type="line"/>
      <point x="182" y="36" type="line"/>
      <point x="483" y="490" type="line"/>
      <point x="147" y="490" type="line"/>
      <point x="61" y="508" type="line"/>
      <point x="61" y="304" type="line"/>
      <point x="67" y="304" type="line"/>
      <point x="166" y="454" type="line"/>
      <point x="321" y="454" type="line"/>
      <point x="20" y="0" type="line"/>
      <point x="469" y="0" type="line"/>
    </contour>
  </outline>
</glyph>
<glyph name="braceleft" format="1">
  <advance width="296"/>
  <unicode hex="007B"/>
  <outline>
    <contour>
      <point x="51" y="284" type="line"/>
      <point x="70" y="297"/>
      <point x="180" y="329"/>
      <point x="180" y="449" type="curve" smooth="yes"/>
      <point x="180" y="500"/>
      <point x="171" y="513"/>
      <point x="171" y="580" type="curve" smooth="yes"/>
      <point x="171" y="660"/>
      <point x="189" y="695"/>
      <point x="245" y="695" type="curve"/>
      <point x="243" y="726" type="line"/>
      <point x="143" y="726"/>
      <point x="83" y="685"/>
      <point x="83" y="568" type="curve" smooth="yes"/>
      <point x="83" y="526"/>
      <point x="95" y="472"/>
      <point x="95" y="424" type="curve" smooth="yes"/>
      <point x="95" y="365"/>
      <point x="72" y="331"/>
      <point x="53" y="316" type="curve" smooth="yes"/>
      <point x="40" y="306"/>
      <point x="32" y="303"/>
      <point x="11" y="297" type="curve"/>
      <point x="11" y="267" type="line"/>
      <point x="32" y="261"/>
      <point x="40" y="258"/>
      <point x="53" y="248" type="curve" smooth="yes"/>
      <point x="72" y="233"/>
      <point x="95" y="199"/>
      <point x="95" y="140" type="curve" smooth="yes"/>
      <point x="95" y="92"/>
      <point x="83" y="38"/>
      <point x="83" y="-4" type="curve" smooth="yes"/>
      <point x="83" y="-121"/>
      <point x="143" y="-162"/>
      <point x="243" y="-162" type="curve"/>
      <point x="245" y="-131" type="line"/>
      <point x="189" y="-131"/>
      <point x="171" y="-96"/>
      <point x="171" y="-16" type="curve" smooth="yes"/>
      <point x="171" y="51"/>
      <point x="180" y="64"/>
      <point x="180" y="115" type="curve" smooth="yes"/>
      <point x="180" y="235"/>
      <point x="70" y="267"/>
      <point x="51" y="280" type="curve"/>
    </contour>
  </outline>
</glyph>
<glyph name="bar" format="1">
  <advance width="323"/>
  <unicode hex="007C"/>
  <outline>
    <contour>
      <point x="188" y="-150" type="line"/>
      <point x="188" y="700" type="line"/>
      <point x="99" y="700" type="line"/>
      <point x="99" y="-150" type="line"/>
    </contour>
  </outline>
</glyph>
<glyph name="braceright" format="1">
  <advance width="296"/>
  <unicode hex="007D"/>
  <outline>
    <contour>
      <point x="213" y="280" type="line"/>
      <point x="194" y="267"/>
      <point x="84" y="235"/>
      <point x="84" y="115" type="curve" smooth="yes"/>
      <point x="84" y="64"/>
      <point x="93" y="51"/>
      <point x="93" y="-16" type="curve" smooth="yes"/>
      <point x="93" y="-96"/>
      <point x="75" y="-131"/>
      <point x="19" y="-131" type="curve"/>
      <point x="21" y="-162" type="line"/>
      <point x="121" y="-162"/>
      <point x="181" y="-121"/>
      <point x="181" y="-4" type="curve" smooth="yes"/>
      <point x="181" y="38"/>
      <point x="169" y="92"/>
      <point x="169" y="140" type="curve" smooth="yes"/>
      <point x="169" y="199"/>
      <point x="192" y="233"/>
      <point x="211" y="248" type="curve" smooth="yes"/>
      <point x="224" y="258"/>
      <point x="232" y="261"/>
      <point x="253" y="267" type="curve"/>
      <point x="253" y="297" type="line"/>
      <point x="232" y="303"/>
      <point x="224" y="306"/>
      <point x="211" y="316" type="curve" smooth="yes"/>
      <point x="192" y="331"/>
      <point x="169" y="365"/>
      <point x="169" y="424" type="curve" smooth="yes"/>
      <point x="169" y="472"/>
      <point x="181" y="526"/>
      <point x="181" y="568" type="curve" smooth="yes"/>
      <point x="181" y="685"/>
      <point x="121" y="726"/>
      <point x="21" y="726" type="curve"/>
      <point x="19" y="695" type="line"/>
      <point x="75" y="695"/>
      <point x="93" y="660"/>
      <point x="93" y="580" type="curve" smooth="yes"/>
      <point x="93" y="513"/>
      <point x="84" y="500"/>
      <point x="84" y="449" type="curve" smooth="yes"/>
      <point x="84" y="329"/>
      <point x="194" y="297"/>
      <point x="213" y="284" type="curve"/>
    </contour>
  </outline>
</glyph>
<glyph name="asciitilde" format="1">
  <advance width="399"/>
  <unicode hex="007E"/>
  <outline>
    <contour>
      <point x="320" y="552" type="line"/>
      <point x="110" y="565" type="line"/>
      <point x="47" y="456" type="line"/>
      <point x="61" y="447" type="line"/>
      <point x="101" y="490" type="line"/>
      <point x="320" y="477" type="line"/>
      <point x="379" y="580" type="line"/>
      <point x="364" y="586" type="line"/>
    </contour>
  </outline>
</glyph>
<glyph name="exclamdown" format="1">
  <advance width="217"/>
  <unicode hex="00A1"/>
  <outline>
    <contour>
      <point x="194" y="411" type="line"/>
      <point x="108" y="503" type="line"/>
      <point x="23" y="411" type="line"/>
      <point x="108" y="318" type="line"/>
    </contour>
    <contour>
      <point x="47" y="-180" type="line"/>
      <point x="113" y="-226" type="line"/>
      <point x="180" y="-180" type="line"/>
      <point x="131" y="257" type="line"/>
      <point x="95" y="257" type="line"/>
    </contour>
  </outline>
</glyph>
<glyph name="cent" format="1">
  <advance width="448"/>
  <unicode hex="00A2"/>
  <outline>
    <contour>
      <point x="409" y="414" type="line"/>
      <point x="409" y="550" type="line"/>
      <point x="304" y="550" type="line"/>
      <point x="317" y="649" type="line"/>
      <point x="255" y="649" type="line"/>
      <point x="245" y="547" type="line"/>
      <point x="87" y="526"/>
      <point x="25" y="387"/>
      <point x="25" y="285" type="curve" smooth="yes"/>
      <point x="25" y="172"/>
      <point x="82" y="61"/>
      <point x="199" y="49" type="curve"/>
      <point x="189" y="-58" type="line"/>
      <point x="225" y="-58" type="line"/>
      <point x="239" y="49" type="line"/>
      <point x="351" y="61"/>
      <point x="413" y="176"/>
      <point x="433" y="253" type="curve"/>
      <point x="422" y="257" type="line"/>
      <point x="410" y="222"/>
      <point x="358" y="167"/>
      <point x="289" y="167" type="curve" smooth="yes"/>
      <point x="277" y="167"/>
      <point x="266" y="168"/>
      <point x="255" y="171" type="curve"/>
      <point x="298" y="506" type="line"/>
      <point x="347" y="489"/>
      <point x="382" y="448"/>
      <point x="404" y="414" type="curve"/>
    </contour>
    <contour>
      <point x="212" y="189" type="line"/>
      <point x="170" y="217"/>
      <point x="140" y="275"/>
      <point x="140" y="376" type="curve" smooth="yes"/>
      <point x="140" y="444"/>
      <point x="164" y="511"/>
      <point x="242" y="515" type="curve"/>
    </contour>
  </outline>
</glyph>
<glyph name="sterling" format="1">
  <advance width="557"/>
  <unicode hex="00A3"/>
  <outline>
    <contour>
      <point x="494" y="0" type="line"/>
      <point x="510" y="148" type="line"/>
      <point x="504" y="148" type="line"/>
      <point x="419" y="63" type="line"/>
      <point x="131" y="48" type="line"/>
      <point x="131" y="50" type="line"/>
      <point x="213" y="108"/>
      <point x="275" y="155"/>
      <point x="277" y="312" type="curve"/>
      <point x="419" y="315" type="line"/>
      <point x="419" y="358" type="line"/>
      <point x="269" y="358" type="line"/>
      <point x="258" y="382"/>
      <point x="235" y="423"/>
      <point x="235" y="479" type="curve" smooth="yes"/>
      <point x="235" y="523"/>
      <point x="253" y="560"/>
      <point x="312" y="560" type="curve" smooth="yes"/>
      <point x="386" y="560"/>
      <point x="438" y="503"/>
      <point x="467" y="459" type="curve"/>
      <point x="471" y="459" type="line"/>
      <point x="471" y="595" type="line"/>
      <point x="351" y="595" type="line" smooth="yes"/>
      <point x="199" y="595"/>
      <point x="138" y="442"/>
      <point x="133" y="356" type="curve"/>
      <point x="50" y="356" type="line"/>
      <point x="50" y="308" type="line"/>
      <point x="133" y="310" type="line"/>
      <point x="133" y="280" type="line" smooth="yes"/>
      <point x="133" y="58"/>
      <point x="77" y="46"/>
      <point x="52" y="44" type="curve"/>
      <point x="49" y="44" type="line"/>
      <point x="8" y="0" type="line"/>
    </contour>
  </outline>
</glyph>
<glyph name="currency" format="1">
  <advance width="466"/>
  <unicode hex="00A4"/>
  <outline>
    <contour>
      <point x="80" y="490" type="line"/>
      <point x="50" y="458" type="line"/>
      <point x="114" y="397" type="line"/>
      <point x="96" y="373"/>
      <point x="85" y="342"/>
      <point x="85" y="309" type="curve" smooth="yes"/>
      <point x="85" y="275"/>
      <point x="96" y="244"/>
      <point x="115" y="219" type="curve"/>
      <point x="50" y="157" type="line"/>
      <point x="80" y="125" type="line"/>
      <point x="146" y="188" type="line"/>
      <point x="171" y="171"/>
      <point x="201" y="161"/>
      <point x="233" y="161" type="curve" smooth="yes"/>
      <point x="265" y="161"/>
      <point x="294" y="170"/>
      <point x="318" y="187" type="curve"/>
      <point x="383" y="125" type="line"/>
      <point x="413" y="157" type="line"/>
      <point x="350" y="217" type="line"/>
      <point x="369" y="242"/>
      <point x="381" y="274"/>
      <point x="381" y="309" type="curve" smooth="yes"/>
      <point x="381" y="343"/>
      <point x="370" y="374"/>
      <point x="351" y="399" type="curve"/>
      <point x="413" y="458" type="line"/>
      <point x="383" y="490" type="line"/>
      <point x="319" y="429" type="line"/>
      <point x="295" y="446"/>
      <point x="265" y="457"/>
      <point x="233" y="457" type="curve" smooth="yes"/>
      <point x="200" y="457"/>
      <point x="170" y="446"/>
      <point x="145" y="428" type="curve"/>
    </contour>
    <contour>
      <point x="127" y="309" type="curve" smooth="yes"/>
      <point x="127" y="368"/>
      <point x="174" y="415"/>
      <point x="233" y="415" type="curve" smooth="yes"/>
      <point x="292" y="415"/>
      <point x="340" y="368"/>
      <point x="340" y="309" type="curve" smooth="yes"/>
      <point x="340" y="250"/>
      <point x="292" y="203"/>
      <point x="233" y="203" type="curve" smooth="yes"/>
      <point x="174" y="203"/>
      <point x="127" y="250"/>
    </contour>
  </outline>
</glyph>
<glyph name="yen" format="1">
  <advance width="729"/>
  <unicode hex="00A5"/>
  <outline>
    <contour>
      <point x="438" y="283" type="line"/>
      <point x="596" y="501" type="line"/>
      <point x="699" y="595" type="line"/>
      <point x="445" y="595" type="line"/>
      <point x="530" y="491" type="line"/>
      <point x="399" y="313" type="line"/>
      <point x="383" y="336" type="line"/>
      <point x="265" y="489" type="line"/>
      <point x="266" y="489" type="line"/>
      <point x="351" y="595" type="line"/>
      <point x="30" y="595" type="line"/>
      <point x="121" y="489" type="line"/>
      <point x="268" y="282" type="line"/>
      <point x="168" y="282" type="line"/>
      <point x="168" y="233" type="line"/>
      <point x="299" y="233" type="line"/>
      <point x="299" y="182" type="line"/>
      <point x="168" y="182" type="line"/>
      <point x="168" y="133" type="line"/>
      <point x="299" y="133" type="line"/>
      <point x="299" y="101" type="line"/>
      <point x="215" y="0" type="line"/>
      <point x="513" y="0" type="line"/>
      <point x="429" y="101" type="line"/>
      <point x="429" y="133" type="line"/>
      <point x="555" y="133" type="line"/>
      <point x="555" y="183" type="line"/>
      <point x="429" y="183" type="line"/>
      <point x="429" y="233" type="line"/>
      <point x="555" y="233" type="line"/>
      <point x="555" y="283" type="line"/>
    </contour>
  </outline>
</glyph>
<glyph name="brokenbar" format="1">
  <advance width="287"/>
  <unicode hex="00A6"/>
  <outline>
    <contour>
      <point x="99" y="700" type="line"/>
      <point x="99" y="370" type="line"/>
      <point x="188" y="370" type="line"/>
      <point x="188" y="700" type="line"/>
    </contour>
    <contour>
      <point x="188" y="-150" type="line"/>
      <point x="188" y="180" type="line"/>
      <point x="99" y="180" type="line"/>
      <point x="99" y="-150" type="line"/>
    </contour>
  </outline>
</glyph>
<glyph name="section" format="1">
  <advance width="600"/>
  <unicode hex="00A7"/>
  <outline>
    <contour>
      <point x="264" y="271" type="line"/>
      <point x="264" y="0" type="line"/>
      <point x="330" y="0" type="line"/>
      <point x="330" y="641" type="line"/>
      <point x="394" y="641" type="line"/>
      <point x="394" y="0" type="line"/>
      <point x="460" y="0" type="line"/>
      <point x="460" y="606" type="line"/>
      <point x="461" y="606" type="line"/>
      <point x="529" y="683" type="line"/>
      <point x="442" y="683" type="line"/>
      <point x="442" y="685" type="line"/>
      <point x="304" y="685" type="line"/>
      <point x="304" y="684" type="line"/>
      <point x="265" y="684" type="line"/>
      <point x="264" y="685" type="line"/>
      <point x="122" y="685"/>
      <point x="22" y="632"/>
      <point x="22" y="490" type="curve" smooth="yes"/>
      <point x="22" y="377"/>
      <point x="113" y="303"/>
      <point x="213" y="303" type="curve" smooth="yes"/>
      <point x="230" y="303"/>
      <point x="252" y="307"/>
      <point x="268" y="314" type="curve"/>
    </contour>
  </outline>
</glyph>
<glyph name="dieresis" format="1">
  <advance width="410"/>
  <unicode hex="00A8"/>
  <outline>
    <contour>
      <point x="35" y="625" type="line"/>
      <point x="103" y="548" type="line"/>
      <point x="170" y="625" type="line"/>
      <point x="103" y="701" type="line"/>
    </contour>
    <contour>
      <point x="240" y="625" type="line"/>
      <point x="308" y="548" type="line"/>
      <point x="375" y="625" type="line"/>
      <point x="308" y="701" type="line"/>
    </contour>
  </outline>
</glyph>
<glyph name="copyright" format="1">
  <advance width="730"/>
  <unicode hex="00A9"/>
  <outline>
    <contour>
      <point x="365" y="23" type="curve" smooth="yes"/>
      <point x="541" y="23"/>
      <point x="684" y="166"/>
      <point x="684" y="342" type="curve" smooth="yes"/>
      <point x="684" y="518"/>
      <point x="541" y="661"/>
      <point x="365" y="661" type="curve" smooth="yes"/>
      <point x="189" y="661"/>
      <point x="46" y="518"/>
      <point x="46" y="342" type="curve" smooth="yes"/>
      <point x="46" y="166"/>
      <point x="189" y="23"/>
    </contour>
    <contour>
      <point x="365" y="66" type="curve" smooth="yes"/>
      <point x="213" y="66"/>
      <point x="89" y="190"/>
      <point x="89" y="342" type="curve" smooth="yes"/>
      <point x="89" y="494"/>
      <point x="213" y="618"/>
      <point x="365" y="618" type="curve" smooth="yes"/>
      <point x="517" y="618"/>
      <point x="641" y="494"/>
      <point x="641" y="342" type="curve" smooth="yes"/>
      <point x="641" y="190"/>
      <point x="517" y="66"/>
    </contour>
    <contour>
      <point x="498" y="422" type="line"/>
      <point x="498" y="553" type="line"/>
      <point x="398" y="553" type="line" smooth="yes"/>
      <point x="246" y="553"/>
      <point x="168" y="444"/>
      <point x="168" y="334" type="curve" smooth="yes"/>
      <point x="168" y="219"/>
      <point x="240" y="132"/>
      <point x="356" y="132" type="curve" smooth="yes"/>
      <point x="455" y="132"/>
      <point x="513" y="209"/>
      <point x="532" y="263" type="curve"/>
      <point x="522" y="269" type="line"/>
      <point x="512" y="249"/>
      <point x="473" y="208"/>
      <point x="395" y="208" type="curve" smooth="yes"/>
      <point x="305" y="208"/>
      <point x="261" y="293"/>
      <point x="261" y="390" type="curve" smooth="yes"/>
      <point x="261" y="458"/>
      <point x="289" y="519"/>
      <point x="354" y="519" type="curve" smooth="yes"/>
      <point x="421" y="519"/>
      <point x="469" y="476"/>
      <point x="490" y="422" type="curve"/>
    </contour>
  </outline>
</glyph>
<glyph name="guillemotleft" format="1">
  <advance width="512"/>
  <unicode hex="00AB"/>
  <outline>
    <contour>
      <point x="68" y="246" type="line"/>
      <point x="290" y="457" type="line"/>
      <point x="280" y="474" type="line"/>
      <point x="12" y="246" type="line"/>
      <point x="280" y="18" type="line"/>
      <point x="290" y="28" type="line"/>
      <point x="178" y="246" type="line"/>
    </contour>
    <contour>
      <point x="289" y="246" type="line"/>
      <point x="511" y="457" type="line"/>
      <point x="501" y="474" type="line"/>
      <point x="233" y="246" type="line"/>
      <point x="501" y="18" type="line"/>
      <point x="511" y="28" type="line"/>
      <point x="399" y="246" type="line"/>
    </contour>
  </outline>
</glyph>
<glyph name="logicalnot" format="1">
  <advance width="558"/>
  <unicode hex="00AC"/>
  <outline>
    <contour>
      <point x="525" y="267" type="line"/>
      <point x="524" y="267" type="line"/>
      <point x="524" y="311" type="line"/>
      <point x="33" y="311" type="line"/>
      <point x="33" y="241" type="line"/>
      <point x="460" y="241" type="line"/>
      <point x="460" y="55" type="line"/>
      <point x="525" y="55" type="line"/>
    </contour>
  </outline>
</glyph>
<glyph name="softhyphen" format="1">
  <advance width="446"/>
  <unicode hex="00AD"/>
  <outline>
    <contour>
      <point x="440" y="241" type="line"/>
      <point x="440" y="311" type="line"/>
      <point x="6" y="311" type="line"/>
      <point x="6" y="241" type="line"/>
    </contour>
  </outline>
</glyph>
<glyph name="registered" format="1">
  <advance width="445"/>
  <unicode hex="00AE"/>
  <outline>
    <contour>
      <point x="222" y="414" type="curve" smooth="yes"/>
      <point x="335" y="414"/>
      <point x="425" y="504"/>
      <point x="425" y="616" type="curve" smooth="yes"/>
      <point x="425" y="728"/>
      <point x="335" y="818"/>
      <point x="222" y="818" type="curve" smooth="yes"/>
      <point x="111" y="818"/>
      <point x="20" y="728"/>
      <point x="20" y="616" type="curve" smooth="yes"/>
      <point x="20" y="504"/>
      <point x="111" y="414"/>
    </contour>
    <contour>
      <point x="222" y="441" type="curve" smooth="yes"/>
      <point x="126" y="441"/>
      <point x="47" y="520"/>
      <point x="47" y="616" type="curve" smooth="yes"/>
      <point x="47" y="713"/>
      <point x="126" y="791"/>
      <point x="222" y="791" type="curve" smooth="yes"/>
      <point x="319" y="791"/>
      <point x="397" y="713"/>
      <point x="397" y="616" type="curve" smooth="yes"/>
      <point x="397" y="520"/>
      <point x="319" y="441"/>
    </contour>
    <contour>
      <point x="265" y="502" type="line"/>
      <point x="334" y="502" type="line"/>
      <point x="298" y="535" type="line"/>
      <point x="253" y="617" type="line"/>
      <point x="282" y="627"/>
      <point x="307" y="647"/>
      <point x="307" y="675" type="curve" smooth="yes"/>
      <point x="307" y="731"/>
      <point x="229" y="736"/>
      <point x="204" y="736" type="curve" smooth="yes"/>
      <point x="122" y="736" type="line"/>
      <point x="147" y="699" type="line"/>
      <point x="147" y="538" type="line"/>
      <point x="122" y="502" type="line"/>
      <point x="218" y="502" type="line"/>
      <point x="192" y="538" type="line"/>
      <point x="192" y="606" type="line"/>
      <point x="208" y="608" type="line"/>
    </contour>
    <contour>
      <point x="192" y="725" type="line"/>
      <point x="229" y="725"/>
      <point x="256" y="711"/>
      <point x="256" y="670" type="curve" smooth="yes"/>
      <point x="256" y="637"/>
      <point x="225" y="619"/>
      <point x="192" y="618" type="curve"/>
    </contour>
  </outline>
</glyph>
<glyph name="macron" format="1">
  <advance width="328"/>
  <unicode hex="00AF"/>
  <outline>
    <contour>
      <point x="280" y="534" type="line"/>
      <point x="280" y="595" type="line"/>
      <point x="48" y="595" type="line"/>
      <point x="48" y="534" type="line"/>
    </contour>
  </outline>
</glyph>
<glyph name="degree" format="1">
  <advance width="256"/>
  <unicode hex="00B0"/>
  <outline>
    <contour>
      <point x="25" y="703" type="curve" smooth="yes"/>
      <point x="25" y="646"/>
      <point x="71" y="600"/>
      <point x="128" y="600" type="curve" smooth="yes"/>
      <point x="185" y="600"/>
      <point x="231" y="646"/>
      <point x="231" y="703" type="curve" smooth="yes"/>
      <point x="231" y="760"/>
      <point x="185" y="806"/>
      <point x="128" y="806" type="curve" smooth="yes"/>
      <point x="71" y="806"/>
      <point x="25" y="760"/>
    </contour>
    <contour>
      <point x="70" y="703" type="curve" smooth="yes"/>
      <point x="70" y="734"/>
      <point x="97" y="761"/>
      <point x="128" y="761" type="curve" smooth="yes"/>
      <point x="159" y="761"/>
      <point x="186" y="734"/>
      <point x="186" y="703" type="curve" smooth="yes"/>
      <point x="186" y="672"/>
      <point x="159" y="645"/>
      <point x="128" y="645" type="curve" smooth="yes"/>
      <point x="97" y="645"/>
      <point x="70" y="672"/>
    </contour>
  </outline>
</glyph>
<glyph name="plusminus" format="1">
  <advance width="518"/>
  <unicode hex="00B1"/>
  <outline>
    <contour>
      <point x="478" y="95" type="line"/>
      <point x="294" y="95" type="line"/>
      <point x="294" y="238" type="line"/>
      <point x="473" y="238" type="line"/>
      <point x="473" y="310" type="line"/>
      <point x="294" y="310" type="line"/>
      <point x="294" y="513" type="line"/>
      <point x="215" y="483" type="line"/>
      <point x="215" y="310" type="line"/>
      <point x="45" y="310" type="line"/>
      <point x="45" y="238" type="line"/>
      <point x="215" y="238" type="line"/>
      <point x="215" y="95" type="line"/>
      <point x="40" y="95" type="line"/>
      <point x="40" y="25" type="line"/>
      <point x="478" y="25" type="line"/>
    </contour>
  </outline>
</glyph>
<glyph name="twosuperior" format="1">
  <advance width="355"/>
  <unicode hex="00B2"/>
  <outline>
    <contour>
      <point x="31" y="432" type="line"/>
      <point x="329" y="432" type="line"/>
      <point x="344" y="585" type="line"/>
      <point x="341" y="585" type="line"/>
      <point x="300" y="508" type="line"/>
      <point x="157" y="506" type="line"/>
      <point x="123" y="503" type="line"/>
      <point x="121" y="506" type="line"/>
      <point x="182" y="570"/>
      <point x="314" y="622"/>
      <point x="314" y="712" type="curve" smooth="yes"/>
      <point x="314" y="779"/>
      <point x="224" y="810"/>
      <point x="130" y="810" type="curve" smooth="yes"/>
      <point x="35" y="810" type="line"/>
      <point x="35" y="700" type="line"/>
      <point x="38" y="700" type="line"/>
      <point x="62" y="757"/>
      <point x="90" y="790"/>
      <point x="141" y="790" type="curve" smooth="yes"/>
      <point x="189" y="790"/>
      <point x="218" y="764"/>
      <point x="218" y="724" type="curve" smooth="yes"/>
      <point x="218" y="608"/>
      <point x="84" y="495"/>
      <point x="25" y="453" type="curve"/>
    </contour>
  </outline>
</glyph>
<glyph name="threesuperior" format="1">
  <advance width="355"/>
  <unicode hex="00B3"/>
  <outline>
    <contour>
      <point x="48" y="416" type="line"/>
      <point x="123" y="416"/>
      <point x="340" y="453"/>
      <point x="340" y="545" type="curve" smooth="yes"/>
      <point x="340" y="606"/>
      <point x="246" y="624"/>
      <point x="176" y="629" type="curve"/>
      <point x="282" y="657"/>
      <point x="334" y="686"/>
      <point x="334" y="728" type="curve" smooth="yes"/>
      <point x="334" y="786"/>
      <point x="254" y="805"/>
      <point x="162" y="805" type="curve" smooth="yes"/>
      <point x="52" y="805" type="line"/>
      <point x="52" y="697" type="line"/>
      <point x="56" y="697" type="line"/>
      <point x="77" y="742"/>
      <point x="100" y="785"/>
      <point x="152" y="785" type="curve" smooth="yes"/>
      <point x="204" y="785"/>
      <point x="238" y="760"/>
      <point x="238" y="719" type="curve" smooth="yes"/>
      <point x="238" y="665"/>
      <point x="155" y="640"/>
      <point x="110" y="625" type="curve" smooth="yes"/>
      <point x="86" y="618" type="line"/>
      <point x="88" y="607" type="line"/>
      <point x="96" y="608"/>
      <point x="103" y="610"/>
      <point x="110" y="611" type="curve"/>
      <point x="175" y="600"/>
      <point x="228" y="579"/>
      <point x="228" y="523" type="curve" smooth="yes"/>
      <point x="228" y="456"/>
      <point x="114" y="435"/>
      <point x="43" y="435" type="curve"/>
    </contour>
  </outline>
</glyph>
<glyph name="acute" format="1">
  <advance width="213"/>
  <unicode hex="00B4"/>
  <outline>
    <contour>
      <point x="54" y="552" type="line"/>
      <point x="183" y="681" type="line"/>
      <point x="57" y="681" type="line"/>
      <point x="39" y="552" type="line"/>
    </contour>
  </outline>
</glyph>
<glyph name="paragraph" format="1">
  <advance width="583"/>
  <unicode hex="00B6"/>
  <outline>
    <contour>
      <point x="264" y="273" type="line"/>
      <point x="264" y="-7" type="line" smooth="yes"/>
      <point x="264" y="-29"/>
      <point x="264" y="-63"/>
      <point x="247" y="-98" type="curve"/>
      <point x="250" y="-100" type="line"/>
      <point x="274" y="-95"/>
      <point x="330" y="-47"/>
      <point x="330" y="26" type="curve" smooth="yes"/>
      <point x="330" y="643" type="line"/>
      <point x="394" y="643" type="line"/>
      <point x="394" y="0" type="line"/>
      <point x="460" y="0" type="line"/>
      <point x="460" y="608" type="line"/>
      <point x="461" y="608" type="line"/>
      <point x="529" y="685" type="line"/>
      <point x="264" y="685" type="line" smooth="yes"/>
      <point x="122" y="686"/>
      <point x="22" y="634"/>
      <point x="22" y="492" type="curve" smooth="yes"/>
      <point x="22" y="379"/>
      <point x="113" y="305"/>
      <point x="213" y="305" type="curve" smooth="yes"/>
      <point x="230" y="305"/>
      <point x="252" y="309"/>
      <point x="268" y="316" type="curve"/>
    </contour>
  </outline>
</glyph>
<glyph name="periodcentered" format="1">
  <advance width="181"/>
  <unicode hex="00B7"/>
  <outline>
    <contour>
      <point x="5" y="263" type="line"/>
      <point x="91" y="171" type="line"/>
      <point x="176" y="263" type="line"/>
      <point x="91" y="356" type="line"/>
    </contour>
  </outline>
</glyph>
<glyph name="onesuperior" format="1">
  <advance width="329"/>
  <unicode hex="00B9"/>
  <outline>
    <contour>
      <point x="63" y="673" type="line"/>
      <point x="131" y="696" type="line"/>
      <point x="131" y="468" type="line"/>
      <point x="69" y="426" type="line"/>
      <point x="282" y="426" type="line"/>
      <point x="215" y="468" type="line"/>
      <point x="215" y="816" type="line"/>
      <point x="62" y="674" type="line"/>
    </contour>
  </outline>
</glyph>
<glyph name="guillemotright" format="1">
  <advance width="512"/>
  <unicode hex="00BB"/>
  <outline>
    <contour>
      <point x="229" y="246" type="line"/>
      <point x="7" y="35" type="line"/>
      <point x="17" y="18" type="line"/>
      <point x="285" y="246" type="line"/>
      <point x="17" y="474" type="line"/>
      <point x="7" y="464" type="line"/>
      <point x="119" y="246" type="line"/>
    </contour>
    <contour>
      <point x="450" y="246" type="line"/>
      <point x="228" y="35" type="line"/>
      <point x="238" y="18" type="line"/>
      <point x="506" y="246" type="line"/>
      <point x="238" y="474" type="line"/>
      <point x="228" y="464" type="line"/>
      <point x="340" y="246" type="line"/>
    </contour>
  </outline>
</glyph>
<glyph name="onequarter" format="1">
  <advance width="745"/>
  <unicode hex="00BC"/>
  <outline>
    <contour>
      <point x="652" y="719" type="line"/>
      <point x="604" y="719" type="line"/>
      <point x="153" y="-33" type="line"/>
      <point x="200" y="-33" type="line"/>
    </contour>
    <contour>
      <point x="63" y="544" type="line"/>
      <point x="131" y="567" type="line"/>
      <point x="131" y="339" type="line"/>
      <point x="69" y="297" type="line"/>
      <point x="282" y="297" type="line"/>
      <point x="215" y="339" type="line"/>
      <point x="215" y="687" type="line"/>
      <point x="62" y="545" type="line"/>
    </contour>
    <contour>
      <point x="641" y="123" type="line"/>
      <point x="641" y="288" type="line"/>
      <point x="556" y="175" type="line"/>
      <point x="556" y="124" type="line"/>
      <point x="457" y="124" type="line"/>
      <point x="657" y="379" type="line"/>
      <point x="555" y="379" type="line"/>
      <point x="385" y="95" type="line"/>
      <point x="557" y="95" type="line"/>
      <point x="557" y="42" type="line"/>
      <point x="495" y="0" type="line"/>
      <point x="708" y="0" type="line"/>
      <point x="641" y="42" type="line"/>
      <point x="641" y="94" type="line"/>
      <point x="732" y="94" type="line"/>
      <point x="732" y="123" type="line"/>
    </contour>
  </outline>
</glyph>
<glyph name="onehalf" format="1">
  <advance width="844"/>
  <unicode hex="00BD"/>
  <outline>
    <contour>
      <point x="611" y="719" type="line"/>
      <point x="563" y="719" type="line"/>
      <point x="112" y="-33" type="line"/>
      <point x="159" y="-33" type="line"/>
    </contour>
    <contour>
      <point x="63" y="544" type="line"/>
      <point x="131" y="567" type="line"/>
      <point x="131" y="339" type="line"/>
      <point x="69" y="297" type="line"/>
      <point x="282" y="297" type="line"/>
      <point x="215" y="339" type="line"/>
      <point x="215" y="687" type="line"/>
      <point x="62" y="545" type="line"/>
    </contour>
    <contour>
      <point x="469" y="0" type="line"/>
      <point x="767" y="0" type="line"/>
      <point x="782" y="153" type="line"/>
      <point x="779" y="153" type="line"/>
      <point x="738" y="76" type="line"/>
      <point x="595" y="74" type="line"/>
      <point x="561" y="71" type="line"/>
      <point x="559" y="74" type="line"/>
      <point x="620" y="138"/>
      <point x="752" y="190"/>
      <point x="752" y="280" type="curve" smooth="yes"/>
      <point x="752" y="347"/>
      <point x="662" y="378"/>
      <point x="568" y="378" type="curve" smooth="yes"/>
      <point x="473" y="378" type="line"/>
      <point x="473" y="268" type="line"/>
      <point x="476" y="268" type="line"/>
      <point x="500" y="325"/>
      <point x="528" y="358"/>
      <point x="579" y="358" type="curve" smooth="yes"/>
      <point x="627" y="358"/>
      <point x="656" y="332"/>
      <point x="656" y="292" type="curve" smooth="yes"/>
      <point x="656" y="176"/>
      <point x="522" y="63"/>
      <point x="463" y="21" type="curve"/>
    </contour>
  </outline>
</glyph>
<glyph name="threequarters" format="1">
  <advance width="807"/>
  <unicode hex="00BE"/>
  <outline>
    <contour>
      <point x="687" y="719" type="line"/>
      <point x="639" y="719" type="line"/>
      <point x="188" y="-33" type="line"/>
      <point x="235" y="-33" type="line"/>
    </contour>
    <contour>
      <point x="48" y="296" type="line"/>
      <point x="123" y="296"/>
      <point x="340" y="333"/>
      <point x="340" y="425" type="curve" smooth="yes"/>
      <point x="340" y="486"/>
      <point x="246" y="504"/>
      <point x="176" y="509" type="curve"/>
      <point x="282" y="537"/>
      <point x="334" y="566"/>
      <point x="334" y="608" type="curve" smooth="yes"/>
      <point x="334" y="666"/>
      <point x="254" y="685"/>
      <point x="162" y="685" type="curve" smooth="yes"/>
      <point x="52" y="685" type="line"/>
      <point x="52" y="577" type="line"/>
      <point x="56" y="577" type="line"/>
      <point x="77" y="622"/>
      <point x="100" y="665"/>
      <point x="152" y="665" type="curve" smooth="yes"/>
      <point x="204" y="665"/>
      <point x="238" y="640"/>
      <point x="238" y="599" type="curve" smooth="yes"/>
      <point x="238" y="545"/>
      <point x="155" y="520"/>
      <point x="110" y="505" type="curve" smooth="yes"/>
      <point x="86" y="498" type="line"/>
      <point x="88" y="487" type="line"/>
      <point x="96" y="488"/>
      <point x="103" y="490"/>
      <point x="110" y="491" type="curve"/>
      <point x="175" y="480"/>
      <point x="228" y="459"/>
      <point x="228" y="403" type="curve" smooth="yes"/>
      <point x="228" y="336"/>
      <point x="114" y="315"/>
      <point x="43" y="315" type="curve"/>
    </contour>
    <contour>
      <point x="676" y="123" type="line"/>
      <point x="676" y="288" type="line"/>
      <point x="591" y="175" type="line"/>
      <point x="591" y="124" type="line"/>
      <point x="492" y="124" type="line"/>
      <point x="692" y="379" type="line"/>
      <point x="590" y="379" type="line"/>
      <point x="420" y="95" type="line"/>
      <point x="592" y="95" type="line"/>
      <point x="592" y="42" type="line"/>
      <point x="530" y="0" type="line"/>
      <point x="743" y="0" type="line"/>
      <point x="676" y="42" type="line"/>
      <point x="676" y="94" type="line"/>
      <point x="767" y="94" type="line"/>
      <point x="767" y="123" type="line"/>
    </contour>
  </outline>
</glyph>
<glyph name="questiondown" format="1">
  <advance width="504"/>
  <unicode hex="00BF"/>
  <outline>
    <contour>
      <point x="336" y="501" type="line"/>
      <point x="251" y="409" type="line"/>
      <point x="336" y="316" type="line"/>
      <point x="422" y="409" type="line"/>
    </contour>
    <contour>
      <point x="460" y="-220" type="line"/>
      <point x="436" y="-49" type="line"/>
      <point x="428" y="-50" type="line"/>
      <point x="406" y="-124"/>
      <point x="372" y="-183"/>
      <point x="296" y="-183" type="curve" smooth="yes"/>
      <point x="256" y="-183"/>
      <point x="218" y="-153"/>
      <point x="218" y="-43" type="curve" smooth="yes"/>
      <point x="218" y="26"/>
      <point x="276" y="101"/>
      <point x="368" y="133" type="curve"/>
      <point x="350" y="255" type="line"/>
      <point x="326" y="255" type="line"/>
      <point x="314" y="147" type="line"/>
      <point x="248" y="113"/>
      <point x="66" y="65"/>
      <point x="66" y="-65" type="curve" smooth="yes"/>
      <point x="66" y="-202"/>
      <point x="230" y="-220"/>
      <point x="374" y="-220" type="curve" smooth="yes"/>
    </contour>
  </outline>
</glyph>
<glyph name="Agrave" format="1">
  <advance width="730"/>
  <unicode hex="00C0"/>
  <outline>
    <contour>
      <point x="353" y="740" type="line"/>
      <point x="368" y="740" type="line"/>
      <point x="355" y="869" type="line"/>
      <point x="224" y="869" type="line"/>
    </contour>
    <contour>
      <point x="192" y="214" type="line"/>
      <point x="452" y="214" type="line"/>
      <point x="513" y="69" type="line"/>
      <point x="421" y="0" type="line"/>
      <point x="729" y="0" type="line"/>
      <point x="654" y="67" type="line"/>
      <point x="384" y="695" type="line"/>
      <point x="337" y="695" type="line"/>
      <point x="83" y="79" type="line"/>
      <point x="12" y="0" type="line"/>
      <point x="233" y="0" type="line"/>
      <point x="138" y="78" type="line"/>
    </contour>
    <contour>
      <point x="436" y="254" type="line"/>
      <point x="208" y="254" type="line"/>
      <point x="320" y="533" type="line"/>
    </contour>
  </outline>
</glyph>
<glyph name="Aacute" format="1">
  <advance width="730"/>
  <unicode hex="00C1"/>
  <outline>
    <contour>
      <point x="361" y="740" type="line"/>
      <point x="490" y="869" type="line"/>
      <point x="359" y="869" type="line"/>
      <point x="346" y="740" type="line"/>
    </contour>
    <contour>
      <point x="192" y="214" type="line"/>
      <point x="452" y="214" type="line"/>
      <point x="513" y="69" type="line"/>
      <point x="421" y="0" type="line"/>
      <point x="729" y="0" type="line"/>
      <point x="654" y="67" type="line"/>
      <point x="384" y="695" type="line"/>
      <point x="337" y="695" type="line"/>
      <point x="83" y="79" type="line"/>
      <point x="12" y="0" type="line"/>
      <point x="233" y="0" type="line"/>
      <point x="138" y="78" type="line"/>
    </contour>
    <contour>
      <point x="436" y="254" type="line"/>
      <point x="208" y="254" type="line"/>
      <point x="320" y="533" type="line"/>
    </contour>
  </outline>
</glyph>
<glyph name="Acircumflex" format="1">
  <advance width="730"/>
  <unicode hex="00C2"/>
  <outline>
    <contour>
      <point x="258" y="740" type="line"/>
      <point x="273" y="740" type="line"/>
      <point x="362" y="810" type="line"/>
      <point x="451" y="740" type="line"/>
      <point x="466" y="740" type="line"/>
      <point x="403" y="869" type="line"/>
      <point x="320" y="869" type="line"/>
    </contour>
    <contour>
      <point x="192" y="214" type="line"/>
      <point x="452" y="214" type="line"/>
      <point x="513" y="69" type="line"/>
      <point x="421" y="0" type="line"/>
      <point x="729" y="0" type="line"/>
      <point x="654" y="67" type="line"/>
      <point x="384" y="695" type="line"/>
      <point x="337" y="695" type="line"/>
      <point x="83" y="79" type="line"/>
      <point x="12" y="0" type="line"/>
      <point x="233" y="0" type="line"/>
      <point x="138" y="78" type="line"/>
    </contour>
    <contour>
      <point x="436" y="254" type="line"/>
      <point x="208" y="254" type="line"/>
      <point x="320" y="533" type="line"/>
    </contour>
  </outline>
</glyph>
<glyph name="Atilde" format="1">
  <advance width="727"/>
  <unicode hex="00C3"/>
  <outline>
    <contour>
      <point x="490" y="868" type="line"/>
      <point x="475" y="874" type="line"/>
      <point x="460" y="855"/>
      <point x="446" y="840"/>
      <point x="431" y="840" type="curve" smooth="yes"/>
      <point x="385" y="840"/>
      <point x="332" y="847"/>
      <point x="286" y="851" type="curve"/>
      <point x="223" y="744" type="line"/>
      <point x="237" y="735" type="line"/>
      <point x="250" y="757"/>
      <point x="264" y="778"/>
      <point x="277" y="778" type="curve" smooth="yes"/>
      <point x="326" y="778"/>
      <point x="382" y="771"/>
      <point x="431" y="767" type="curve"/>
    </contour>
    <contour>
      <point x="414" y="0" type="line"/>
      <point x="722" y="0" type="line"/>
      <point x="647" y="67" type="line"/>
      <point x="377" y="695" type="line"/>
      <point x="330" y="695" type="line"/>
      <point x="76" y="79" type="line"/>
      <point x="5" y="0" type="line"/>
      <point x="226" y="0" type="line"/>
      <point x="131" y="78" type="line"/>
      <point x="185" y="214" type="line"/>
      <point x="445" y="214" type="line"/>
      <point x="506" y="69" type="line"/>
    </contour>
    <contour>
      <point x="313" y="533" type="line"/>
      <point x="427" y="259" type="line"/>
      <point x="203" y="259" type="line"/>
    </contour>
  </outline>
</glyph>
<glyph name="Adieresis" format="1">
  <advance width="730"/>
  <unicode hex="00C4"/>
  <outline>
    <contour>
      <point x="159" y="830" type="line"/>
      <point x="236" y="742" type="line"/>
      <point x="313" y="830" type="line"/>
      <point x="236" y="917" type="line"/>
    </contour>
    <contour>
      <point x="392" y="830" type="line"/>
      <point x="470" y="742" type="line"/>
      <point x="546" y="830" type="line"/>
      <point x="470" y="917" type="line"/>
    </contour>
    <contour>
      <point x="192" y="214" type="line"/>
      <point x="452" y="214" type="line"/>
      <point x="513" y="69" type="line"/>
      <point x="421" y="0" type="line"/>
      <point x="729" y="0" type="line"/>
      <point x="654" y="67" type="line"/>
      <point x="384" y="695" type="line"/>
      <point x="337" y="695" type="line"/>
      <point x="83" y="79" type="line"/>
      <point x="12" y="0" type="line"/>
      <point x="233" y="0" type="line"/>
      <point x="138" y="78" type="line"/>
    </contour>
    <contour>
      <point x="436" y="254" type="line"/>
      <point x="208" y="254" type="line"/>
      <point x="320" y="533" type="line"/>
    </contour>
  </outline>
</glyph>
<glyph name="Aring" format="1">
  <advance width="730"/>
  <unicode hex="00C5"/>
  <outline>
    <contour>
      <point x="262" y="829" type="curve" smooth="yes"/>
      <point x="262" y="775"/>
      <point x="306" y="731"/>
      <point x="360" y="731" type="curve" smooth="yes"/>
      <point x="414" y="731"/>
      <point x="458" y="775"/>
      <point x="458" y="829" type="curve" smooth="yes"/>
      <point x="458" y="883"/>
      <point x="414" y="927"/>
      <point x="360" y="927" type="curve" smooth="yes"/>
      <point x="306" y="927"/>
      <point x="262" y="883"/>
    </contour>
    <contour>
      <point x="296" y="829" type="curve" smooth="yes"/>
      <point x="296" y="864"/>
      <point x="325" y="893"/>
      <point x="360" y="893" type="curve" smooth="yes"/>
      <point x="395" y="893"/>
      <point x="424" y="864"/>
      <point x="424" y="829" type="curve" smooth="yes"/>
      <point x="424" y="794"/>
      <point x="395" y="765"/>
      <point x="360" y="765" type="curve" smooth="yes"/>
      <point x="325" y="765"/>
      <point x="296" y="794"/>
    </contour>
    <contour>
      <point x="192" y="214" type="line"/>
      <point x="452" y="214" type="line"/>
      <point x="513" y="69" type="line"/>
      <point x="421" y="0" type="line"/>
      <point x="729" y="0" type="line"/>
      <point x="654" y="67" type="line"/>
      <point x="384" y="695" type="line"/>
      <point x="337" y="695" type="line"/>
      <point x="83" y="79" type="line"/>
      <point x="12" y="0" type="line"/>
      <point x="233" y="0" type="line"/>
      <point x="138" y="78" type="line"/>
    </contour>
    <contour>
      <point x="436" y="254" type="line"/>
      <point x="208" y="254" type="line"/>
      <point x="320" y="533" type="line"/>
    </contour>
  </outline>
</glyph>
<glyph name="AE" format="1">
  <advance width="910"/>
  <unicode hex="00C6"/>
  <outline>
    <contour>
      <point x="874" y="0" type="line"/>
      <point x="885" y="217" type="line"/>
      <point x="880" y="219" type="line"/>
      <point x="736" y="36" type="line"/>
      <point x="563" y="36" type="line"/>
      <point x="563" y="332" type="line"/>
      <point x="836" y="332" type="line"/>
      <point x="836" y="372" type="line"/>
      <point x="563" y="372" type="line"/>
      <point x="563" y="649" type="line"/>
      <point x="727" y="649" type="line"/>
      <point x="849" y="475" type="line"/>
      <point x="855" y="475" type="line"/>
      <point x="855" y="685" type="line"/>
      <point x="517" y="685" type="line"/>
      <point x="518" y="686" type="line"/>
      <point x="320" y="686" type="line"/>
      <point x="397" y="625" type="line"/>
      <point x="75" y="85" type="line"/>
      <point x="0" y="0" type="line"/>
      <point x="209" y="0" type="line"/>
      <point x="126" y="76" type="line"/>
      <point x="207" y="214" type="line"/>
      <point x="433" y="214" type="line"/>
      <point x="433" y="106" type="line"/>
      <point x="373" y="0" type="line"/>
    </contour>
    <contour>
      <point x="433" y="598" type="line"/>
      <point x="433" y="254" type="line"/>
      <point x="230" y="254" type="line"/>
      <point x="416" y="575" type="line"/>
      <point x="429" y="601" type="line"/>
    </contour>
  </outline>
</glyph>
<glyph name="Ccedilla" format="1">
  <advance width="651"/>
  <unicode hex="00C7"/>
  <outline>
    <contour>
      <point x="565" y="482" type="line"/>
      <point x="565" y="685" type="line"/>
      <point x="409" y="685" type="line" smooth="yes"/>
      <point x="168" y="685"/>
      <point x="35" y="497"/>
      <point x="35" y="319" type="curve" smooth="yes"/>
      <point x="35" y="123"/>
      <point x="147" y="-12"/>
      <point x="327" y="-12" type="curve" smooth="yes"/>
      <point x="480" y="-12"/>
      <point x="572" y="107"/>
      <point x="616" y="211" type="curve"/>
      <point x="601" y="221" type="line"/>
      <point x="569" y="170"/>
      <point x="509" y="105"/>
      <point x="388" y="105" type="curve" smooth="yes"/>
      <point x="248" y="105"/>
      <point x="180" y="237"/>
      <point x="180" y="406" type="curve" smooth="yes"/>
      <point x="180" y="538"/>
      <point x="230" y="644"/>
      <point x="347" y="644" type="curve" smooth="yes"/>
      <point x="451" y="644"/>
      <point x="519" y="566"/>
      <point x="552" y="482" type="curve"/>
    </contour>
    <contour>
      <point x="341" y="-12" type="line"/>
      <point x="310" y="-12" type="line"/>
      <point x="265" y="-76" type="line"/>
      <point x="265" y="-79" type="line"/>
      <point x="305" y="-89"/>
      <point x="374" y="-92"/>
      <point x="374" y="-124" type="curve" smooth="yes"/>
      <point x="374" y="-138"/>
      <point x="350" y="-147"/>
      <point x="323" y="-147" type="curve" smooth="yes"/>
      <point x="294" y="-147"/>
      <point x="270" y="-138"/>
      <point x="250" y="-119" type="curve"/>
      <point x="239" y="-137" type="line"/>
      <point x="265" y="-160"/>
      <point x="287" y="-171"/>
      <point x="321" y="-171" type="curve" smooth="yes"/>
      <point x="371" y="-171"/>
      <point x="419" y="-145"/>
      <point x="419" y="-96" type="curve" smooth="yes"/>
      <point x="419" y="-63"/>
      <point x="358" y="-45"/>
      <point x="329" y="-34" type="curve"/>
    </contour>
  </outline>
</glyph>
<glyph name="Eacute" format="1">
  <advance width="592"/>
  <unicode hex="00C9"/>
  <outline>
    <contour>
      <point x="258" y="740" type="line"/>
      <point x="273" y="740" type="line"/>
      <point x="402" y="869" type="line"/>
      <point x="271" y="869" type="line"/>
    </contour>
    <contour>
      <point x="541" y="0" type="line"/>
      <point x="552" y="217" type="line"/>
      <point x="541" y="219" type="line"/>
      <point x="409" y="36" type="line"/>
      <point x="230" y="36" type="line"/>
      <point x="230" y="327" type="line"/>
      <point x="503" y="327" type="line"/>
      <point x="503" y="372" type="line"/>
      <point x="230" y="372" type="line"/>
      <point x="230" y="649" type="line"/>
      <point x="400" y="649" type="line"/>
      <point x="510" y="475" type="line"/>
      <point x="522" y="475" type="line"/>
      <point x="522" y="685" type="line"/>
      <point x="40" y="685" type="line"/>
      <point x="100" y="581" type="line"/>
      <point x="100" y="106" type="line"/>
      <point x="40" y="0" type="line"/>
    </contour>
  </outline>
</glyph>
<glyph name="Ecircumflex" format="1">
  <advance width="592"/>
  <unicode hex="00CA"/>
  <outline>
    <contour>
      <point x="199" y="740" type="line"/>
      <point x="214" y="740" type="line"/>
      <point x="303" y="810" type="line"/>
      <point x="392" y="740" type="line"/>
      <point x="407" y="740" type="line"/>
      <point x="344" y="869" type="line"/>
      <point x="261" y="869" type="line"/>
    </contour>
    <contour>
      <point x="541" y="0" type="line"/>
      <point x="552" y="217" type="line"/>
      <point x="541" y="219" type="line"/>
      <point x="409" y="36" type="line"/>
      <point x="230" y="36" type="line"/>
      <point x="230" y="327" type="line"/>
      <point x="503" y="327" type="line"/>
      <point x="503" y="372" type="line"/>
      <point x="230" y="372" type="line"/>
      <point x="230" y="649" type="line"/>
      <point x="400" y="649" type="line"/>
      <point x="510" y="475" type="line"/>
      <point x="522" y="475" type="line"/>
      <point x="522" y="685" type="line"/>
      <point x="40" y="685" type="line"/>
      <point x="100" y="581" type="line"/>
      <point x="100" y="106" type="line"/>
      <point x="40" y="0" type="line"/>
    </contour>
  </outline>
</glyph>
<glyph name="Edieresis" format="1">
  <advance width="592"/>
  <unicode hex="00CB"/>
  <outline>
    <contour>
      <point x="110" y="829" type="line"/>
      <point x="188" y="741" type="line"/>
      <point x="264" y="829" type="line"/>
      <point x="188" y="916" type="line"/>
    </contour>
    <contour>
      <point x="344" y="829" type="line"/>
      <point x="422" y="741" type="line"/>
      <point x="498" y="829" type="line"/>
      <point x="422" y="916" type="line"/>
    </contour>
    <contour>
      <point x="541" y="0" type="line"/>
      <point x="552" y="217" type="line"/>
      <point x="541" y="219" type="line"/>
      <point x="409" y="36" type="line"/>
      <point x="230" y="36" type="line"/>
      <point x="230" y="327" type="line"/>
      <point x="503" y="327" type="line"/>
      <point x="503" y="372" type="line"/>
      <point x="230" y="372" type="line"/>
      <point x="230" y="649" type="line"/>
      <point x="400" y="649" type="line"/>
      <point x="510" y="475" type="line"/>
      <point x="522" y="475" type="line"/>
      <point x="522" y="685" type="line"/>
      <point x="40" y="685" type="line"/>
      <point x="100" y="581" type="line"/>
      <point x="100" y="106" type="line"/>
      <point x="40" y="0" type="line"/>
    </contour>
  </outline>
</glyph>
<glyph name="Igrave" format="1">
  <advance width="358"/>
  <unicode hex="00CC"/>
  <outline>
    <contour>
      <point x="203" y="740" type="line"/>
      <point x="218" y="740" type="line"/>
      <point x="205" y="869" type="line"/>
      <point x="74" y="869" type="line"/>
    </contour>
    <contour>
      <point x="318" y="0" type="line"/>
      <point x="244" y="106" type="line"/>
      <point x="244" y="579" type="line"/>
      <point x="318" y="685" type="line"/>
      <point x="40" y="685" type="line"/>
      <point x="114" y="579" type="line"/>
      <point x="114" y="106" type="line"/>
      <point x="40" y="0" type="line"/>
    </contour>
  </outline>
</glyph>
<glyph name="Iacute" format="1">
  <advance width="358"/>
  <unicode hex="00CD"/>
  <outline>
    <contour>
      <point x="156" y="740" type="line"/>
      <point x="285" y="869" type="line"/>
      <point x="154" y="869" type="line"/>
      <point x="141" y="740" type="line"/>
    </contour>
    <contour>
      <point x="318" y="0" type="line"/>
      <point x="244" y="106" type="line"/>
      <point x="244" y="579" type="line"/>
      <point x="318" y="685" type="line"/>
      <point x="40" y="685" type="line"/>
      <point x="114" y="579" type="line"/>
      <point x="114" y="106" type="line"/>
      <point x="40" y="0" type="line"/>
    </contour>
  </outline>
</glyph>
<glyph name="Icircumflex" format="1">
  <advance width="358"/>
  <unicode hex="00CE"/>
  <outline>
    <contour>
      <point x="78" y="740" type="line"/>
      <point x="93" y="740" type="line"/>
      <point x="182" y="810" type="line"/>
      <point x="271" y="740" type="line"/>
      <point x="286" y="740" type="line"/>
      <point x="223" y="869" type="line"/>
      <point x="140" y="869" type="line"/>
    </contour>
    <contour>
      <point x="318" y="0" type="line"/>
      <point x="244" y="106" type="line"/>
      <point x="244" y="579" type="line"/>
      <point x="318" y="685" type="line"/>
      <point x="40" y="685" type="line"/>
      <point x="114" y="579" type="line"/>
      <point x="114" y="106" type="line"/>
      <point x="40" y="0" type="line"/>
    </contour>
  </outline>
</glyph>
<glyph name="Idieresis" format="1">
  <advance width="446"/>
  <unicode hex="00CF"/>
  <outline>
    <contour>
      <point x="30" y="830" type="line"/>
      <point x="106" y="742" type="line"/>
      <point x="184" y="830" type="line"/>
      <point x="106" y="917" type="line"/>
    </contour>
    <contour>
      <point x="262" y="830" type="line"/>
      <point x="340" y="742" type="line"/>
      <point x="416" y="830" type="line"/>
      <point x="340" y="917" type="line"/>
    </contour>
    <contour>
      <point x="362" y="0" type="line"/>
      <point x="288" y="106" type="line"/>
      <point x="288" y="579" type="line"/>
      <point x="362" y="685" type="line"/>
      <point x="84" y="685" type="line"/>
      <point x="158" y="579" type="line"/>
      <point x="158" y="106" type="line"/>
      <point x="84" y="0" type="line"/>
    </contour>
  </outline>
</glyph>
<glyph name="Eth" format="1">
  <advance width="708"/>
  <unicode hex="00D0"/>
  <outline>
    <contour>
      <point x="25" y="685" type="line"/>
      <point x="99" y="579" type="line"/>
      <point x="99" y="378" type="line"/>
      <point x="25" y="378" type="line"/>
      <point x="25" y="328" type="line"/>
      <point x="99" y="328" type="line"/>
      <point x="99" y="106" type="line"/>
      <point x="25" y="0" type="line"/>
      <point x="274" y="0" type="line" smooth="yes"/>
      <point x="520" y="0"/>
      <point x="673" y="140"/>
      <point x="673" y="382" type="curve" smooth="yes"/>
      <point x="673" y="524"/>
      <point x="593" y="685"/>
      <point x="291" y="685" type="curve" smooth="yes"/>
    </contour>
    <contour>
      <point x="229" y="38" type="line"/>
      <point x="229" y="328" type="line"/>
      <point x="375" y="328" type="line"/>
      <point x="375" y="378" type="line"/>
      <point x="229" y="378" type="line"/>
      <point x="229" y="653" type="line"/>
      <point x="299" y="653" type="line" smooth="yes"/>
      <point x="457" y="653"/>
      <point x="533" y="544"/>
      <point x="533" y="344" type="curve" smooth="yes"/>
      <point x="533" y="222"/>
      <point x="504" y="38"/>
      <point x="292" y="38" type="curve" smooth="yes"/>
    </contour>
  </outline>
</glyph>
<glyph name="Ntilde" format="1">
  <advance width="756"/>
  <unicode hex="00D1"/>
  <outline>
    <contour>
      <point x="511" y="836" type="line"/>
      <point x="496" y="842" type="line"/>
      <point x="481" y="823"/>
      <point x="467" y="808"/>
      <point x="452" y="808" type="curve" smooth="yes"/>
      <point x="406" y="808"/>
      <point x="353" y="815"/>
      <point x="307" y="819" type="curve"/>
      <point x="244" y="712" type="line"/>
      <point x="258" y="703" type="line"/>
      <point x="271" y="725"/>
      <point x="285" y="746"/>
      <point x="298" y="746" type="curve" smooth="yes"/>
      <point x="347" y="746"/>
      <point x="403" y="739"/>
      <point x="452" y="735" type="curve"/>
    </contour>
    <contour>
      <point x="647" y="58" type="line"/>
      <point x="647" y="592" type="line"/>
      <point x="721" y="685" type="line"/>
      <point x="513" y="685" type="line"/>
      <point x="599" y="599" type="line"/>
      <point x="599" y="114" type="line"/>
      <point x="189" y="685" type="line"/>
      <point x="24" y="685" type="line"/>
      <point x="121" y="558" type="line"/>
      <point x="121" y="93" type="line"/>
      <point x="47" y="0" type="line"/>
      <point x="253" y="0" type="line"/>
      <point x="168" y="86" type="line"/>
      <point x="168" y="489" type="line"/>
      <point x="535" y="0" type="line"/>
      <point x="690" y="0" type="line"/>
    </contour>
  </outline>
</glyph>
<glyph name="Ocircumflex" format="1">
  <advance width="738"/>
  <unicode hex="00D4"/>
  <outline>
    <contour>
      <point x="263" y="740" type="line"/>
      <point x="278" y="740" type="line"/>
      <point x="367" y="810" type="line"/>
      <point x="456" y="740" type="line"/>
      <point x="471" y="740" type="line"/>
      <point x="408" y="869" type="line"/>
      <point x="325" y="869" type="line"/>
    </contour>
    <contour>
      <point x="703" y="373" type="curve" smooth="yes"/>
      <point x="703" y="536"/>
      <point x="591" y="698"/>
      <point x="407" y="698" type="curve" smooth="yes"/>
      <point x="163" y="698"/>
      <point x="35" y="514"/>
      <point x="35" y="313" type="curve" smooth="yes"/>
      <point x="35" y="150"/>
      <point x="147" y="-12"/>
      <point x="331" y="-12" type="curve" smooth="yes"/>
      <point x="575" y="-12"/>
      <point x="703" y="172"/>
    </contour>
    <contour>
      <point x="336" y="655" type="curve" smooth="yes"/>
      <point x="478" y="655"/>
      <point x="563" y="458"/>
      <point x="563" y="252" type="curve" smooth="yes"/>
      <point x="563" y="173"/>
      <point x="522" y="30"/>
      <point x="402" y="30" type="curve" smooth="yes"/>
      <point x="260" y="30"/>
      <point x="177" y="228"/>
      <point x="177" y="434" type="curve" smooth="yes"/>
      <point x="177" y="513"/>
      <point x="201" y="655"/>
    </contour>
  </outline>
</glyph>
<glyph name="Otilde" format="1">
  <advance width="738"/>
  <unicode hex="00D5"/>
  <outline>
    <contour>
      <point x="222" y="739" type="line"/>
      <point x="236" y="730" type="line"/>
      <point x="249" y="752"/>
      <point x="263" y="773"/>
      <point x="276" y="773" type="curve" smooth="yes"/>
      <point x="325" y="773"/>
      <point x="381" y="766"/>
      <point x="430" y="762" type="curve"/>
      <point x="489" y="863" type="line"/>
      <point x="474" y="869" type="line"/>
      <point x="459" y="850"/>
      <point x="445" y="835"/>
      <point x="430" y="835" type="curve" smooth="yes"/>
      <point x="384" y="835"/>
      <point x="331" y="842"/>
      <point x="285" y="846" type="curve"/>
    </contour>
    <contour>
      <point x="703" y="373" type="curve" smooth="yes"/>
      <point x="703" y="536"/>
      <point x="591" y="698"/>
      <point x="407" y="698" type="curve" smooth="yes"/>
      <point x="163" y="698"/>
      <point x="35" y="514"/>
      <point x="35" y="313" type="curve" smooth="yes"/>
      <point x="35" y="150"/>
      <point x="147" y="-12"/>
      <point x="331" y="-12" type="curve" smooth="yes"/>
      <point x="575" y="-12"/>
      <point x="703" y="172"/>
    </contour>
    <contour>
      <point x="336" y="655" type="curve" smooth="yes"/>
      <point x="478" y="655"/>
      <point x="563" y="458"/>
      <point x="563" y="252" type="curve" smooth="yes"/>
      <point x="563" y="173"/>
      <point x="522" y="30"/>
      <point x="402" y="30" type="curve" smooth="yes"/>
      <point x="260" y="30"/>
      <point x="177" y="228"/>
      <point x="177" y="434" type="curve" smooth="yes"/>
      <point x="177" y="513"/>
      <point x="201" y="655"/>
    </contour>
  </outline>
</glyph>
<glyph name="multiply" format="1">
  <advance width="393"/>
  <unicode hex="00D7"/>
  <outline>
    <contour>
      <point x="247" y="254" type="line"/>
      <point x="362" y="375" type="line"/>
      <point x="311" y="432" type="line"/>
      <point x="194" y="309" type="line"/>
      <point x="82" y="427" type="line"/>
      <point x="31" y="376" type="line"/>
      <point x="144" y="257" type="line"/>
      <point x="22" y="129" type="line"/>
      <point x="73" y="72" type="line"/>
      <point x="197" y="202" type="line"/>
      <point x="320" y="73" type="line"/>
      <point x="371" y="124" type="line"/>
    </contour>
  </outline>
</glyph>
<glyph name="Oslash" format="1">
  <advance width="752"/>
  <unicode hex="00D8"/>
  <outline>
    <contour>
      <point x="722" y="690" type="line"/>
      <point x="655" y="690" type="line"/>
      <point x="601" y="630" type="line"/>
      <point x="553" y="672"/>
      <point x="491" y="698"/>
      <point x="417" y="698" type="curve" smooth="yes"/>
      <point x="173" y="698"/>
      <point x="45" y="514"/>
      <point x="45" y="313" type="curve" smooth="yes"/>
      <point x="45" y="234"/>
      <point x="71" y="155"/>
      <point x="120" y="95" type="curve"/>
      <point x="30" y="-5" type="line"/>
      <point x="97" y="-5" type="line"/>
      <point x="154" y="58" type="line"/>
      <point x="202" y="15"/>
      <point x="266" y="-12"/>
      <point x="341" y="-12" type="curve" smooth="yes"/>
      <point x="585" y="-12"/>
      <point x="713" y="172"/>
      <point x="713" y="373" type="curve" smooth="yes"/>
      <point x="713" y="453"/>
      <point x="686" y="534"/>
      <point x="636" y="594" type="curve"/>
    </contour>
    <contour>
      <point x="223" y="209" type="line"/>
      <point x="199" y="276"/>
      <point x="187" y="354"/>
      <point x="187" y="434" type="curve" smooth="yes"/>
      <point x="187" y="513"/>
      <point x="211" y="655"/>
      <point x="346" y="655" type="curve" smooth="yes"/>
      <point x="417" y="655"/>
      <point x="473" y="606"/>
      <point x="512" y="531" type="curve"/>
    </contour>
    <contour>
      <point x="534" y="481" type="line"/>
      <point x="560" y="414"/>
      <point x="573" y="334"/>
      <point x="573" y="252" type="curve" smooth="yes"/>
      <point x="573" y="173"/>
      <point x="532" y="30"/>
      <point x="412" y="30" type="curve" smooth="yes"/>
      <point x="340" y="30"/>
      <point x="283" y="81"/>
      <point x="244" y="159" type="curve"/>
    </contour>
  </outline>
</glyph>
<glyph name="Ugrave" format="1">
  <advance width="763"/>
  <unicode hex="00D9"/>
  <outline>
    <contour>
      <point x="438" y="740" type="line"/>
      <point x="453" y="740" type="line"/>
      <point x="440" y="869" type="line"/>
      <point x="309" y="869" type="line"/>
    </contour>
    <contour>
      <point x="244" y="579" type="line"/>
      <point x="318" y="685" type="line"/>
      <point x="40" y="685" type="line"/>
      <point x="113" y="580" type="line"/>
      <point x="113" y="221" type="line" smooth="yes"/>
      <point x="113" y="-15"/>
      <point x="336" y="-15"/>
      <point x="397" y="-15" type="curve" smooth="yes"/>
      <point x="500" y="-15"/>
      <point x="577" y="30"/>
      <point x="613" y="96" type="curve" smooth="yes"/>
      <point x="641" y="148"/>
      <point x="654" y="186"/>
      <point x="654" y="277" type="curve" smooth="yes"/>
      <point x="654" y="595" type="line"/>
      <point x="728" y="685" type="line"/>
      <point x="529" y="685" type="line"/>
      <point x="606" y="595" type="line"/>
      <point x="606" y="301" type="line" smooth="yes"/>
      <point x="606" y="77"/>
      <point x="514" y="33"/>
      <point x="434" y="33" type="curve" smooth="yes"/>
      <point x="337" y="33"/>
      <point x="244" y="51"/>
      <point x="244" y="236" type="curve" smooth="yes"/>
    </contour>
  </outline>
</glyph>
<glyph name="Udieresis" format="1">
  <advance width="763"/>
  <unicode hex="00DC"/>
  <outline>
    <contour>
      <point x="222" y="828" type="line"/>
      <point x="303" y="736" type="line"/>
      <point x="384" y="828" type="line"/>
      <point x="303" y="919" type="line"/>
    </contour>
    <contour>
      <point x="467" y="828" type="line"/>
      <point x="549" y="736" type="line"/>
      <point x="629" y="828" type="line"/>
      <point x="549" y="919" type="line"/>
    </contour>
    <contour>
      <point x="244" y="579" type="line"/>
      <point x="318" y="685" type="line"/>
      <point x="40" y="685" type="line"/>
      <point x="113" y="580" type="line"/>
      <point x="113" y="221" type="line" smooth="yes"/>
      <point x="113" y="-15"/>
      <point x="336" y="-15"/>
      <point x="397" y="-15" type="curve" smooth="yes"/>
      <point x="500" y="-15"/>
      <point x="577" y="30"/>
      <point x="613" y="96" type="curve" smooth="yes"/>
      <point x="641" y="148"/>
      <point x="654" y="186"/>
      <point x="654" y="277" type="curve" smooth="yes"/>
      <point x="654" y="595" type="line"/>
      <point x="728" y="685" type="line"/>
      <point x="529" y="685" type="line"/>
      <point x="606" y="595" type="line"/>
      <point x="606" y="301" type="line" smooth="yes"/>
      <point x="606" y="77"/>
      <point x="514" y="33"/>
      <point x="434" y="33" type="curve" smooth="yes"/>
      <point x="337" y="33"/>
      <point x="244" y="51"/>
      <point x="244" y="236" type="curve" smooth="yes"/>
    </contour>
  </outline>
</glyph>
<glyph name="Yacute" format="1">
  <advance width="689"/>
  <unicode hex="00DD"/>
  <outline>
    <contour>
      <point x="350" y="740" type="line"/>
      <point x="365" y="740" type="line"/>
      <point x="494" y="869" type="line"/>
      <point x="363" y="869" type="line"/>
    </contour>
    <contour>
      <point x="493" y="0" type="line"/>
      <point x="409" y="101" type="line"/>
      <point x="409" y="318" type="line"/>
      <point x="576" y="591" type="line"/>
      <point x="679" y="685" type="line"/>
      <point x="425" y="685" type="line"/>
      <point x="510" y="581" type="line"/>
      <point x="379" y="357" type="line"/>
      <point x="363" y="390" type="line"/>
      <point x="245" y="579" type="line"/>
      <point x="246" y="579" type="line"/>
      <point x="331" y="685" type="line"/>
      <point x="10" y="685" type="line"/>
      <point x="101" y="579" type="line"/>
      <point x="279" y="281" type="line"/>
      <point x="279" y="101" type="line"/>
      <point x="195" y="0" type="line"/>
    </contour>
  </outline>
</glyph>
<glyph name="Thorn" format="1">
  <advance width="605"/>
  <unicode hex="00DE"/>
  <outline>
    <contour>
      <point x="244" y="558" type="line"/>
      <point x="244" y="579" type="line"/>
      <point x="318" y="685" type="line"/>
      <point x="40" y="685" type="line"/>
      <point x="114" y="579" type="line"/>
      <point x="114" y="106" type="line"/>
      <point x="40" y="0" type="line"/>
      <point x="334" y="0" type="line"/>
      <point x="244" y="106" type="line"/>
      <point x="244" y="163" type="line"/>
      <point x="267" y="163"/>
      <point x="304" y="165"/>
      <point x="336" y="170" type="curve" smooth="yes"/>
      <point x="441" y="183"/>
      <point x="558" y="252"/>
      <point x="558" y="375" type="curve" smooth="yes"/>
      <point x="558" y="541"/>
      <point x="351" y="558"/>
      <point x="280" y="558" type="curve" smooth="yes"/>
    </contour>
    <contour>
      <point x="244" y="528" type="line"/>
      <point x="351" y="528"/>
      <point x="416" y="475"/>
      <point x="416" y="363" type="curve" smooth="yes"/>
      <point x="416" y="251"/>
      <point x="353" y="197"/>
      <point x="244" y="197" type="curve"/>
    </contour>
  </outline>
</glyph>
<glyph name="germandbls" format="1">
  <advance width="584"/>
  <unicode hex="00DF"/>
  <outline>
    <contour>
      <point x="24" y="490" type="line"/>
      <point x="94" y="427" type="line"/>
      <point x="94" y="86" type="line"/>
      <point x="20" y="0" type="line"/>
      <point x="214" y="0" type="line"/>
      <point x="214" y="490" type="line"/>
      <point x="200" y="521" type="line" smooth="yes"/>
      <point x="161" y="608"/>
      <point x="218" y="661"/>
      <point x="277" y="661" type="curve" smooth="yes"/>
      <point x="324" y="661"/>
      <point x="372" y="627"/>
      <point x="372" y="549" type="curve" smooth="yes"/>
      <point x="372" y="465"/>
      <point x="341" y="408"/>
      <point x="265" y="315" type="curve"/>
      <point x="306" y="301"/>
      <point x="479" y="199"/>
      <point x="479" y="111" type="curve" smooth="yes"/>
      <point x="479" y="53"/>
      <point x="452" y="30"/>
      <point x="411" y="30" type="curve" smooth="yes"/>
      <point x="381" y="30"/>
      <point x="324" y="49"/>
      <point x="282" y="165" type="curve"/>
      <point x="271" y="165" type="line"/>
      <point x="264" y="0" type="line"/>
      <point x="317" y="-4"/>
      <point x="377" y="-4"/>
      <point x="381" y="-4" type="curve" smooth="yes"/>
      <point x="503" y="-4"/>
      <point x="559" y="63"/>
      <point x="559" y="168" type="curve" smooth="yes"/>
      <point x="559" y="293"/>
      <point x="434" y="349"/>
      <point x="371" y="391" type="curve"/>
      <point x="399" y="415"/>
      <point x="479" y="496"/>
      <point x="479" y="563" type="curve" smooth="yes"/>
      <point x="479" y="677"/>
      <point x="383" y="695"/>
      <point x="312" y="695" type="curve" smooth="yes"/>
      <point x="154" y="695"/>
      <point x="94" y="530"/>
      <point x="94" y="490" type="curve"/>
    </contour>
  </outline>
</glyph>
<glyph name="atilde" format="1">
  <advance width="534"/>
  <unicode hex="00E3"/>
  <outline>
    <contour>
      <point x="133" y="571" type="line"/>
      <point x="147" y="562" type="line"/>
      <point x="160" y="584"/>
      <point x="174" y="605"/>
      <point x="187" y="605" type="curve" smooth="yes"/>
      <point x="236" y="605"/>
      <point x="286" y="596"/>
      <point x="335" y="592" type="curve"/>
      <point x="394" y="695" type="line"/>
      <point x="379" y="701" type="line"/>
      <point x="364" y="682"/>
      <point x="350" y="667"/>
      <point x="335" y="667" type="curve" smooth="yes"/>
      <point x="289" y="667"/>
      <point x="242" y="676"/>
      <point x="196" y="680" type="curve"/>
    </contour>
    <contour>
      <point x="319" y="0" type="line"/>
      <point x="514" y="0" type="line"/>
      <point x="440" y="65" type="line"/>
      <point x="439" y="65" type="line"/>
      <point x="439" y="425" type="line"/>
      <point x="487" y="490" type="line"/>
      <point x="49" y="490" type="line"/>
      <point x="49" y="330" type="line"/>
      <point x="56" y="330" type="line"/>
      <point x="93" y="404"/>
      <point x="142" y="455"/>
      <point x="226" y="455" type="curve" smooth="yes"/>
      <point x="317" y="455"/>
      <point x="319" y="400"/>
      <point x="319" y="310" type="curve"/>
      <point x="146" y="259"/>
      <point x="25" y="207"/>
      <point x="25" y="105" type="curve" smooth="yes"/>
      <point x="25" y="24"/>
      <point x="76" y="-10"/>
      <point x="145" y="-10" type="curve" smooth="yes"/>
      <point x="211" y="-10"/>
      <point x="281" y="47"/>
      <point x="319" y="84" type="curve"/>
    </contour>
    <contour>
      <point x="319" y="111" type="line"/>
      <point x="294" y="85"/>
      <point x="263" y="69"/>
      <point x="232" y="69" type="curve" smooth="yes"/>
      <point x="190" y="69"/>
      <point x="157" y="90"/>
      <point x="157" y="138" type="curve" smooth="yes"/>
      <point x="157" y="186"/>
      <point x="197" y="245"/>
      <point x="319" y="283" type="curve"/>
    </contour>
  </outline>
</glyph>
<glyph name="adieresis" format="1">
  <advance width="534"/>
  <unicode hex="00E4"/>
  <outline>
    <contour>
      <point x="92" y="622" type="line"/>
      <point x="160" y="545" type="line"/>
      <point x="227" y="622" type="line"/>
      <point x="160" y="698" type="line"/>
    </contour>
    <contour>
      <point x="297" y="622" type="line"/>
      <point x="365" y="545" type="line"/>
      <point x="432" y="622" type="line"/>
      <point x="365" y="698" type="line"/>
    </contour>
    <contour>
      <point x="319" y="0" type="line"/>
      <point x="514" y="0" type="line"/>
      <point x="440" y="65" type="line"/>
      <point x="439" y="65" type="line"/>
      <point x="439" y="425" type="line"/>
      <point x="487" y="490" type="line"/>
      <point x="49" y="490" type="line"/>
      <point x="49" y="330" type="line"/>
      <point x="56" y="330" type="line"/>
      <point x="93" y="404"/>
      <point x="142" y="455"/>
      <point x="226" y="455" type="curve" smooth="yes"/>
      <point x="317" y="455"/>
      <point x="319" y="400"/>
      <point x="319" y="310" type="curve"/>
      <point x="146" y="259"/>
      <point x="25" y="207"/>
      <point x="25" y="105" type="curve" smooth="yes"/>
      <point x="25" y="24"/>
      <point x="76" y="-10"/>
      <point x="145" y="-10" type="curve" smooth="yes"/>
      <point x="211" y="-10"/>
      <point x="281" y="47"/>
      <point x="319" y="84" type="curve"/>
    </contour>
    <contour>
      <point x="319" y="111" type="line"/>
      <point x="294" y="85"/>
      <point x="263" y="69"/>
      <point x="232" y="69" type="curve" smooth="yes"/>
      <point x="190" y="69"/>
      <point x="157" y="90"/>
      <point x="157" y="138" type="curve" smooth="yes"/>
      <point x="157" y="186"/>
      <point x="197" y="245"/>
      <point x="319" y="283" type="curve"/>
    </contour>
  </outline>
</glyph>
<glyph name="aring" format="1">
  <advance width="534"/>
  <unicode hex="00E5"/>
  <outline>
    <contour>
      <point x="174" y="635" type="curve" smooth="yes"/>
      <point x="174" y="586"/>
      <point x="214" y="546"/>
      <point x="263" y="546" type="curve" smooth="yes"/>
      <point x="312" y="546"/>
      <point x="352" y="586"/>
      <point x="352" y="635" type="curve" smooth="yes"/>
      <point x="352" y="684"/>
      <point x="312" y="724"/>
      <point x="263" y="724" type="curve" smooth="yes"/>
      <point x="214" y="724"/>
      <point x="174" y="684"/>
    </contour>
    <contour>
      <point x="202" y="635" type="curve" smooth="yes"/>
      <point x="202" y="669"/>
      <point x="229" y="696"/>
      <point x="263" y="696" type="curve" smooth="yes"/>
      <point x="297" y="696"/>
      <point x="324" y="669"/>
      <point x="324" y="635" type="curve" smooth="yes"/>
      <point x="324" y="601"/>
      <point x="297" y="574"/>
      <point x="263" y="574" type="curve" smooth="yes"/>
      <point x="229" y="574"/>
      <point x="202" y="601"/>
    </contour>
    <contour>
      <point x="319" y="0" type="line"/>
      <point x="514" y="0" type="line"/>
      <point x="440" y="65" type="line"/>
      <point x="439" y="65" type="line"/>
      <point x="439" y="425" type="line"/>
      <point x="487" y="490" type="line"/>
      <point x="49" y="490" type="line"/>
      <point x="49" y="330" type="line"/>
      <point x="56" y="330" type="line"/>
      <point x="93" y="404"/>
      <point x="142" y="455"/>
      <point x="226" y="455" type="curve" smooth="yes"/>
      <point x="317" y="455"/>
      <point x="319" y="400"/>
      <point x="319" y="310" type="curve"/>
      <point x="146" y="259"/>
      <point x="25" y="207"/>
      <point x="25" y="105" type="curve" smooth="yes"/>
      <point x="25" y="24"/>
      <point x="76" y="-10"/>
      <point x="145" y="-10" type="curve" smooth="yes"/>
      <point x="211" y="-10"/>
      <point x="281" y="47"/>
      <point x="319" y="84" type="curve"/>
    </contour>
    <contour>
      <point x="319" y="111" type="line"/>
      <point x="294" y="85"/>
      <point x="263" y="69"/>
      <point x="232" y="69" type="curve" smooth="yes"/>
      <point x="190" y="69"/>
      <point x="157" y="90"/>
      <point x="157" y="138" type="curve" smooth="yes"/>
      <point x="157" y="186"/>
      <point x="197" y="245"/>
      <point x="319" y="283" type="curve"/>
    </contour>
  </outline>
</glyph>
<glyph name="ae" format="1">
  <advance width="775"/>
  <unicode hex="00E6"/>
  <outline>
    <contour>
      <point x="745" y="284" type="line"/>
      <point x="745" y="421"/>
      <point x="672" y="502"/>
      <point x="552" y="502" type="curve" smooth="yes"/>
      <point x="524" y="502"/>
      <point x="499" y="498"/>
      <point x="476" y="490" type="curve"/>
      <point x="49" y="490" type="line"/>
      <point x="49" y="344" type="line"/>
      <point x="55" y="344" type="line"/>
      <point x="89" y="411"/>
      <point x="150" y="458"/>
      <point x="226" y="458" type="curve" smooth="yes"/>
      <point x="316" y="458"/>
      <point x="329" y="400"/>
      <point x="319" y="310" type="curve"/>
      <point x="146" y="259"/>
      <point x="25" y="207"/>
      <point x="25" y="105" type="curve" smooth="yes"/>
      <point x="25" y="24"/>
      <point x="76" y="-10"/>
      <point x="145" y="-10" type="curve" smooth="yes"/>
      <point x="206" y="-10"/>
      <point x="277" y="28"/>
      <point x="339" y="97" type="curve"/>
      <point x="373" y="34"/>
      <point x="432" y="-12"/>
      <point x="514" y="-12" type="curve" smooth="yes"/>
      <point x="633" y="-12"/>
      <point x="704" y="80"/>
      <point x="740" y="171" type="curve"/>
      <point x="725" y="177" type="line"/>
      <point x="710" y="135"/>
      <point x="650" y="101"/>
      <point x="582" y="101" type="curve" smooth="yes"/>
      <point x="504" y="101"/>
      <point x="435" y="155"/>
      <point x="424" y="284" type="curve"/>
    </contour>
    <contour>
      <point x="422" y="310" type="line"/>
      <point x="422" y="321" type="line" smooth="yes"/>
      <point x="422" y="381"/>
      <point x="453" y="472"/>
      <point x="529" y="472" type="curve" smooth="yes"/>
      <point x="573" y="472"/>
      <point x="616" y="430"/>
      <point x="616" y="323" type="curve" smooth="yes"/>
      <point x="616" y="319"/>
      <point x="616" y="314"/>
      <point x="615" y="310" type="curve"/>
    </contour>
    <contour>
      <point x="232" y="69" type="curve" smooth="yes"/>
      <point x="190" y="69"/>
      <point x="157" y="90"/>
      <point x="157" y="138" type="curve" smooth="yes"/>
      <point x="157" y="185"/>
      <point x="196" y="243"/>
      <point x="314" y="281" type="curve"/>
      <point x="311" y="263"/>
      <point x="309" y="244"/>
      <point x="309" y="225" type="curve" smooth="yes"/>
      <point x="309" y="189"/>
      <point x="316" y="153"/>
      <point x="328" y="121" type="curve"/>
      <point x="300" y="83"/>
      <point x="261" y="69"/>
    </contour>
  </outline>
</glyph>
<glyph name="ccedilla" format="1">
  <advance width="468"/>
  <unicode hex="00E7"/>
  <outline>
    <contour>
      <point x="414" y="354" type="line"/>
      <point x="414" y="490" type="line"/>
      <point x="294" y="490" type="line" smooth="yes"/>
      <point x="103" y="490"/>
      <point x="30" y="344"/>
      <point x="30" y="225" type="curve" smooth="yes"/>
      <point x="30" y="111"/>
      <point x="88" y="-1"/>
      <point x="207" y="-11" type="curve"/>
      <point x="165" y="-72" type="line"/>
      <point x="165" y="-87"/>
      <point x="267" y="-89"/>
      <point x="267" y="-128" type="curve" smooth="yes"/>
      <point x="267" y="-138"/>
      <point x="247" y="-145"/>
      <point x="220" y="-145" type="curve" smooth="yes"/>
      <point x="193" y="-145"/>
      <point x="170" y="-136"/>
      <point x="150" y="-119" type="curve"/>
      <point x="143" y="-133" type="line"/>
      <point x="166" y="-153"/>
      <point x="189" y="-162"/>
      <point x="218" y="-162" type="curve" smooth="yes"/>
      <point x="268" y="-162"/>
      <point x="312" y="-132"/>
      <point x="312" y="-96" type="curve" smooth="yes"/>
      <point x="312" y="-63"/>
      <point x="255" y="-45"/>
      <point x="226" y="-34" type="curve"/>
      <point x="238" y="-12" type="line"/>
      <point x="354" y="-3"/>
      <point x="418" y="115"/>
      <point x="438" y="193" type="curve"/>
      <point x="427" y="197" type="line"/>
      <point x="415" y="162"/>
      <point x="363" y="107"/>
      <point x="294" y="107" type="curve" smooth="yes"/>
      <point x="215" y="107"/>
      <point x="145" y="160"/>
      <point x="145" y="316" type="curve" smooth="yes"/>
      <point x="145" y="386"/>
      <point x="171" y="455"/>
      <point x="255" y="455" type="curve" smooth="yes"/>
      <point x="329" y="455"/>
      <point x="380" y="398"/>
      <point x="409" y="354" type="curve"/>
    </contour>
  </outline>
</glyph>
<glyph name="eacute" format="1">
  <advance width="497"/>
  <unicode hex="00E9"/>
  <outline>
    <contour>
      <point x="241" y="550" type="line"/>
      <point x="370" y="679" type="line"/>
      <point x="244" y="679" type="line"/>
      <point x="226" y="550" type="line"/>
    </contour>
    <contour>
      <point x="466" y="283" type="line"/>
      <point x="467" y="283" type="line"/>
      <point x="466" y="285" type="line"/>
      <point x="465" y="420"/>
      <point x="392" y="500"/>
      <point x="273" y="500" type="curve" smooth="yes"/>
      <point x="110" y="500"/>
      <point x="30" y="352"/>
      <point x="30" y="223" type="curve" smooth="yes"/>
      <point x="30" y="103"/>
      <point x="104" y="-14"/>
      <point x="235" y="-14" type="curve" smooth="yes"/>
      <point x="354" y="-14"/>
      <point x="425" y="78"/>
      <point x="461" y="169" type="curve"/>
      <point x="446" y="175" type="line"/>
      <point x="431" y="133"/>
      <point x="371" y="99"/>
      <point x="303" y="99" type="curve" smooth="yes"/>
      <point x="225" y="99"/>
      <point x="156" y="153"/>
      <point x="145" y="282" type="curve"/>
      <point x="466" y="282" type="line"/>
    </contour>
    <contour>
      <point x="337" y="312" type="line"/>
      <point x="143" y="312" type="line"/>
      <point x="143" y="319" type="line" smooth="yes"/>
      <point x="143" y="379"/>
      <point x="174" y="470"/>
      <point x="250" y="470" type="curve" smooth="yes"/>
      <point x="294" y="470"/>
      <point x="337" y="428"/>
      <point x="337" y="321" type="curve" smooth="yes"/>
    </contour>
  </outline>
</glyph>
<glyph name="igrave" format="1">
  <advance width="318"/>
  <unicode hex="00EC"/>
  <outline>
    <contour>
      <point x="180" y="552" type="line"/>
      <point x="162" y="681" type="line"/>
      <point x="36" y="681" type="line"/>
      <point x="165" y="552" type="line"/>
    </contour>
    <contour>
      <point x="31" y="433" type="line"/>
      <point x="99" y="356" type="line"/>
      <point x="99" y="86" type="line"/>
      <point x="25" y="0" type="line"/>
      <point x="293" y="0" type="line"/>
      <point x="219" y="86" type="line"/>
      <point x="219" y="500" type="line"/>
    </contour>
  </outline>
</glyph>
<glyph name="iacute" format="1">
  <advance width="318"/>
  <unicode hex="00ED"/>
  <outline>
    <contour>
      <point x="113" y="552" type="line"/>
      <point x="242" y="681" type="line"/>
      <point x="116" y="681" type="line"/>
      <point x="98" y="552" type="line"/>
    </contour>
    <contour>
      <point x="31" y="433" type="line"/>
      <point x="99" y="356" type="line"/>
      <point x="99" y="86" type="line"/>
      <point x="25" y="0" type="line"/>
      <point x="293" y="0" type="line"/>
      <point x="219" y="86" type="line"/>
      <point x="219" y="500" type="line"/>
    </contour>
  </outline>
</glyph>
<glyph name="icircumflex" format="1">
  <advance width="318"/>
  <unicode hex="00EE"/>
  <outline>
    <contour>
      <point x="51" y="552" type="line"/>
      <point x="65" y="552" type="line"/>
      <point x="150" y="625" type="line"/>
      <point x="233" y="552" type="line"/>
      <point x="249" y="552" type="line"/>
      <point x="191" y="681" type="line"/>
      <point x="108" y="681" type="line"/>
    </contour>
    <contour>
      <point x="31" y="433" type="line"/>
      <point x="99" y="356" type="line"/>
      <point x="99" y="86" type="line"/>
      <point x="25" y="0" type="line"/>
      <point x="293" y="0" type="line"/>
      <point x="219" y="86" type="line"/>
      <point x="219" y="500" type="line"/>
    </contour>
  </outline>
</glyph>
